{
.appVersion = "3201";
.formatVersion = 3;
classes = (
{
automatic = 1;
code = "A Aacute Abreve Abreveacute Abrevedotbelow Abrevegrave Abrevehookabove Abrevetilde Acircumflex Acircumflexacute Acircumflexdotbelow Acircumflexgrave Acircumflexhookabove Acircumflextilde Adblgrave Adieresis Adotbelow Agrave Ahookabove Ainvertedbreve Amacron Aogonek Aring Aringacute Atilde AE AEacute B C Cacute Ccaron Ccedilla Ccircumflex Cdotaccent D DZcaron Dcaron Dcroat Dzcaron Eth E Eacute Ebreve Ecaron Ecircumflex Ecircumflexacute Ecircumflexdotbelow Ecircumflexgrave Ecircumflexhookabove Ecircumflextilde Edblgrave Edieresis Edotaccent Edotbelow Egrave Ehookabove Einvertedbreve Emacron Eogonek Etilde Schwa F G Gbreve Gcaron Gcircumflex Gcommaaccent Gdotaccent H Hbar Hcircumflex I IJ Iacute Ibreve Icircumflex Idblgrave Idieresis Idotaccent Idotbelow Igrave Ihookabove Iinvertedbreve Imacron Iogonek Itilde J Jcircumflex K Kcommaaccent L LJ Lacute Lcaron Lcommaaccent Ldot Lj Lslash M N NJ Nacute Ncaron Ncommaaccent Nhookleft Nj Ntilde Eng O Oacute Obreve Ocircumflex Ocircumflexacute Ocircumflexdotbelow Ocircumflexgrave Ocircumflexhookabove Ocircumflextilde Odblgrave Odieresis Odieresismacron Odotaccentmacron Odotbelow Ograve Ohookabove Ohorn Ohornacute Ohorndotbelow Ohorngrave Ohornhookabove Ohorntilde Ohungarumlaut Oinvertedbreve Omacron Oogonek Oslash Oslashacute Otilde Otildemacron OE P Thorn Q R Racute Rcaron Rcommaaccent Rdblgrave Rinvertedbreve S Sacute Scaron Scedilla Scircumflex Scommaaccent Germandbls T Tbar Tcaron Tcedilla Tcommaaccent U Uacute Ubreve Ucircumflex Udblgrave Udieresis Udotbelow Ugrave Uhookabove Uhorn Uhornacute Uhorndotbelow Uhorngrave Uhornhookabove Uhorntilde Uhungarumlaut Uinvertedbreve Umacron Uogonek Uring Utilde V W Wacute Wcircumflex Wdieresis Wgrave X Y Yacute Ycircumflex Ydieresis Ydotbelow Ygrave Yhookabove Ymacron Ytilde Z Zacute Zcaron Zdotaccent";
name = Uppercase;
}
);
customParameters = (
{
name = fsType;
value = (
);
},
{

glyphs = (
{
glyphname = A;
lastChange = "2023-06-21 14:44:07 +0000";
layers = (
{
anchors = (
{
name = bottom;
pos = (217,0);
},
{
name = ogonek;
pos = (419,10);
},
{
name = top;
pos = (292,721);
}
);
background = {
anchors = (
{
name = bottom;
pos = (217,0);
},
{
name = ogonek;
pos = (419,10);
},
{
name = top;
pos = (282,721);
}
);
shapes = (
{
closed = 1;
nodes = (
(283,6,o),
(343,16,o),
(368,20,q),
(398,23,o),
(428,28,q),
(434,183,o),
(439,321,q),
(442,380,o),
(448,502,o),
(454,614,o),
(461,709,o),
(464,741,q),
(397,729,o),
(256,715,o),
(188,710,q),
(176,665,o),
(144,557,o),
(109,440,o),
(74,322,o),
(58,268,q),
(19,139,o),
(-21,6,q),
(10,10,o),
(42,14,q),
(68,17,o),
(128,24,o),
(150,27,q),
(190,171,l),
(277,171,l),
(275,151,o),
(270,95,o),
(267,67,q),
(263,35,o),
(259,2,q)
);
},
{
closed = 1;
nodes = (
(276,522,l),
(299,608,l),
(314,609,l),
(308,522,l),
(302,463,o),
(298,412,q),
(296,391,o),
(292,347,o),
(289,310,o),
(286,281,o),
(286,275,q),
(282,274,o),
(262,273,o),
(239,272,o),
(218,271,o),
(214,271,q)
);
}
);
};
layerId = "A5922FF3-8C0B-4EAE-8A2D-3EBDCCE80B0C";
shapes = (
{
closed = 1;
nodes = (
(291,7,o),
(335,15,o),
(368,20,cs),
(388,22,o),
(408,25,o),
(428,28,c),
(432,131,o),
(436,229,o),
(439,321,cs),
(446,466,o),
(453,628,o),
(464,741,c),
(375,725,o),
(279,717,o),
(188,710,c),
(161,609,o),
(95,393,o),
(58,268,cs),
(-21,6,l),
(0,9,o),
(21,11,o),
(42,14,cs),
(77,18,o),
(121,23,o),
(150,27,c),
(190,171,l),
(277,171,l),
(276,158,o),
(274,142,o),
(273,123,cs),
(267,67,ls),
(264,46,o),
(262,24,o),
(259,2,c)
);
},
{
closed = 1;
nodes = (
(276,522,l),
(299,608,l),
(314,609,l),
(308,522,ls),
(304,483,o),
(301,446,o),
(298,412,cs),
(292,353,o),
(286,292,o),
(286,275,c),
(280,274,o),
(226,271,o),
(214,271,c)
);
}
);
width = 433;
}
);
unicode = 65;
},
{
glyphname = Aacute;
lastChange = "2023-06-21 14:44:07 +0000";
layers = (
{
background = {
anchors = (
{
name = bottom;
pos = (217,0);
},
{
name = ogonek;
pos = (419,10);
},
{
name = top;
pos = (331,1089);
}
);
shapes = (
{
closed = 1;
nodes = (
(283,6,o),
(343,16,o),
(368,20,q),
(398,23,o),
(428,28,q),
(434,183,o),
(439,321,q),
(442,380,o),
(448,502,o),
(454,614,o),
(461,709,o),
(464,741,q),
(397,729,o),
(256,715,o),
(188,710,q),
(176,665,o),
(144,557,o),
(109,440,o),
(74,322,o),
(58,268,q),
(19,139,o),
(-21,6,q),
(10,10,o),
(42,14,q),
(68,17,o),
(128,24,o),
(150,27,q),
(190,171,l),
(277,171,l),
(275,151,o),
(270,95,o),
(267,67,q),
(263,35,o),
(259,2,q)
);
},
{
closed = 1;
nodes = (
(276,522,l),
(299,608,l),
(314,609,l),
(308,522,l),
(302,463,o),
(298,412,q),
(296,391,o),
(292,347,o),
(289,310,o),
(286,281,o),
(286,275,q),
(282,274,o),
(262,273,o),
(239,272,o),
(218,271,o),
(214,271,q)
);
},
{
closed = 1;
nodes = (
(263,772,o),
(399,821,o),
(458,845,q),
(450,906,o),
(449,1022,o),
(444,1089,q),
(392,1032,o),
(272,924,o),
(204,855,q),
(204,837,o),
(203,804,o),
(203,788,q),
(203,779,o),
(203,761,o),
(204,750,q)
);
}
);
};
layerId = "A5922FF3-8C0B-4EAE-8A2D-3EBDCCE80B0C";
shapes = (
{
ref = A;
},
{
pos = (131,200);
ref = acutecomb.case;
}
);
width = 433;
}
);
unicode = 193;
},
{
glyphname = Abreve;
lastChange = "2023-06-21 14:44:07 +0000";
layers = (
{
background = {
anchors = (
{
name = bottom;
pos = (217,0);
},
{
name = ogonek;
pos = (419,10);
},
{
name = top;
pos = (338,1009);
}
);
shapes = (
{
closed = 1;
nodes = (
(283,6,o),
(343,16,o),
(368,20,q),
(398,23,o),
(428,28,q),
(434,183,o),
(439,321,q),
(442,380,o),
(448,502,o),
(454,614,o),
(461,709,o),
(464,741,q),
(397,729,o),
(256,715,o),
(188,710,q),
(176,665,o),
(144,557,o),
(109,440,o),
(74,322,o),
(58,268,q),
(19,139,o),
(-21,6,q),
(10,10,o),
(42,14,q),
(68,17,o),
(128,24,o),
(150,27,q),
(190,171,l),
(277,171,l),
(275,151,o),
(270,95,o),
(267,67,q),
(263,35,o),
(259,2,q)
);
},
{
closed = 1;
nodes = (
(276,522,l),
(299,608,l),
(314,609,l),
(308,522,l),
(302,463,o),
(298,412,q),
(296,391,o),
(292,347,o),
(289,310,o),
(286,281,o),
(286,275,q),
(282,274,o),
(262,273,o),
(239,272,o),
(218,271,o),
(214,271,q)
);
},
{
closed = 1;
nodes = (
(402,816,o),
(460,910,o),
(471,964,q),
(455,980,ls),
(447,988,o),
(427,1005,o),
(414,1016,q),
(394,975,o),
(368,927,o),
(335,898,o),
(303,898,q),
(265,898,o),
(240,957,o),
(242,1006,c),
(229,996,o),
(206,975,o),
(195,966,q),
(183,955,o),
(173,946,q),
(169,882,o),
(240,770,o),
(295,770,qs),
(337,770,o)
);
}
);
};
layerId = "A5922FF3-8C0B-4EAE-8A2D-3EBDCCE80B0C";
shapes = (
{
ref = A;
},
{
pos = (130,117);
ref = brevecomb.case;
}
);
width = 433;
}
);
unicode = 258;
},
{
glyphname = Abreveacute;
lastChange = "2023-06-21 14:44:07 +0000";
layers = (
{
background = {
anchors = (
{
name = bottom;
pos = (217,0);
},
{
name = ogonek;
pos = (419,10);
},
{
name = top;
pos = (387,1377);
}
);
shapes = (
{
closed = 1;
nodes = (
(283,6,o),
(343,16,o),
(368,20,q),
(398,23,o),
(428,28,q),
(434,183,o),
(439,321,q),
(442,380,o),
(448,502,o),
(454,614,o),
(461,709,o),
(464,741,q),
(397,729,o),
(256,715,o),
(188,710,q),
(176,665,o),
(144,557,o),
(109,440,o),
(74,322,o),
(58,268,q),
(19,139,o),
(-21,6,q),
(10,10,o),
(42,14,q),
(68,17,o),
(128,24,o),
(150,27,q),
(190,171,l),
(277,171,l),
(275,151,o),
(270,95,o),
(267,67,q),
(263,35,o),
(259,2,q)
);
},
{
closed = 1;
nodes = (
(276,522,l),
(299,608,l),
(314,609,l),
(308,522,l),
(302,463,o),
(298,412,q),
(296,391,o),
(292,347,o),
(289,310,o),
(286,281,o),
(286,275,q),
(282,274,o),
(262,273,o),
(239,272,o),
(218,271,o),
(214,271,q)
);
},
{
closed = 1;
nodes = (
(402,816,o),
(460,910,o),
(471,964,q),
(455,980,ls),
(447,988,o),
(427,1005,o),
(414,1016,q),
(394,975,o),
(368,927,o),
(335,898,o),
(303,898,q),
(265,898,o),
(240,957,o),
(242,1006,c),
(229,996,o),
(206,975,o),
(195,966,q),
(183,955,o),
(173,946,q),
(169,882,o),
(240,770,o),
(295,770,qs),
(337,770,o)
);
},
{
closed = 1;
nodes = (
(319,1060,o),
(455,1109,o),
(514,1133,q),
(506,1194,o),
(505,1310,o),
(500,1377,q),
(448,1320,o),
(328,1212,o),
(260,1143,q),
(260,1125,o),
(259,1092,o),
(259,1076,q),
(259,1067,o),
(259,1049,o),
(260,1038,q)
);
}
);
};
layerId = "A5922FF3-8C0B-4EAE-8A2D-3EBDCCE80B0C";
shapes = (
{
ref = A;
},
{
pos = (130,117);
ref = brevecomb.case;
},
{
pos = (187,488);
ref = acutecomb.case;
}
);
width = 433;
}
);
unicode = 7854;
},
{
glyphname = Abrevedotbelow;
lastChange = "2023-06-21 14:44:07 +0000";
layers = (
{
background = {
anchors = (
{
name = bottom;
pos = (217,-206);
},
{
name = ogonek;
pos = (419,10);
},
{
name = top;
pos = (378,1008);
}
);
shapes = (
{
closed = 1;
nodes = (
(283,6,o),
(343,16,o),
(368,20,q),
(398,23,o),
(428,28,q),
(434,183,o),
(439,321,q),
(442,380,o),
(448,502,o),
(454,614,o),
(461,709,o),
(464,741,q),
(397,729,o),
(256,715,o),
(188,710,q),
(176,665,o),
(144,557,o),
(109,440,o),
(74,322,o),
(58,268,q),
(19,139,o),
(-21,6,q),
(10,10,o),
(42,14,q),
(68,17,o),
(128,24,o),
(150,27,q),
(190,171,l),
(277,171,l),
(275,151,o),
(270,95,o),
(267,67,q),
(263,35,o),
(259,2,q)
);
},
{
closed = 1;
nodes = (
(276,522,l),
(299,608,l),
(314,609,l),
(308,522,l),
(302,463,o),
(298,412,q),
(296,391,o),
(292,347,o),
(289,310,o),
(286,281,o),
(286,275,q),
(282,274,o),
(262,273,o),
(239,272,o),
(218,271,o),
(214,271,q)
);
},
{
closed = 1;
nodes = (
(228,-205,o),
(268,-189,o),
(296,-162,o),
(309,-129,o),
(309,-112,q),
(309,-80,o),
(262,-30,o),
(213,-30,q),
(190,-30,o),
(156,-46,o),
(134,-71,o),
(123,-103,o),
(123,-119,q),
(123,-153,o),
(163,-205,o),
(203,-205,q)
);
},
{
closed = 1;
nodes = (
(442,815,o),
(500,909,o),
(511,963,q),
(495,979,ls),
(487,987,o),
(467,1004,o),
(454,1015,q),
(434,974,o),
(408,926,o),
(375,897,o),
(343,897,q),
(305,897,o),
(280,956,o),
(282,1005,c),
(269,995,o),
(246,974,o),
(235,965,q),
(223,954,o),
(213,945,q),
(209,881,o),
(280,769,o),
(335,769,qs),
(377,769,o)
);
}
);
};
layerId = "A5922FF3-8C0B-4EAE-8A2D-3EBDCCE80B0C";
shapes = (
{
ref = A;
},
{
pos = (74,-28);
ref = dotbelowcomb.case;
},
{
pos = (130,117);
ref = brevecomb.case;
}
);
width = 433;
}
);
unicode = 7862;
},
{
glyphname = Abrevegrave;
lastChange = "2023-06-21 14:44:07 +0000";
layers = (
{
background = {
anchors = (
{
name = bottom;
pos = (217,0);
},
{
name = ogonek;
pos = (419,10);
},
{
name = top;
pos = (254,1350);
}
);
shapes = (
{
closed = 1;
nodes = (
(283,6,o),
(343,16,o),
(368,20,q),
(398,23,o),
(428,28,q),
(434,183,o),
(439,321,q),
(442,380,o),
(448,502,o),
(454,614,o),
(461,709,o),
(464,741,q),
(397,729,o),
(256,715,o),
(188,710,q),
(176,665,o),
(144,557,o),
(109,440,o),
(74,322,o),
(58,268,q),
(19,139,o),
(-21,6,q),
(10,10,o),
(42,14,q),
(68,17,o),
(128,24,o),
(150,27,q),
(190,171,l),
(277,171,l),
(275,151,o),
(270,95,o),
(267,67,q),
(263,35,o),
(259,2,q)
);
},
{
closed = 1;
nodes = (
(276,522,l),
(299,608,l),
(314,609,l),
(308,522,l),
(302,463,o),
(298,412,q),
(296,391,o),
(292,347,o),
(289,310,o),
(286,281,o),
(286,275,q),
(282,274,o),
(262,273,o),
(239,272,o),
(218,271,o),
(214,271,q)
);
},
{
closed = 1;
nodes = (
(402,816,o),
(460,910,o),
(471,964,q),
(455,980,ls),
(447,988,o),
(427,1005,o),
(414,1016,q),
(394,975,o),
(368,927,o),
(335,898,o),
(303,898,q),
(265,898,o),
(240,957,o),
(242,1006,c),
(229,996,o),
(206,975,o),
(195,966,q),
(183,955,o),
(173,946,q),
(169,882,o),
(240,770,o),
(295,770,qs),
(337,770,o)
);
},
{
closed = 1;
nodes = (
(384,1121,l),
(356,1153,o),
(281,1233,o),
(248,1268,q),
(209,1308,o),
(170,1350,q),
(161,1302,o),
(152,1256,q),
(145,1217,o),
(129,1134,o),
(123,1105,q),
(152,1096,o),
(238,1073,o),
(279,1064,q),
(326,1052,o),
(377,1040,q)
);
}
);
};
layerId = "A5922FF3-8C0B-4EAE-8A2D-3EBDCCE80B0C";
shapes = (
{
ref = A;
},
{
pos = (130,117);
ref = brevecomb.case;
},
{
pos = (57,461);
ref = gravecomb.case;
}
);
width = 433;
}
);
unicode = 7856;
},
{
glyphname = Abrevehookabove;
lastChange = "2023-06-21 14:44:07 +0000";
layers = (
{
background = {
anchors = (
{
name = bottom;
pos = (217,0);
},
{
name = ogonek;
pos = (419,10);
},
{
name = top;
pos = (388,1217);
}
);
shapes = (
{
closed = 1;
nodes = (
(283,6,o),
(343,16,o),
(368,20,q),
(398,23,o),
(428,28,q),
(434,183,o),
(439,321,q),
(442,380,o),
(448,502,o),
(454,614,o),
(461,709,o),
(464,741,q),
(397,729,o),
(256,715,o),
(188,710,q),
(176,665,o),
(144,557,o),
(109,440,o),
(74,322,o),
(58,268,q),
(19,139,o),
(-21,6,q),
(10,10,o),
(42,14,q),
(68,17,o),
(128,24,o),
(150,27,q),
(190,171,l),
(277,171,l),
(275,151,o),
(270,95,o),
(267,67,q),
(263,35,o),
(259,2,q)
);
},
{
closed = 1;
nodes = (
(276,522,l),
(299,608,l),
(314,609,l),
(308,522,l),
(302,463,o),
(298,412,q),
(296,391,o),
(292,347,o),
(289,310,o),
(286,281,o),
(286,275,q),
(282,274,o),
(262,273,o),
(239,272,o),
(218,271,o),
(214,271,q)
);
},
{
closed = 1;
nodes = (
(402,816,o),
(460,910,o),
(471,964,q),
(455,980,ls),
(447,988,o),
(427,1005,o),
(414,1016,q),
(394,975,o),
(368,927,o),
(335,898,o),
(303,898,q),
(265,898,o),
(240,957,o),
(242,1006,c),
(229,996,o),
(206,975,o),
(195,966,q),
(183,955,o),
(173,946,q),
(169,882,o),
(240,770,o),
(295,770,qs),
(337,770,o)
);
},
{
closed = 1;
nodes = (
(369,1035,l),
(388,1037,l),
(392,1049,o),
(405,1068,o),
(423,1083,o),
(443,1097,o),
(458,1114,o),
(468,1136,o),
(468,1153,q),
(465,1182,o),
(447,1203,o),
(433,1212,o),
(407,1217,o),
(397,1217,q),
(375,1217,o),
(332,1200,o),
(308,1181,q),
(324,1122,l),
(334,1130,o),
(353,1144,o),
(370,1154,o),
(377,1154,q),
(382,1154,o),
(388,1147,o),
(388,1145,q),
(388,1140,o),
(378,1129,o),
(363,1116,o),
(346,1099,o),
(330,1078,o),
(321,1050,o),
(321,1033,q)
);
}
);
};
layerId = "A5922FF3-8C0B-4EAE-8A2D-3EBDCCE80B0C";
shapes = (
{
ref = A;
},
{
pos = (130,117);
ref = brevecomb.case;
},
{
pos = (258,396);
ref = hookabovecomb.case;
}
);
width = 433;
}
);
unicode = 7858;
},
{
glyphname = Abrevetilde;
lastChange = "2023-06-21 14:44:07 +0000";
layers = (
{
background = {
anchors = (
{
name = bottom;
pos = (217,0);
},
{
name = ogonek;
pos = (419,10);
},
{
name = top;
pos = (385,1280);
}
);
shapes = (
{
closed = 1;
nodes = (
(283,6,o),
(343,16,o),
(368,20,q),
(398,23,o),
(428,28,q),
(434,183,o),
(439,321,q),
(442,380,o),
(448,502,o),
(454,614,o),
(461,709,o),
(464,741,q),
(397,729,o),
(256,715,o),
(188,710,q),
(176,665,o),
(144,557,o),
(109,440,o),
(74,322,o),
(58,268,q),
(19,139,o),
(-21,6,q),
(10,10,o),
(42,14,q),
(68,17,o),
(128,24,o),
(150,27,q),
(190,171,l),
(277,171,l),
(275,151,o),
(270,95,o),
(267,67,q),
(263,35,o),
(259,2,q)
);
},
{
closed = 1;
nodes = (
(276,522,l),
(299,608,l),
(314,609,l),
(308,522,l),
(302,463,o),
(298,412,q),
(296,391,o),
(292,347,o),
(289,310,o),
(286,281,o),
(286,275,q),
(282,274,o),
(262,273,o),
(239,272,o),
(218,271,o),
(214,271,q)
);
},
{
closed = 1;
nodes = (
(402,816,o),
(460,910,o),
(471,964,q),
(455,980,ls),
(447,988,o),
(427,1005,o),
(414,1016,q),
(394,975,o),
(368,927,o),
(335,898,o),
(303,898,q),
(265,898,o),
(240,957,o),
(242,1006,c),
(229,996,o),
(206,975,o),
(195,966,q),
(183,955,o),
(173,946,q),
(169,882,o),
(240,770,o),
(295,770,qs),
(337,770,o)
);
},
{
closed = 1;
nodes = (
(229,1064,o),
(253,1090,o),
(278,1114,o),
(306,1131,o),
(321,1131,q),
(342,1131,o),
(363,1110,o),
(383,1084,o),
(408,1063,o),
(432,1063,q),
(452,1063,o),
(487,1078,o),
(519,1102,o),
(547,1132,o),
(558,1149,q),
(585,1187,o),
(606,1236,q),
(600,1243,o),
(592,1249,q),
(584,1255,o),
(564,1271,o),
(552,1280,q),
(542,1271,o),
(518,1241,o),
(492,1211,o),
(464,1190,o),
(449,1190,q),
(444,1190,o),
(427,1216,o),
(399,1248,o),
(362,1276,o),
(338,1276,q),
(312,1276,o),
(268,1249,o),
(230,1210,o),
(199,1164,o),
(177,1125,o),
(165,1099,o),
(165,1099,q),
(171,1092,o),
(187,1080,o),
(206,1064,o),
(219,1055,q)
);
}
);
};
layerId = "A5922FF3-8C0B-4EAE-8A2D-3EBDCCE80B0C";
shapes = (
{
ref = A;
},
{
pos = (130,117);
ref = brevecomb.case;
},
{
pos = (166,393);
ref = tildecomb.case;
}
);
width = 433;
}
);
unicode = 7860;
},
{
glyphname = Acircumflex;
lastChange = "2023-06-21 14:44:07 +0000";
layers = (
{
background = {
anchors = (
{
name = bottom;
pos = (217,0);
},
{
name = ogonek;
pos = (419,10);
},
{
name = top;
pos = (327,1016);
}
);
shapes = (
{
closed = 1;
nodes = (
(283,6,o),
(343,16,o),
(368,20,q),
(398,23,o),
(428,28,q),
(434,183,o),
(439,321,q),
(442,380,o),
(448,502,o),
(454,614,o),
(461,709,o),
(464,741,q),
(397,729,o),
(256,715,o),
(188,710,q),
(176,665,o),
(144,557,o),
(109,440,o),
(74,322,o),
(58,268,q),
(19,139,o),
(-21,6,q),
(10,10,o),
(42,14,q),
(68,17,o),
(128,24,o),
(150,27,q),
(190,171,l),
(277,171,l),
(275,151,o),
(270,95,o),
(267,67,q),
(263,35,o),
(259,2,q)
);
},
{
closed = 1;
nodes = (
(276,522,l),
(299,608,l),
(314,609,l),
(308,522,l),
(302,463,o),
(298,412,q),
(296,391,o),
(292,347,o),
(289,310,o),
(286,281,o),
(286,275,q),
(282,274,o),
(262,273,o),
(239,272,o),
(218,271,o),
(214,271,q)
);
},
{
closed = 1;
nodes = (
(223,761,o),
(253,793,o),
(283,827,o),
(313,859,o),
(324,869,q),
(385,751,l),
(397,760,o),
(423,779,o),
(433,788,q),
(445,798,o),
(457,808,q),
(446,845,o),
(435,882,q),
(426,913,o),
(407,983,o),
(399,1010,q),
(397,1012,o),
(366,1010,o),
(327,1016,q),
(301,990,o),
(242,918,o),
(217,885,q),
(187,846,o),
(159,805,q),
(165,797,o),
(174,788,q),
(180,780,o),
(200,761,o),
(213,750,q)
);
}
);
};
layerId = "A5922FF3-8C0B-4EAE-8A2D-3EBDCCE80B0C";
shapes = (
{
ref = A;
},
{
pos = (82,133);
ref = circumflexcomb.case;
}
);
width = 433;
}
);
unicode = 194;
},
{
glyphname = Acircumflexacute;
lastChange = "2023-06-21 14:44:07 +0000";
layers = (
{
background = {
anchors = (
{
name = bottom;
pos = (217,0);
},
{
name = ogonek;
pos = (419,10);
},
{
name = top;
pos = (376,1384);
}
);
shapes = (
{
closed = 1;
nodes = (
(283,6,o),
(343,16,o),
(368,20,q),
(398,23,o),
(428,28,q),
(434,183,o),
(439,321,q),
(442,380,o),
(448,502,o),
(454,614,o),
(461,709,o),
(464,741,q),
(397,729,o),
(256,715,o),
(188,710,q),
(176,665,o),
(144,557,o),
(109,440,o),
(74,322,o),
(58,268,q),
(19,139,o),
(-21,6,q),
(10,10,o),
(42,14,q),
(68,17,o),
(128,24,o),
(150,27,q),
(190,171,l),
(277,171,l),
(275,151,o),
(270,95,o),
(267,67,q),
(263,35,o),
(259,2,q)
);
},
{
closed = 1;
nodes = (
(276,522,l),
(299,608,l),
(314,609,l),
(308,522,l),
(302,463,o),
(298,412,q),
(296,391,o),
(292,347,o),
(289,310,o),
(286,281,o),
(286,275,q),
(282,274,o),
(262,273,o),
(239,272,o),
(218,271,o),
(214,271,q)
);
},
{
closed = 1;
nodes = (
(223,761,o),
(253,793,o),
(283,827,o),
(313,859,o),
(324,869,q),
(385,751,l),
(397,760,o),
(423,779,o),
(433,788,q),
(445,798,o),
(457,808,q),
(446,845,o),
(435,882,q),
(426,913,o),
(407,983,o),
(399,1010,q),
(397,1012,o),
(366,1010,o),
(327,1016,q),
(301,990,o),
(242,918,o),
(217,885,q),
(187,846,o),
(159,805,q),
(165,797,o),
(174,788,q),
(180,780,o),
(200,761,o),
(213,750,q)
);
},
{
closed = 1;
nodes = (
(308,1067,o),
(444,1116,o),
(503,1140,q),
(495,1201,o),
(494,1317,o),
(489,1384,q),
(437,1327,o),
(317,1219,o),
(249,1150,q),
(249,1132,o),
(248,1099,o),
(248,1083,q),
(248,1074,o),
(248,1056,o),
(249,1045,q)
);
}
);
};
layerId = "A5922FF3-8C0B-4EAE-8A2D-3EBDCCE80B0C";
shapes = (
{
ref = A;
},
{
pos = (82,133);
ref = circumflexcomb.case;
},
{
pos = (176,495);
ref = acutecomb.case;
}
);
width = 433;
}
);
unicode = 7844;
},
{
glyphname = Acircumflexdotbelow;
lastChange = "2023-06-21 14:44:07 +0000";
layers = (
{
background = {
anchors = (
{
name = bottom;
pos = (217,-206);
},
{
name = ogonek;
pos = (419,10);
},
{
name = top;
pos = (327,1016);
}
);
shapes = (
{
closed = 1;
nodes = (
(283,6,o),
(343,16,o),
(368,20,q),
(398,23,o),
(428,28,q),
(434,183,o),
(439,321,q),
(442,380,o),
(448,502,o),
(454,614,o),
(461,709,o),
(464,741,q),
(397,729,o),
(256,715,o),
(188,710,q),
(176,665,o),
(144,557,o),
(109,440,o),
(74,322,o),
(58,268,q),
(19,139,o),
(-21,6,q),
(10,10,o),
(42,14,q),
(68,17,o),
(128,24,o),
(150,27,q),
(190,171,l),
(277,171,l),
(275,151,o),
(270,95,o),
(267,67,q),
(263,35,o),
(259,2,q)
);
},
{
closed = 1;
nodes = (
(276,522,l),
(299,608,l),
(314,609,l),
(308,522,l),
(302,463,o),
(298,412,q),
(296,391,o),
(292,347,o),
(289,310,o),
(286,281,o),
(286,275,q),
(282,274,o),
(262,273,o),
(239,272,o),
(218,271,o),
(214,271,q)
);
},
{
closed = 1;
nodes = (
(223,761,o),
(253,793,o),
(283,827,o),
(313,859,o),
(324,869,q),
(385,751,l),
(397,760,o),
(423,779,o),
(433,788,q),
(445,798,o),
(457,808,q),
(446,845,o),
(435,882,q),
(426,913,o),
(407,983,o),
(399,1010,q),
(397,1012,o),
(366,1010,o),
(327,1016,q),
(301,990,o),
(242,918,o),
(217,885,q),
(187,846,o),
(159,805,q),
(165,797,o),
(174,788,q),
(180,780,o),
(200,761,o),
(213,750,q)
);
},
{
closed = 1;
nodes = (
(228,-205,o),
(268,-189,o),
(296,-162,o),
(309,-129,o),
(309,-112,q),
(309,-80,o),
(262,-30,o),
(213,-30,q),
(190,-30,o),
(156,-46,o),
(134,-71,o),
(123,-103,o),
(123,-119,q),
(123,-153,o),
(163,-205,o),
(203,-205,q)
);
}
);
};
layerId = "A5922FF3-8C0B-4EAE-8A2D-3EBDCCE80B0C";
shapes = (
{
ref = A;
},
{
pos = (82,133);
ref = circumflexcomb.case;
},
{
pos = (74,-28);
ref = dotbelowcomb.case;
}
);
width = 433;
}
);
unicode = 7852;
},
{
glyphname = Acircumflexgrave;
lastChange = "2023-06-21 14:44:07 +0000";
layers = (
{
background = {
anchors = (
{
name = bottom;
pos = (217,0);
},
{
name = ogonek;
pos = (419,10);
},
{
name = top;
pos = (243,1357);
}
);
shapes = (
{
closed = 1;
nodes = (
(283,6,o),
(343,16,o),
(368,20,q),
(398,23,o),
(428,28,q),
(434,183,o),
(439,321,q),
(442,380,o),
(448,502,o),
(454,614,o),
(461,709,o),
(464,741,q),
(397,729,o),
(256,715,o),
(188,710,q),
(176,665,o),
(144,557,o),
(109,440,o),
(74,322,o),
(58,268,q),
(19,139,o),
(-21,6,q),
(10,10,o),
(42,14,q),
(68,17,o),
(128,24,o),
(150,27,q),
(190,171,l),
(277,171,l),
(275,151,o),
(270,95,o),
(267,67,q),
(263,35,o),
(259,2,q)
);
},
{
closed = 1;
nodes = (
(276,522,l),
(299,608,l),
(314,609,l),
(308,522,l),
(302,463,o),
(298,412,q),
(296,391,o),
(292,347,o),
(289,310,o),
(286,281,o),
(286,275,q),
(282,274,o),
(262,273,o),
(239,272,o),
(218,271,o),
(214,271,q)
);
},
{
closed = 1;
nodes = (
(223,761,o),
(253,793,o),
(283,827,o),
(313,859,o),
(324,869,q),
(385,751,l),
(397,760,o),
(423,779,o),
(433,788,q),
(445,798,o),
(457,808,q),
(446,845,o),
(435,882,q),
(426,913,o),
(407,983,o),
(399,1010,q),
(397,1012,o),
(366,1010,o),
(327,1016,q),
(301,990,o),
(242,918,o),
(217,885,q),
(187,846,o),
(159,805,q),
(165,797,o),
(174,788,q),
(180,780,o),
(200,761,o),
(213,750,q)
);
},
{
closed = 1;
nodes = (
(373,1128,l),
(345,1160,o),
(270,1240,o),
(237,1275,q),
(198,1315,o),
(159,1357,q),
(150,1309,o),
(141,1263,q),
(134,1224,o),
(118,1141,o),
(112,1112,q),
(141,1103,o),
(227,1080,o),
(268,1071,q),
(315,1059,o),
(366,1047,q)
);
}
);
};
layerId = "A5922FF3-8C0B-4EAE-8A2D-3EBDCCE80B0C";
shapes = (
{
ref = A;
},
{
pos = (82,133);
ref = circumflexcomb.case;
},
{
pos = (46,468);
ref = gravecomb.case;
}
);
width = 433;
}
);
unicode = 7846;
},
{
glyphname = Acircumflexhookabove;
lastChange = "2023-06-21 14:44:07 +0000";
layers = (
{
background = {
anchors = (
{
name = bottom;
pos = (217,0);
},
{
name = ogonek;
pos = (419,10);
},
{
name = top;
pos = (377,1224);
}
);
shapes = (
{
closed = 1;
nodes = (
(283,6,o),
(343,16,o),
(368,20,q),
(398,23,o),
(428,28,q),
(434,183,o),
(439,321,q),
(442,380,o),
(448,502,o),
(454,614,o),
(461,709,o),
(464,741,q),
(397,729,o),
(256,715,o),
(188,710,q),
(176,665,o),
(144,557,o),
(109,440,o),
(74,322,o),
(58,268,q),
(19,139,o),
(-21,6,q),
(10,10,o),
(42,14,q),
(68,17,o),
(128,24,o),
(150,27,q),
(190,171,l),
(277,171,l),
(275,151,o),
(270,95,o),
(267,67,q),
(263,35,o),
(259,2,q)
);
},
{
closed = 1;
nodes = (
(276,522,l),
(299,608,l),
(314,609,l),
(308,522,l),
(302,463,o),
(298,412,q),
(296,391,o),
(292,347,o),
(289,310,o),
(286,281,o),
(286,275,q),
(282,274,o),
(262,273,o),
(239,272,o),
(218,271,o),
(214,271,q)
);
},
{
closed = 1;
nodes = (
(223,761,o),
(253,793,o),
(283,827,o),
(313,859,o),
(324,869,q),
(385,751,l),
(397,760,o),
(423,779,o),
(433,788,q),
(445,798,o),
(457,808,q),
(446,845,o),
(435,882,q),
(426,913,o),
(407,983,o),
(399,1010,q),
(397,1012,o),
(366,1010,o),
(327,1016,q),
(301,990,o),
(242,918,o),
(217,885,q),
(187,846,o),
(159,805,q),
(165,797,o),
(174,788,q),
(180,780,o),
(200,761,o),
(213,750,q)
);
},
{
closed = 1;
nodes = (
(358,1042,l),
(377,1044,l),
(381,1056,o),
(394,1075,o),
(412,1090,o),
(432,1104,o),
(447,1121,o),
(457,1143,o),
(457,1160,q),
(454,1189,o),
(436,1210,o),
(422,1219,o),
(396,1224,o),
(386,1224,q),
(364,1224,o),
(321,1207,o),
(297,1188,q),
(313,1129,l),
(323,1137,o),
(342,1151,o),
(359,1161,o),
(366,1161,q),
(371,1161,o),
(377,1154,o),
(377,1152,q),
(377,1147,o),
(367,1136,o),
(352,1123,o),
(335,1106,o),
(319,1085,o),
(310,1057,o),
(310,1040,q)
);
}
);
};
layerId = "A5922FF3-8C0B-4EAE-8A2D-3EBDCCE80B0C";
shapes = (
{
ref = A;
},
{
pos = (82,133);
ref = circumflexcomb.case;
},
{
pos = (247,403);
ref = hookabovecomb.case;
}
);
width = 433;
}
);
unicode = 7848;
},
{
glyphname = Acircumflextilde;
lastChange = "2023-06-21 14:44:07 +0000";
layers = (
{
background = {
anchors = (
{
name = bottom;
pos = (217,0);
},
{
name = ogonek;
pos = (419,10);
},
{
name = top;
pos = (374,1287);
}
);
shapes = (
{
closed = 1;
nodes = (
(283,6,o),
(343,16,o),
(368,20,q),
(398,23,o),
(428,28,q),
(434,183,o),
(439,321,q),
(442,380,o),
(448,502,o),
(454,614,o),
(461,709,o),
(464,741,q),
(397,729,o),
(256,715,o),
(188,710,q),
(176,665,o),
(144,557,o),
(109,440,o),
(74,322,o),
(58,268,q),
(19,139,o),
(-21,6,q),
(10,10,o),
(42,14,q),
(68,17,o),
(128,24,o),
(150,27,q),
(190,171,l),
(277,171,l),
(275,151,o),
(270,95,o),
(267,67,q),
(263,35,o),
(259,2,q)
);
},
{
closed = 1;
nodes = (
(276,522,l),
(299,608,l),
(314,609,l),
(308,522,l),
(302,463,o),
(298,412,q),
(296,391,o),
(292,347,o),
(289,310,o),
(286,281,o),
(286,275,q),
(282,274,o),
(262,273,o),
(239,272,o),
(218,271,o),
(214,271,q)
);
},
{
closed = 1;
nodes = (
(223,761,o),
(253,793,o),
(283,827,o),
(313,859,o),
(324,869,q),
(385,751,l),
(397,760,o),
(423,779,o),
(433,788,q),
(445,798,o),
(457,808,q),
(446,845,o),
(435,882,q),
(426,913,o),
(407,983,o),
(399,1010,q),
(397,1012,o),
(366,1010,o),
(327,1016,q),
(301,990,o),
(242,918,o),
(217,885,q),
(187,846,o),
(159,805,q),
(165,797,o),
(174,788,q),
(180,780,o),
(200,761,o),
(213,750,q)
);
},
{
closed = 1;
nodes = (
(218,1071,o),
(242,1097,o),
(267,1121,o),
(295,1138,o),
(310,1138,q),
(331,1138,o),
(352,1117,o),
(372,1091,o),
(397,1070,o),
(421,1070,q),
(441,1070,o),
(476,1085,o),
(508,1109,o),
(536,1139,o),
(547,1156,q),
(574,1194,o),
(595,1243,q),
(589,1250,o),
(581,1256,q),
(573,1262,o),
(553,1278,o),
(541,1287,q),
(531,1278,o),
(507,1248,o),
(481,1218,o),
(453,1197,o),
(438,1197,q),
(433,1197,o),
(416,1223,o),
(388,1255,o),
(351,1283,o),
(327,1283,q),
(301,1283,o),
(257,1256,o),
(219,1217,o),
(188,1171,o),
(166,1132,o),
(154,1106,o),
(154,1106,q),
(160,1099,o),
(176,1087,o),
(195,1071,o),
(208,1062,q)
);
}
);
};
layerId = "A5922FF3-8C0B-4EAE-8A2D-3EBDCCE80B0C";
shapes = (
{
ref = A;
},
{
pos = (82,133);
ref = circumflexcomb.case;
},
{
pos = (155,400);
ref = tildecomb.case;
}
);
width = 433;
}
);
unicode = 7850;
},
{
glyphname = Adblgrave;
lastChange = "2023-06-21 14:44:07 +0000";
layers = (
{
background = {
anchors = (
{
name = bottom;
pos = (217,0);
},
{
name = ogonek;
pos = (419,10);
},
{
name = top;
pos = (268,991);
}
);
shapes = (
{
closed = 1;
nodes = (
(283,6,o),
(343,16,o),
(368,20,q),
(398,23,o),
(428,28,q),
(434,183,o),
(439,321,q),
(442,380,o),
(448,502,o),
(454,614,o),
(461,709,o),
(464,741,q),
(397,729,o),
(256,715,o),
(188,710,q),
(176,665,o),
(144,557,o),
(109,440,o),
(74,322,o),
(58,268,q),
(19,139,o),
(-21,6,q),
(10,10,o),
(42,14,q),
(68,17,o),
(128,24,o),
(150,27,q),
(190,171,l),
(277,171,l),
(275,151,o),
(270,95,o),
(267,67,q),
(263,35,o),
(259,2,q)
);
},
{
closed = 1;
nodes = (
(276,522,l),
(299,608,l),
(314,609,l),
(308,522,l),
(302,463,o),
(298,412,q),
(296,391,o),
(292,347,o),
(289,310,o),
(286,281,o),
(286,275,q),
(282,274,o),
(262,273,o),
(239,272,o),
(218,271,o),
(214,271,q)
);
},
{
closed = 1;
nodes = (
(254,813,l),
(226,845,o),
(151,925,o),
(118,960,q),
(79,1000,o),
(40,1042,q),
(31,994,o),
(22,948,q),
(15,909,o),
(-1,826,o),
(-7,797,q),
(22,788,o),
(108,765,o),
(149,756,q),
(196,744,o),
(247,732,q)
);
},
{
closed = 1;
nodes = (
(543,788,l),
(515,820,o),
(440,900,o),
(407,935,q),
(368,975,o),
(329,1017,q),
(320,969,o),
(311,923,q),
(304,884,o),
(288,801,o),
(282,772,q),
(311,763,o),
(397,740,o),
(438,731,q),
(485,719,o),
(536,707,q)
);
}
);
};
layerId = "A5922FF3-8C0B-4EAE-8A2D-3EBDCCE80B0C";
shapes = (
{
ref = A;
},
{
pos = (-46,102);
ref = dblgravecomb.case;
}
);
width = 433;
}
);
unicode = 512;
},
{
glyphname = Adieresis;
lastChange = "2023-06-21 14:44:07 +0000";
layers = (
{
background = {
anchors = (
{
name = bottom;
pos = (217,0);
},
{
name = ogonek;
pos = (419,10);
},
{
name = top;
pos = (282,989);
}
);
shapes = (
{
closed = 1;
nodes = (
(283,6,o),
(343,16,o),
(368,20,q),
(398,23,o),
(428,28,q),
(434,183,o),
(439,321,q),
(442,380,o),
(448,502,o),
(454,614,o),
(461,709,o),
(464,741,q),
(397,729,o),
(256,715,o),
(188,710,q),
(176,665,o),
(144,557,o),
(109,440,o),
(74,322,o),
(58,268,q),
(19,139,o),
(-21,6,q),
(10,10,o),
(42,14,q),
(68,17,o),
(128,24,o),
(150,27,q),
(190,171,l),
(277,171,l),
(275,151,o),
(270,95,o),
(267,67,q),
(263,35,o),
(259,2,q)
);
},
{
closed = 1;
nodes = (
(276,522,l),
(299,608,l),
(314,609,l),
(308,522,l),
(302,463,o),
(298,412,q),
(296,391,o),
(292,347,o),
(289,310,o),
(286,281,o),
(286,275,q),
(282,274,o),
(262,273,o),
(239,272,o),
(218,271,o),
(214,271,q)
);
},
{
closed = 1;
nodes = (
(411,814,o),
(450,831,o),
(477,857,o),
(491,890,o),
(491,908,q),
(491,939,o),
(443,989,o),
(395,989,q),
(372,989,o),
(337,973,o),
(315,949,o),
(304,917,o),
(304,900,q),
(304,867,o),
(344,814,o),
(384,814,q)
);
},
{
closed = 1;
nodes = (
(177,814,o),
(217,831,o),
(245,857,o),
(258,890,o),
(258,908,q),
(258,939,o),
(211,989,o),
(162,989,q),
(139,989,o),
(105,973,o),
(83,949,o),
(72,917,o),
(72,900,q),
(72,867,o),
(112,814,o),
(152,814,q)
);
}
);
};
layerId = "A5922FF3-8C0B-4EAE-8A2D-3EBDCCE80B0C";
shapes = (
{
ref = A;
},
{
pos = (33,106);
ref = dieresiscomb.case;
}
);
width = 433;
}
);
unicode = 196;
},
{
glyphname = Adotbelow;
lastChange = "2023-06-21 13:56:06 +0000";
layers = (
{
background = {
anchors = (
{
name = bottom;
pos = (217,-206);
},
{
name = ogonek;
pos = (419,10);
},
{
name = top;
pos = (282,721);
}
);
shapes = (
{
closed = 1;
nodes = (
(283,6,o),
(343,16,o),
(368,20,q),
(398,23,o),
(428,28,q),
(434,183,o),
(439,321,q),
(442,380,o),
(448,502,o),
(454,614,o),
(461,709,o),
(464,741,q),
(397,729,o),
(256,715,o),
(188,710,q),
(176,665,o),
(144,557,o),
(109,440,o),
(74,322,o),
(58,268,q),
(19,139,o),
(-21,6,q),
(10,10,o),
(42,14,q),
(68,17,o),
(128,24,o),
(150,27,q),
(190,171,l),
(277,171,l),
(275,151,o),
(270,95,o),
(267,67,q),
(263,35,o),
(259,2,q)
);
},
{
closed = 1;
nodes = (
(276,522,l),
(299,608,l),
(314,609,l),
(308,522,l),
(302,463,o),
(298,412,q),
(296,391,o),
(292,347,o),
(289,310,o),
(286,281,o),
(286,275,q),
(282,274,o),
(262,273,o),
(239,272,o),
(218,271,o),
(214,271,q)
);
},
{
closed = 1;
nodes = (
(228,-205,o),
(268,-189,o),
(296,-162,o),
(309,-129,o),
(309,-112,q),
(309,-80,o),
(262,-30,o),
(213,-30,q),
(190,-30,o),
(156,-46,o),
(134,-71,o),
(123,-103,o),
(123,-119,q),
(123,-153,o),
(163,-205,o),
(203,-205,q)
);
}
);
};
layerId = "A5922FF3-8C0B-4EAE-8A2D-3EBDCCE80B0C";
shapes = (
{
ref = A;
},
{
pos = (74,-28);
ref = dotbelowcomb.case;
}
);
width = 433;
}
);
unicode = 7840;
},
{
glyphname = Agrave;
lastChange = "2023-06-21 14:44:07 +0000";
layers = (
{
background = {
anchors = (
{
name = bottom;
pos = (217,0);
},
{
name = ogonek;
pos = (419,10);
},
{
name = top;
pos = (198,1062);
}
);
shapes = (
{
closed = 1;
nodes = (
(283,6,o),
(343,16,o),
(368,20,q),
(398,23,o),
(428,28,q),
(434,183,o),
(439,321,q),
(442,380,o),
(448,502,o),
(454,614,o),
(461,709,o),
(464,741,q),
(397,729,o),
(256,715,o),
(188,710,q),
(176,665,o),
(144,557,o),
(109,440,o),
(74,322,o),
(58,268,q),
(19,139,o),
(-21,6,q),
(10,10,o),
(42,14,q),
(68,17,o),
(128,24,o),
(150,27,q),
(190,171,l),
(277,171,l),
(275,151,o),
(270,95,o),
(267,67,q),
(263,35,o),
(259,2,q)
);
},
{
closed = 1;
nodes = (
(276,522,l),
(299,608,l),
(314,609,l),
(308,522,l),
(302,463,o),
(298,412,q),
(296,391,o),
(292,347,o),
(289,310,o),
(286,281,o),
(286,275,q),
(282,274,o),
(262,273,o),
(239,272,o),
(218,271,o),
(214,271,q)
);
},
{
closed = 1;
nodes = (
(328,833,l),
(300,865,o),
(225,945,o),
(192,980,q),
(153,1020,o),
(114,1062,q),
(105,1014,o),
(96,968,q),
(89,929,o),
(73,846,o),
(67,817,q),
(96,808,o),
(182,785,o),
(223,776,q),
(270,764,o),
(321,752,q)
);
}
);
};
layerId = "A5922FF3-8C0B-4EAE-8A2D-3EBDCCE80B0C";
shapes = (
{
ref = A;
},
{
pos = (1,173);
ref = gravecomb.case;
}
);
width = 433;
}
);
unicode = 192;
},
{
glyphname = Ahookabove;
lastChange = "2023-06-21 14:44:07 +0000";
layers = (
{
background = {
anchors = (
{
name = bottom;
pos = (217,0);
},
{
name = ogonek;
pos = (419,10);
},
{
name = top;
pos = (332,929);
}
);
shapes = (
{
closed = 1;
nodes = (
(283,6,o),
(343,16,o),
(368,20,q),
(398,23,o),
(428,28,q),
(434,183,o),
(439,321,q),
(442,380,o),
(448,502,o),
(454,614,o),
(461,709,o),
(464,741,q),
(397,729,o),
(256,715,o),
(188,710,q),
(176,665,o),
(144,557,o),
(109,440,o),
(74,322,o),
(58,268,q),
(19,139,o),
(-21,6,q),
(10,10,o),
(42,14,q),
(68,17,o),
(128,24,o),
(150,27,q),
(190,171,l),
(277,171,l),
(275,151,o),
(270,95,o),
(267,67,q),
(263,35,o),
(259,2,q)
);
},
{
closed = 1;
nodes = (
(276,522,l),
(299,608,l),
(314,609,l),
(308,522,l),
(302,463,o),
(298,412,q),
(296,391,o),
(292,347,o),
(289,310,o),
(286,281,o),
(286,275,q),
(282,274,o),
(262,273,o),
(239,272,o),
(218,271,o),
(214,271,q)
);
},
{
closed = 1;
nodes = (
(313,747,l),
(332,749,l),
(336,761,o),
(349,780,o),
(367,795,o),
(387,809,o),
(402,826,o),
(412,848,o),
(412,865,q),
(409,894,o),
(391,915,o),
(377,924,o),
(351,929,o),
(341,929,q),
(319,929,o),
(276,912,o),
(252,893,q),
(268,834,l),
(278,842,o),
(297,856,o),
(314,866,o),
(321,866,q),
(326,866,o),
(332,859,o),
(332,857,q),
(332,852,o),
(322,841,o),
(307,828,o),
(290,811,o),
(274,790,o),
(265,762,o),
(265,745,q)
);
}
);
};
layerId = "A5922FF3-8C0B-4EAE-8A2D-3EBDCCE80B0C";
shapes = (
{
ref = A;
},
{
pos = (202,108);
ref = hookabovecomb.case;
}
);
width = 433;
}
);
unicode = 7842;
},
{
glyphname = Ainvertedbreve;
lastChange = "2023-06-21 14:44:07 +0000";
layers = (
{
background = {
anchors = (
{
name = bottom;
pos = (217,0);
},
{
name = ogonek;
pos = (419,10);
},
{
name = top;
pos = (282,996);
}
);
shapes = (
{
closed = 1;
nodes = (
(283,6,o),
(343,16,o),
(368,20,q),
(398,23,o),
(428,28,q),
(434,183,o),
(439,321,q),
(442,380,o),
(448,502,o),
(454,614,o),
(461,709,o),
(464,741,q),
(397,729,o),
(256,715,o),
(188,710,q),
(176,665,o),
(144,557,o),
(109,440,o),
(74,322,o),
(58,268,q),
(19,139,o),
(-21,6,q),
(10,10,o),
(42,14,q),
(68,17,o),
(128,24,o),
(150,27,q),
(190,171,l),
(277,171,l),
(275,151,o),
(270,95,o),
(267,67,q),
(263,35,o),
(259,2,q)
);
},
{
closed = 1;
nodes = (
(276,522,l),
(299,608,l),
(314,609,l),
(308,522,l),
(302,463,o),
(298,412,q),
(296,391,o),
(292,347,o),
(289,310,o),
(286,281,o),
(286,275,q),
(282,274,o),
(262,273,o),
(239,272,o),
(218,271,o),
(214,271,q)
);
},
{
closed = 1;
nodes = (
(200,931,o),
(142,837,o),
(131,783,q),
(147,767,ls),
(155,759,o),
(175,742,o),
(188,731,q),
(208,772,o),
(234,820,o),
(267,849,o),
(299,849,q),
(337,849,o),
(362,790,o),
(360,741,c),
(373,751,o),
(396,772,o),
(407,781,q),
(419,792,o),
(429,801,q),
(433,865,o),
(362,977,o),
(307,977,qs),
(265,977,o)
);
}
);
};
layerId = "A5922FF3-8C0B-4EAE-8A2D-3EBDCCE80B0C";
shapes = (
{
ref = A;
},
{
pos = (93,116);
ref = breveinvertedcomb.case;
}
);
width = 433;
}
);
unicode = 514;
},
{
glyphname = Amacron;
lastChange = "2023-06-21 14:44:07 +0000";
layers = (
{
background = {
anchors = (
{
name = bottom;
pos = (217,0);
},
{
name = ogonek;
pos = (419,10);
},
{
name = top;
pos = (282,954);
}
);
shapes = (
{
closed = 1;
nodes = (
(283,6,o),
(343,16,o),
(368,20,q),
(398,23,o),
(428,28,q),
(434,183,o),
(439,321,q),
(442,380,o),
(448,502,o),
(454,614,o),
(461,709,o),
(464,741,q),
(397,729,o),
(256,715,o),
(188,710,q),
(176,665,o),
(144,557,o),
(109,440,o),
(74,322,o),
(58,268,q),
(19,139,o),
(-21,6,q),
(10,10,o),
(42,14,q),
(68,17,o),
(128,24,o),
(150,27,q),
(190,171,l),
(277,171,l),
(275,151,o),
(270,95,o),
(267,67,q),
(263,35,o),
(259,2,q)
);
},
{
closed = 1;
nodes = (
(276,522,l),
(299,608,l),
(314,609,l),
(308,522,l),
(302,463,o),
(298,412,q),
(296,391,o),
(292,347,o),
(289,310,o),
(286,281,o),
(286,275,q),
(282,274,o),
(262,273,o),
(239,272,o),
(218,271,o),
(214,271,q)
);
},
{
closed = 1;
nodes = (
(113,767,o),
(168,772,o),
(230,777,o),
(295,781,o),
(326,783,q),
(398,787,o),
(477,792,q),
(461,954,l),
(87,922,l),
(86,914,o),
(86,904,q),
(86,864,l),
(86,838,o),
(88,782,o),
(93,765,q)
);
}
);
};
layerId = "A5922FF3-8C0B-4EAE-8A2D-3EBDCCE80B0C";
shapes = (
{
ref = A;
},
{
pos = (47,71);
ref = macroncomb.case;
}
);
width = 433;
}
);
unicode = 256;
},
{
glyphname = Aogonek;
lastChange = "2023-06-21 13:56:06 +0000";
layers = (
{
background = {
anchors = (
{
name = bottom;
pos = (217,0);
},
{
name = ogonek;
pos = (419,10);
},
{
name = top;
pos = (282,721);
}
);
shapes = (
{
closed = 1;
nodes = (
(283,6,o),
(343,16,o),
(368,20,q),
(398,23,o),
(428,28,q),
(434,183,o),
(439,321,q),
(442,380,o),
(448,502,o),
(454,614,o),
(461,709,o),
(464,741,q),
(397,729,o),
(256,715,o),
(188,710,q),
(176,665,o),
(144,557,o),
(109,440,o),
(74,322,o),
(58,268,q),
(19,139,o),
(-21,6,q),
(10,10,o),
(42,14,q),
(68,17,o),
(128,24,o),
(150,27,q),
(190,171,l),
(277,171,l),
(275,151,o),
(270,95,o),
(267,67,q),
(263,35,o),
(259,2,q)
);
},
{
closed = 1;
nodes = (
(276,522,l),
(299,608,l),
(314,609,l),
(308,522,l),
(302,463,o),
(298,412,q),
(296,391,o),
(292,347,o),
(289,310,o),
(286,281,o),
(286,275,q),
(282,274,o),
(262,273,o),
(239,272,o),
(218,271,o),
(214,271,q)
);
},
{
closed = 1;
nodes = (
(405,-134,o),
(450,-116,o),
(466,-97,q),
(446,-9,l),
(421,-37,o),
(393,-37,q),
(372,-37,o),
(343,-5,o),
(343,20,q),
(343,32,o),
(347,50,q),
(330,48,o),
(306,44,o),
(288,41,o),
(287,41,q),
(247,2,o),
(247,-37,q),
(247,-58,o),
(267,-93,o),
(303,-119,o),
(352,-134,o),
(382,-134,q)
);
}
);
};
layerId = "A5922FF3-8C0B-4EAE-8A2D-3EBDCCE80B0C";
shapes = (
{
ref = A;
},
{
pos = (198,31);
ref = ogonekcomb.case;
}
);
width = 433;
}
);
unicode = 260;
},
{
glyphname = Aring;
lastChange = "2023-06-21 14:46:23 +0000";
layers = (
{
background = {
anchors = (
{
name = bottom;
pos = (217,0);
},
{
name = ogonek;
pos = (419,10);
},
{
name = top;
pos = (282,984);
}
);
shapes = (
{
closed = 1;
nodes = (
(283,6,o),
(343,16,o),
(368,20,q),
(398,23,o),
(428,28,q),
(434,183,o),
(439,321,q),
(442,380,o),
(448,502,o),
(454,614,o),
(461,709,o),
(464,741,q),
(397,729,o),
(256,715,o),
(188,710,q),
(176,665,o),
(144,557,o),
(109,440,o),
(74,322,o),
(58,268,q),
(19,139,o),
(-21,6,q),
(10,10,o),
(42,14,q),
(68,17,o),
(128,24,o),
(150,27,q),
(190,171,l),
(277,171,l),
(275,151,o),
(270,95,o),
(267,67,q),
(263,35,o),
(259,2,q)
);
},
{
closed = 1;
nodes = (
(276,522,l),
(299,608,l),
(314,609,l),
(308,522,l),
(302,463,o),
(298,412,q),
(296,391,o),
(292,347,o),
(289,310,o),
(286,281,o),
(286,275,q),
(282,274,o),
(262,273,o),
(239,272,o),
(218,271,o),
(214,271,q)
);
},
{
closed = 1;
nodes = (
(300,758,o),
(347,780,o),
(380,814,o),
(396,857,o),
(396,879,q),
(396,900,o),
(382,938,o),
(354,966,o),
(312,984,o),
(284,984,q),
(255,984,o),
(211,964,o),
(181,932,o),
(168,890,o),
(168,869,q),
(168,848,o),
(180,808,o),
(207,777,o),
(245,758,o),
(270,758,q)
);
},
{
closed = 1;
nodes = (
(256,811,o),
(228,846,o),
(228,867,q),
(228,889,o),
(257,925,o),
(287,925,q),
(316,925,o),
(345,893,o),
(345,872,q),
(345,850,o),
(312,811,o),
(281,811,q)
);
}
);
};
layerId = "A5922FF3-8C0B-4EAE-8A2D-3EBDCCE80B0C";
shapes = (
{
ref = A;
},
{
pos = (88,101);
ref = ringcomb.case;
}
);
width = 433;
}
);
unicode = 197;
},
{
glyphname = Aringacute;
lastChange = "2023-06-21 14:46:23 +0000";
layers = (
{
background = {
anchors = (
{
name = bottom;
pos = (217,0);
},
{
name = ogonek;
pos = (419,10);
},
{
name = top;
pos = (331,1352);
}
);
shapes = (
{
closed = 1;
nodes = (
(283,6,o),
(343,16,o),
(368,20,q),
(398,23,o),
(428,28,q),
(434,183,o),
(439,321,q),
(442,380,o),
(448,502,o),
(454,614,o),
(461,709,o),
(464,741,q),
(397,729,o),
(256,715,o),
(188,710,q),
(176,665,o),
(144,557,o),
(109,440,o),
(74,322,o),
(58,268,q),
(19,139,o),
(-21,6,q),
(10,10,o),
(42,14,q),
(68,17,o),
(128,24,o),
(150,27,q),
(190,171,l),
(277,171,l),
(275,151,o),
(270,95,o),
(267,67,q),
(263,35,o),
(259,2,q)
);
},
{
closed = 1;
nodes = (
(276,522,l),
(299,608,l),
(314,609,l),
(308,522,l),
(302,463,o),
(298,412,q),
(296,391,o),
(292,347,o),
(289,310,o),
(286,281,o),
(286,275,q),
(282,274,o),
(262,273,o),
(239,272,o),
(218,271,o),
(214,271,q)
);
},
{
closed = 1;
nodes = (
(300,758,o),
(347,780,o),
(380,814,o),
(396,857,o),
(396,879,q),
(396,900,o),
(382,938,o),
(354,966,o),
(312,984,o),
(284,984,q),
(255,984,o),
(211,964,o),
(181,932,o),
(168,890,o),
(168,869,q),
(168,848,o),
(180,808,o),
(207,777,o),
(245,758,o),
(270,758,q)
);
},
{
closed = 1;
nodes = (
(256,811,o),
(228,846,o),
(228,867,q),
(228,889,o),
(257,925,o),
(287,925,q),
(316,925,o),
(345,893,o),
(345,872,q),
(345,850,o),
(312,811,o),
(281,811,q)
);
},
{
closed = 1;
nodes = (
(263,1035,o),
(399,1084,o),
(458,1108,q),
(450,1169,o),
(449,1285,o),
(444,1352,q),
(392,1295,o),
(272,1187,o),
(204,1118,q),
(204,1100,o),
(203,1067,o),
(203,1051,q),
(203,1042,o),
(203,1024,o),
(204,1013,q)
);
}
);
};
layerId = "A5922FF3-8C0B-4EAE-8A2D-3EBDCCE80B0C";
shapes = (
{
ref = A;
},
{
pos = (88,101);
ref = ringcomb.case;
},
{
pos = (141,463);
ref = acutecomb.case;
}
);
width = 433;
}
);
unicode = 506;
},
{
glyphname = Atilde;
lastChange = "2023-06-21 14:44:07 +0000";
layers = (
{
background = {
anchors = (
{
name = bottom;
pos = (217,0);
},
{
name = ogonek;
pos = (419,10);
},
{
name = top;
pos = (329,992);
}
);
shapes = (
{
closed = 1;
nodes = (
(283,6,o),
(343,16,o),
(368,20,q),
(398,23,o),
(428,28,q),
(434,183,o),
(439,321,q),
(442,380,o),
(448,502,o),
(454,614,o),
(461,709,o),
(464,741,q),
(397,729,o),
(256,715,o),
(188,710,q),
(176,665,o),
(144,557,o),
(109,440,o),
(74,322,o),
(58,268,q),
(19,139,o),
(-21,6,q),
(10,10,o),
(42,14,q),
(68,17,o),
(128,24,o),
(150,27,q),
(190,171,l),
(277,171,l),
(275,151,o),
(270,95,o),
(267,67,q),
(263,35,o),
(259,2,q)
);
},
{
closed = 1;
nodes = (
(276,522,l),
(299,608,l),
(314,609,l),
(308,522,l),
(302,463,o),
(298,412,q),
(296,391,o),
(292,347,o),
(289,310,o),
(286,281,o),
(286,275,q),
(282,274,o),
(262,273,o),
(239,272,o),
(218,271,o),
(214,271,q)
);
},
{
closed = 1;
nodes = (
(173,776,o),
(197,802,o),
(222,826,o),
(250,843,o),
(265,843,q),
(286,843,o),
(307,822,o),
(327,796,o),
(352,775,o),
(376,775,q),
(396,775,o),
(431,790,o),
(463,814,o),
(491,844,o),
(502,861,q),
(529,899,o),
(550,948,q),
(544,955,o),
(536,961,q),
(528,967,o),
(508,983,o),
(496,992,q),
(486,983,o),
(462,953,o),
(436,923,o),
(408,902,o),
(393,902,q),
(388,902,o),
(371,928,o),
(343,960,o),
(306,988,o),
(282,988,q),
(256,988,o),
(212,961,o),
(174,922,o),
(143,876,o),
(121,837,o),
(109,811,o),
(109,811,q),
(115,804,o),
(131,792,o),
(150,776,o),
(163,767,q)
);
}
);
};
layerId = "A5922FF3-8C0B-4EAE-8A2D-3EBDCCE80B0C";
shapes = (
{
ref = A;
},
{
pos = (110,105);
ref = tildecomb.case;
}
);
width = 433;
}
);
unicode = 195;
},
{
glyphname = AE;
lastChange = "2023-06-21 14:20:43 +0000";
layers = (
{
anchors = (
{
name = bottom;
pos = (258,0);
},
{
name = top;
pos = (459,718);
}
);
background = {
anchors = (
{
name = bottom;
pos = (258,0);
},
{
name = top;
pos = (459,718);
}
);
shapes = (
{
closed = 1;
nodes = (
(509,33,l),
(519,147,l),
(435,141,l),
(461,324,l),
(474,325,o),
(486,326,q),
(497,327,o),
(522,328,o),
(533,329,q),
(538,357,o),
(545,411,o),
(549,439,q),
(538,438,o),
(512,438,o),
(501,437,q),
(488,436,o),
(475,434,q),
(500,613,l),
(516,613,o),
(540,612,o),
(560,610,o),
(566,609,q),
(605,730,l),
(501,722,l),
(459,718,o),
(393,716,o),
(333,715,o),
(274,713,o),
(240,710,q),
(224,665,o),
(184,557,o),
(140,440,o),
(95,322,o),
(73,268,q),
(23,139,o),
(-29,6,q),
(6,10,o),
(39,14,q),
(67,17,o),
(130,24,o),
(152,27,q),
(204,171,l),
(277,171,l),
(274,151,o),
(263,95,o),
(251,35,o),
(244,2,q),
(246,2,l),
(246,-1,l)
);
},
{
closed = 1;
nodes = (
(313,522,l),
(346,608,l),
(356,609,l),
(352,588,o),
(340,526,o),
(327,457,o),
(314,388,o),
(304,328,o),
(296,284,o),
(295,275,q),
(291,274,o),
(274,273,o),
(257,272,o),
(240,271,o),
(236,271,q)
);
}
);
};
layerId = "A5922FF3-8C0B-4EAE-8A2D-3EBDCCE80B0C";
shapes = (
{
closed = 1;
nodes = (
(509,33,l),
(519,147,l),
(435,141,l),
(461,324,l),
(533,329,l),
(542,384,ls),
(544,402,o),
(546,420,o),
(549,439,c),
(542,438,o),
(534,438,o),
(525,438,cs),
(516,438,o),
(508,437,o),
(501,437,cs),
(475,437,l),
(500,613,l),
(530,613,o),
(554,611,o),
(566,609,c),
(605,730,l),
(240,710,l),
(205,611,o),
(127,402,o),
(73,268,cs),
(40,182,o),
(6,95,o),
(-29,6,c),
(-6,9,o),
(17,11,o),
(39,14,cs),
(76,18,o),
(123,23,o),
(152,27,c),
(204,171,l),
(277,171,l),
(271,134,o),
(258,67,o),
(244,2,c),
(246,2,l),
(246,-1,l)
);
},
{
closed = 1;
nodes = (
(313,522,l),
(346,608,l),
(356,609,l),
(321,423,ls),
(308,359,o),
(296,282,o),
(295,275,c),
(288,273,o),
(244,271,o),
(236,271,c)
);
}
);
width = 516;
}
);
unicode = 198;
},
{
glyphname = AEacute;
lastChange = "2023-06-21 13:56:06 +0000";
layers = (
{
background = {
anchors = (
{
name = bottom;
pos = (258,0);
},
{
name = top;
pos = (508,1086);
}
);
shapes = (
{
closed = 1;
nodes = (
(509,33,l),
(519,147,l),
(435,141,l),
(461,324,l),
(474,325,o),
(486,326,q),
(497,327,o),
(522,328,o),
(533,329,q),
(538,357,o),
(545,411,o),
(549,439,q),
(538,438,o),
(512,438,o),
(501,437,q),
(488,436,o),
(475,434,q),
(500,613,l),
(516,613,o),
(540,612,o),
(560,610,o),
(566,609,q),
(605,730,l),
(501,722,l),
(459,718,o),
(393,716,o),
(333,715,o),
(274,713,o),
(240,710,q),
(224,665,o),
(184,557,o),
(140,440,o),
(95,322,o),
(73,268,q),
(23,139,o),
(-29,6,q),
(6,10,o),
(39,14,q),
(67,17,o),
(130,24,o),
(152,27,q),
(204,171,l),
(277,171,l),
(274,151,o),
(263,95,o),
(251,35,o),
(244,2,q),
(246,2,l),
(246,-1,l)
);
},
{
closed = 1;
nodes = (
(313,522,l),
(346,608,l),
(356,609,l),
(352,588,o),
(340,526,o),
(327,457,o),
(314,388,o),
(304,328,o),
(296,284,o),
(295,275,q),
(291,274,o),
(274,273,o),
(257,272,o),
(240,271,o),
(236,271,q)
);
},
{
closed = 1;
nodes = (
(440,769,o),
(576,818,o),
(635,842,q),
(627,903,o),
(626,1019,o),
(621,1086,q),
(569,1029,o),
(449,921,o),
(381,852,q),
(381,834,o),
(380,801,o),
(380,785,q),
(380,776,o),
(380,758,o),
(381,747,q)
);
}
);
};
layerId = "A5922FF3-8C0B-4EAE-8A2D-3EBDCCE80B0C";
shapes = (
{
ref = AE;
},
{
pos = (298,197);
ref = acutecomb.case;
}
);
width = 516;
}
);
unicode = 508;
},
{
glyphname = B;
lastChange = "2023-06-21 13:56:06 +0000";
layers = (
{
anchors = (
{
name = bottom;
pos = (214,0);
},
{
name = top;
pos = (345,721);
}
);
background = {
anchors = (
{
name = bottom;
pos = (214,0);
},
{
name = top;
pos = (345,721);
}
);
shapes = (
{
closed = 1;
nodes = (
(109,-4,o),
(198,11,o),
(283,40,o),
(360,83,o),
(418,140,o),
(452,210,o),
(452,251,q),
(452,281,o),
(437,329,o),
(413,364,o),
(385,390,o),
(372,397,q),
(398,407,o),
(448,446,o),
(487,500,o),
(512,566,o),
(512,604,q),
(512,644,o),
(481,696,o),
(435,728,o),
(379,740,o),
(354,740,q),
(294,740,o),
(182,723,o),
(130,712,q),
(104,532,o),
(47,177,o),
(-1,2,q),
(31,-4,o),
(68,-4,q)
);
},
{
closed = 1;
nodes = (
(199,223,o),
(206,260,o),
(212,294,o),
(219,331,o),
(223,355,q),
(227,356,o),
(234,356,o),
(239,356,q),
(254,356,o),
(288,349,o),
(317,333,o),
(336,309,o),
(336,291,q),
(336,266,o),
(306,231,o),
(262,210,o),
(214,200,o),
(195,198,q)
);
},
{
closed = 1;
nodes = (
(248,491,o),
(255,523,o),
(261,556,o),
(266,586,o),
(268,597,q),
(278,597,l),
(290,597,o),
(321,592,o),
(350,580,o),
(368,561,o),
(368,546,q),
(368,534,o),
(347,514,o),
(312,497,o),
(268,483,o),
(246,479,q)
);
}
);
};
layerId = "A5922FF3-8C0B-4EAE-8A2D-3EBDCCE80B0C";
shapes = (
{
closed = 1;
nodes = (
(154,-4,o),
(246,19,o),
(322,62,cs),
(400,105,o),
(452,171,o),
(452,251,cs),
(452,337,o),
(400,382,o),
(372,397,c),
(440,423,o),
(512,504,o),
(512,604,cs),
(512,711,o),
(420,740,o),
(354,740,cs),
(274,740,o),
(199,727,o),
(130,712,c),
(95,472,o),
(63,235,o),
(-1,2,c),
(20,-2,o),
(43,-4,o),
(68,-4,cs)
);
},
{
closed = 1;
nodes = (
(203,248,o),
(215,305,o),
(223,355,c),
(226,356,o),
(228,356,o),
(231,356,cs),
(239,356,ls),
(278,356,o),
(336,339,o),
(336,291,cs),
(336,223,o),
(247,203,o),
(195,198,c)
);
},
{
closed = 1;
nodes = (
(250,504,o),
(258,543,o),
(268,597,c),
(278,597,ls),
(314,597,o),
(368,584,o),
(368,546,cs),
(368,516,o),
(308,490,o),
(246,479,c)
);
}
);
width = 428;
}
);
unicode = 66;
},
{
glyphname = C;
lastChange = "2023-06-21 13:56:06 +0000";
layers = (
{
anchors = (
{
name = bottom;
pos = (207,0);
},
{
name = top;
pos = (392,731);
}
);
background = {
anchors = (
{
name = bottom;
pos = (207,0);
},
{
name = top;
pos = (392,731);
}
);
shapes = (
{
closed = 1;
nodes = (
(213,-2,o),
(279,24,o),
(344,79,o),
(403,160,o),
(427,215,q),
(313,261,l),
(309,244,o),
(289,210,o),
(265,183,o),
(237,166,o),
(226,166,q),
(212,166,o),
(195,192,o),
(195,224,q),
(195,245,o),
(210,312,o),
(234,386,o),
(266,459,o),
(300,518,o),
(335,555,o),
(351,555,q),
(367,555,o),
(379,530,q),
(510,565,l),
(511,572,o),
(511,585,o),
(511,591,q),
(511,623,o),
(492,675,o),
(460,711,o),
(416,731,o),
(392,731,q),
(314,731,o),
(185,642,o),
(91,496,o),
(39,313,o),
(39,219,q),
(39,164,o),
(62,82,o),
(100,26,o),
(151,-2,o),
(182,-2,q)
);
}
);
};
layerId = "A5922FF3-8C0B-4EAE-8A2D-3EBDCCE80B0C";
shapes = (
{
closed = 1;
nodes = (
(263,-2,o),
(361,65,o),
(427,215,c),
(313,261,l),
(302,216,o),
(256,166,o),
(226,166,cs),
(217,166,o),
(209,170,o),
(204,179,cs),
(198,188,o),
(195,203,o),
(195,224,cs),
(195,266,o),
(218,350,o),
(250,423,cs),
(282,495,o),
(319,555,o),
(351,555,cs),
(362,555,o),
(371,547,o),
(379,530,c),
(510,565,l),
(511,570,o),
(511,574,o),
(511,579,cs),
(511,591,ls),
(511,676,o),
(457,731,o),
(392,731,cs),
(288,731,o),
(201,666,o),
(138,569,cs),
(75,472,o),
(39,344,o),
(39,219,cs),
(39,81,o),
(98,-2,o),
(182,-2,cs)
);
}
);
width = 414;
}
);
unicode = 67;
},
{
glyphname = Cacute;
lastChange = "2023-06-21 13:56:06 +0000";
layers = (
{
background = {
anchors = (
{
name = bottom;
pos = (207,0);
},
{
name = top;
pos = (441,1099);
}
);
shapes = (
{
closed = 1;
nodes = (
(213,-2,o),
(279,24,o),
(344,79,o),
(403,160,o),
(427,215,q),
(313,261,l),
(309,244,o),
(289,210,o),
(265,183,o),
(237,166,o),
(226,166,q),
(212,166,o),
(195,192,o),
(195,224,q),
(195,245,o),
(210,312,o),
(234,386,o),
(266,459,o),
(300,518,o),
(335,555,o),
(351,555,q),
(367,555,o),
(379,530,q),
(510,565,l),
(511,572,o),
(511,585,o),
(511,591,q),
(511,623,o),
(492,675,o),
(460,711,o),
(416,731,o),
(392,731,q),
(314,731,o),
(185,642,o),
(91,496,o),
(39,313,o),
(39,219,q),
(39,164,o),
(62,82,o),
(100,26,o),
(151,-2,o),
(182,-2,q)
);
},
{
closed = 1;
nodes = (
(373,782,o),
(509,831,o),
(568,855,q),
(560,916,o),
(559,1032,o),
(554,1099,q),
(502,1042,o),
(382,934,o),
(314,865,q),
(314,847,o),
(313,814,o),
(313,798,q),
(313,789,o),
(313,771,o),
(314,760,q)
);
}
);
};
layerId = "A5922FF3-8C0B-4EAE-8A2D-3EBDCCE80B0C";
shapes = (
{
ref = C;
},
{
pos = (231,210);
ref = acutecomb.case;
}
);
width = 414;
}
);
unicode = 262;
},
{
glyphname = Ccaron;
lastChange = "2023-06-21 13:56:06 +0000";
layers = (
{
background = {
anchors = (
{
name = bottom;
pos = (207,0);
},
{
name = top;
pos = (392,1038);
}
);
shapes = (
{
closed = 1;
nodes = (
(213,-2,o),
(279,24,o),
(344,79,o),
(403,160,o),
(427,215,q),
(313,261,l),
(309,244,o),
(289,210,o),
(265,183,o),
(237,166,o),
(226,166,q),
(212,166,o),
(195,192,o),
(195,224,q),
(195,245,o),
(210,312,o),
(234,386,o),
(266,459,o),
(300,518,o),
(335,555,o),
(351,555,q),
(367,555,o),
(379,530,q),
(510,565,l),
(511,572,o),
(511,585,o),
(511,591,q),
(511,623,o),
(492,675,o),
(460,711,o),
(416,731,o),
(392,731,q),
(314,731,o),
(185,642,o),
(91,496,o),
(39,313,o),
(39,219,q),
(39,164,o),
(62,82,o),
(100,26,o),
(151,-2,o),
(182,-2,q)
);
},
{
closed = 1;
nodes = (
(408,793,o),
(464,869,o),
(487,903,q),
(514,943,o),
(541,986,q),
(525,1001,l),
(517,1009,o),
(497,1027,o),
(484,1038,q),
(473,1026,o),
(446,993,o),
(417,958,o),
(389,924,o),
(379,913,q),
(312,1028,l),
(300,1018,o),
(276,997,o),
(265,988,q),
(254,977,o),
(243,967,q),
(256,930,o),
(268,894,q),
(279,863,o),
(302,794,o),
(311,768,q),
(311,767,o),
(315,767,q),
(319,767,o),
(331,768,o),
(341,768,q),
(348,768,o),
(370,767,o),
(383,766,q)
);
}
);
};
layerId = "A5922FF3-8C0B-4EAE-8A2D-3EBDCCE80B0C";
shapes = (
{
ref = C;
},
{
pos = (112,145);
ref = caroncomb.case;
}
);
width = 414;
}
);
unicode = 268;
},
{
glyphname = Ccedilla;
lastChange = "2023-06-21 13:56:06 +0000";
layers = (
{
background = {
anchors = (
{
name = bottom;
pos = (207,-165);
},
{
name = top;
pos = (392,731);
}
);
shapes = (
{
closed = 1;
nodes = (
(213,-2,o),
(279,24,o),
(344,79,o),
(403,160,o),
(427,215,q),
(313,261,l),
(309,244,o),
(289,210,o),
(265,183,o),
(237,166,o),
(226,166,q),
(212,166,o),
(195,192,o),
(195,224,q),
(195,245,o),
(210,312,o),
(234,386,o),
(266,459,o),
(300,518,o),
(335,555,o),
(351,555,q),
(367,555,o),
(379,530,q),
(510,565,l),
(511,572,o),
(511,585,o),
(511,591,q),
(511,623,o),
(492,675,o),
(460,711,o),
(416,731,o),
(392,731,q),
(314,731,o),
(185,642,o),
(91,496,o),
(39,313,o),
(39,219,q),
(39,164,o),
(62,82,o),
(100,26,o),
(151,-2,o),
(182,-2,q)
);
},
{
closed = 1;
nodes = (
(211,-165,o),
(260,-150,o),
(296,-124,o),
(317,-89,o),
(317,-68,q),
(317,-29,o),
(277,10,q),
(276,10,o),
(257,13,o),
(234,17,o),
(216,19,q),
(221,1,o),
(221,-11,q),
(221,-36,o),
(192,-68,o),
(170,-68,q),
(143,-68,o),
(117,-40,q),
(98,-128,l),
(113,-147,o),
(158,-165,o),
(182,-165,q)
);
}
);
};
layerId = "A5922FF3-8C0B-4EAE-8A2D-3EBDCCE80B0C";
shapes = (
{
ref = C;
},
{
pos = (49,0);
ref = cedillacomb.case;
}
);
width = 414;
}
);
unicode = 199;
},
{
glyphname = Ccircumflex;
lastChange = "2023-06-21 13:56:06 +0000";
layers = (
{
background = {
anchors = (
{
name = bottom;
pos = (207,0);
},
{
name = top;
pos = (437,1026);
}
);
shapes = (
{
closed = 1;
nodes = (
(213,-2,o),
(279,24,o),
(344,79,o),
(403,160,o),
(427,215,q),
(313,261,l),
(309,244,o),
(289,210,o),
(265,183,o),
(237,166,o),
(226,166,q),
(212,166,o),
(195,192,o),
(195,224,q),
(195,245,o),
(210,312,o),
(234,386,o),
(266,459,o),
(300,518,o),
(335,555,o),
(351,555,q),
(367,555,o),
(379,530,q),
(510,565,l),
(511,572,o),
(511,585,o),
(511,591,q),
(511,623,o),
(492,675,o),
(460,711,o),
(416,731,o),
(392,731,q),
(314,731,o),
(185,642,o),
(91,496,o),
(39,313,o),
(39,219,q),
(39,164,o),
(62,82,o),
(100,26,o),
(151,-2,o),
(182,-2,q)
);
},
{
closed = 1;
nodes = (
(333,771,o),
(363,803,o),
(393,837,o),
(423,869,o),
(434,879,q),
(495,761,l),
(507,770,o),
(533,789,o),
(543,798,q),
(555,808,o),
(567,818,q),
(556,855,o),
(545,892,q),
(536,923,o),
(517,993,o),
(509,1020,q),
(507,1022,o),
(476,1020,o),
(437,1026,q),
(411,1000,o),
(352,928,o),
(327,895,q),
(297,856,o),
(269,815,q),
(275,807,o),
(284,798,q),
(290,790,o),
(310,771,o),
(323,760,q)
);
}
);
};
layerId = "A5922FF3-8C0B-4EAE-8A2D-3EBDCCE80B0C";
shapes = (
{
ref = C;
},
{
pos = (182,143);
ref = circumflexcomb.case;
}
);
width = 414;
}
);
unicode = 264;
},
{
glyphname = Cdotaccent;
lastChange = "2023-06-21 13:56:06 +0000";
layers = (
{
background = {
anchors = (
{
name = bottom;
pos = (207,0);
},
{
name = top;
pos = (396,953);
}
);
shapes = (
{
closed = 1;
nodes = (
(213,-2,o),
(279,24,o),
(344,79,o),
(403,160,o),
(427,215,q),
(313,261,l),
(309,244,o),
(289,210,o),
(265,183,o),
(237,166,o),
(226,166,q),
(212,166,o),
(195,192,o),
(195,224,q),
(195,245,o),
(210,312,o),
(234,386,o),
(266,459,o),
(300,518,o),
(335,555,o),
(351,555,q),
(367,555,o),
(379,530,q),
(510,565,l),
(511,572,o),
(511,585,o),
(511,591,q),
(511,623,o),
(492,675,o),
(460,711,o),
(416,731,o),
(392,731,q),
(314,731,o),
(185,642,o),
(91,496,o),
(39,313,o),
(39,219,q),
(39,164,o),
(62,82,o),
(100,26,o),
(151,-2,o),
(182,-2,q)
);
},
{
closed = 1;
nodes = (
(407,778,o),
(447,794,o),
(475,821,o),
(488,854,o),
(488,871,q),
(488,903,o),
(441,953,o),
(392,953,q),
(369,953,o),
(335,937,o),
(313,912,o),
(302,880,o),
(302,864,q),
(302,830,o),
(342,778,o),
(382,778,q)
);
}
);
};
layerId = "A5922FF3-8C0B-4EAE-8A2D-3EBDCCE80B0C";
shapes = (
{
ref = C;
},
{
pos = (253,57);
ref = dotaccentcomb.case;
}
);
width = 414;
}
);
unicode = 266;
},
{
glyphname = D;
lastChange = "2023-06-21 13:56:06 +0000";
layers = (
{
anchors = (
{
name = bottom;
pos = (221,0);
},
{
name = center;
pos = (221,360);
},
{
name = top;
pos = (313,721);
}
);
background = {
anchors = (
{
name = bottom;
pos = (221,0);
},
{
name = center;
pos = (221,360);
},
{
name = top;
pos = (313,721);
}
);
shapes = (
{
closed = 1;
nodes = (
(127,-5,o),
(246,43,o),
(346,122,o),
(425,227,o),
(479,342,o),
(509,459,o),
(509,511,q),
(509,556,o),
(487,636,o),
(440,696,o),
(365,730,o),
(311,730,q),
(265,730,o),
(177,716,o),
(134,708,q),
(128,665,o),
(109,559,o),
(89,443,o),
(67,324,o),
(57,269,q),
(31,138,o),
(4,0,q),
(18,-2,o),
(46,-5,o),
(60,-5,q)
);
},
{
closed = 1;
nodes = (
(190,192,o),
(214,312,o),
(238,422,o),
(262,530,o),
(273,589,q),
(317,589,o),
(358,547,o),
(358,510,q),
(358,486,o),
(345,420,o),
(321,344,o),
(288,264,o),
(248,192,o),
(203,137,o),
(179,121,q)
);
}
);
};
layerId = "A5922FF3-8C0B-4EAE-8A2D-3EBDCCE80B0C";
shapes = (
{
closed = 1;
nodes = (
(190,-5,o),
(307,70,o),
(386,175,cs),
(462,276,o),
(509,405,o),
(509,511,cs),
(509,628,o),
(458,730,o),
(311,730,cs),
(250,730,o),
(191,719,o),
(134,708,c),
(121,612,o),
(84,415,o),
(57,269,cs),
(4,0,l),
(23,-3,o),
(41,-5,o),
(60,-5,cs)
);
},
{
closed = 1;
nodes = (
(206,297,o),
(241,417,o),
(273,589,c),
(332,589,o),
(358,559,o),
(358,510,cs),
(358,462,o),
(338,385,o),
(305,304,cs),
(268,216,o),
(225,152,o),
(179,121,c)
);
}
);
width = 441;
}
);
unicode = 68;
},
{
glyphname = DZcaron;
lastChange = "2023-06-21 13:56:06 +0000";
layers = (
{
background = {
anchors = (
{
name = bottom;
pos = (657,0);
},
{
name = center;
pos = (221,360);
},
{
name = top;
pos = (824,1028);
}
);
shapes = (
{
closed = 1;
nodes = (
(127,-5,o),
(246,43,o),
(346,122,o),
(425,227,o),
(479,342,o),
(509,459,o),
(509,511,q),
(509,556,o),
(487,636,o),
(440,696,o),
(365,730,o),
(311,730,q),
(265,730,o),
(177,716,o),
(134,708,q),
(128,665,o),
(109,559,o),
(89,443,o),
(67,324,o),
(57,269,q),
(31,138,o),
(4,0,q),
(18,-2,o),
(46,-5,o),
(60,-5,q)
);
},
{
closed = 1;
nodes = (
(190,192,o),
(214,312,o),
(238,422,o),
(262,530,o),
(273,589,q),
(317,589,o),
(358,547,o),
(358,510,q),
(358,486,o),
(345,420,o),
(321,344,o),
(288,264,o),
(248,192,o),
(203,137,o),
(179,121,q)
);
},
{
closed = 1;
nodes = (
(471,13,o),
(546,21,o),
(634,28,o),
(726,34,o),
(805,38,o),
(863,40,o),
(872,40,q),
(875,192,l),
(833,189,o),
(761,185,o),
(694,181,o),
(674,181,q),
(947,569,l),
(973,707,l),
(564,678,l),
(545,521,l),
(569,523,l),
(592,527,o),
(655,535,o),
(717,542,o),
(734,542,q),
(450,155,l),
(449,9,l)
);
},
{
closed = 1;
nodes = (
(840,783,o),
(896,859,o),
(919,893,q),
(946,933,o),
(973,976,q),
(957,991,l),
(949,999,o),
(929,1017,o),
(916,1028,q),
(905,1016,o),
(878,983,o),
(849,948,o),
(821,914,o),
(811,903,q),
(744,1018,l),
(732,1008,o),
(708,987,o),
(697,978,q),
(686,967,o),
(675,957,q),
(688,920,o),
(700,884,q),
(711,853,o),
(734,784,o),
(743,758,q),
(743,757,o),
(747,757,q),
(751,757,o),
(763,758,o),
(773,758,q),
(780,758,o),
(802,757,o),
(815,756,q)
);
}
);
};
layerId = "A5922FF3-8C0B-4EAE-8A2D-3EBDCCE80B0C";
shapes = (
{
ref = D;
},
{
pos = (441,0);
ref = Zcaron;
}
);
width = 872;
}
);
unicode = 452;
},
{
glyphname = Dcaron;
lastChange = "2023-06-21 13:56:06 +0000";
layers = (
{
background = {
anchors = (
{
name = bottom;
pos = (221,0);
},
{
name = center;
pos = (221,360);
},
{
name = top;
pos = (313,1028);
}
);
shapes = (
{
closed = 1;
nodes = (
(127,-5,o),
(246,43,o),
(346,122,o),
(425,227,o),
(479,342,o),
(509,459,o),
(509,511,q),
(509,556,o),
(487,636,o),
(440,696,o),
(365,730,o),
(311,730,q),
(265,730,o),
(177,716,o),
(134,708,q),
(128,665,o),
(109,559,o),
(89,443,o),
(67,324,o),
(57,269,q),
(31,138,o),
(4,0,q),
(18,-2,o),
(46,-5,o),
(60,-5,q)
);
},
{
closed = 1;
nodes = (
(190,192,o),
(214,312,o),
(238,422,o),
(262,530,o),
(273,589,q),
(317,589,o),
(358,547,o),
(358,510,q),
(358,486,o),
(345,420,o),
(321,344,o),
(288,264,o),
(248,192,o),
(203,137,o),
(179,121,q)
);
},
{
closed = 1;
nodes = (
(329,783,o),
(385,859,o),
(408,893,q),
(435,933,o),
(462,976,q),
(446,991,l),
(438,999,o),
(418,1017,o),
(405,1028,q),
(394,1016,o),
(367,983,o),
(338,948,o),
(310,914,o),
(300,903,q),
(233,1018,l),
(221,1008,o),
(197,987,o),
(186,978,q),
(175,967,o),
(164,957,q),
(177,920,o),
(189,884,q),
(200,853,o),
(223,784,o),
(232,758,q),
(232,757,o),
(236,757,q),
(240,757,o),
(252,758,o),
(262,758,q),
(269,758,o),
(291,757,o),
(304,756,q)
);
}
);
};
layerId = "A5922FF3-8C0B-4EAE-8A2D-3EBDCCE80B0C";
shapes = (
{
ref = D;
},
{
pos = (33,135);
ref = caroncomb.case;
}
);
width = 441;
}
);
unicode = 270;
},
{
glyphname = Dcroat;
lastChange = "2023-06-21 13:56:06 +0000";
layers = (
{
background = {
shapes = (
{
closed = 1;
nodes = (
(191,2,o),
(289,45,o),
(370,118,o),
(434,216,o),
(478,324,o),
(501,438,o),
(501,491,q),
(501,541,o),
(481,628,o),
(437,693,o),
(364,730,o),
(313,730,q),
(267,730,o),
(179,716,o),
(136,708,q),
(128,650,o),
(104,509,o),
(90,435,q),
(74,435,l),
(70,435,o),
(67,436,q),
(34,330,l),
(45,330,l),
(50,330,o),
(63,330,o),
(70,331,q),
(60,271,o),
(38,168,o),
(30,128,q),
(21,81,o),
(13,42,q),
(43,21,o),
(104,2,o),
(136,2,q)
);
},
{
closed = 1;
nodes = (
(184,180,o),
(203,282,o),
(213,330,q),
(223,330,o),
(240,329,o),
(247,329,q),
(262,329,l),
(286,437,l),
(278,436,o),
(270,436,q),
(262,436,o),
(242,435,o),
(231,435,q),
(239,479,o),
(256,563,o),
(266,608,q),
(287,608,o),
(319,590,o),
(341,558,o),
(351,515,o),
(351,490,q),
(351,443,o),
(321,332,o),
(271,228,o),
(207,143,o),
(171,121,q)
);
}
);
};
layerId = "A5922FF3-8C0B-4EAE-8A2D-3EBDCCE80B0C";
shapes = (
{
ref = Eth;
}
);
width = 445;
}
);
unicode = 272;
},
{
glyphname = Dzcaron;
lastChange = "2023-06-21 13:56:06 +0000";
layers = (
{
background = {
anchors = (
{
name = bottom;
pos = (657,0);
},
{
name = center;
pos = (221,360);
},
{
name = top;
pos = (845,1028);
}
);
shapes = (
{
closed = 1;
nodes = (
(127,-5,o),
(246,43,o),
(346,122,o),
(425,227,o),
(479,342,o),
(509,459,o),
(509,511,q),
(509,556,o),
(487,636,o),
(440,696,o),
(365,730,o),
(311,730,q),
(265,730,o),
(177,716,o),
(134,708,q),
(128,665,o),
(109,559,o),
(89,443,o),
(67,324,o),
(57,269,q),
(31,138,o),
(4,0,q),
(18,-2,o),
(46,-5,o),
(60,-5,q)
);
},
{
closed = 1;
nodes = (
(190,192,o),
(214,312,o),
(238,422,o),
(262,530,o),
(273,589,q),
(317,589,o),
(358,547,o),
(358,510,q),
(358,486,o),
(345,420,o),
(321,344,o),
(288,264,o),
(248,192,o),
(203,137,o),
(179,121,q)
);
},
{
closed = 1;
nodes = (
(471,13,o),
(546,21,o),
(634,28,o),
(726,34,o),
(805,38,o),
(863,40,o),
(872,40,q),
(875,192,l),
(833,189,o),
(761,185,o),
(694,181,o),
(674,181,q),
(947,569,l),
(973,707,l),
(564,678,l),
(545,521,l),
(569,523,l),
(592,527,o),
(655,535,o),
(717,542,o),
(734,542,q),
(450,155,l),
(449,9,l)
);
},
{
closed = 1;
nodes = (
(861,783,o),
(917,859,o),
(940,893,q),
(967,933,o),
(994,976,q),
(978,991,l),
(970,999,o),
(950,1017,o),
(937,1028,q),
(926,1016,o),
(899,983,o),
(870,948,o),
(842,914,o),
(832,903,q),
(765,1018,l),
(753,1008,o),
(729,987,o),
(718,978,q),
(707,967,o),
(696,957,q),
(709,920,o),
(721,884,q),
(732,853,o),
(755,784,o),
(764,758,q),
(764,757,o),
(768,757,q),
(772,757,o),
(784,758,o),
(794,758,q),
(801,758,o),
(823,757,o),
(836,756,q)
);
}
);
};
layerId = "A5922FF3-8C0B-4EAE-8A2D-3EBDCCE80B0C";
shapes = (
{
ref = D;
},
{
pos = (441,0);
ref = zcaron;
}
);
width = 872;
}
);
unicode = 453;
},
{
glyphname = Eth;
lastChange = "2023-06-21 13:56:06 +0000";
layers = (
{
background = {
shapes = (
{
closed = 1;
nodes = (
(191,2,o),
(289,45,o),
(370,118,o),
(434,216,o),
(478,324,o),
(501,438,o),
(501,491,q),
(501,541,o),
(481,628,o),
(437,693,o),
(364,730,o),
(313,730,q),
(267,730,o),
(179,716,o),
(136,708,q),
(128,650,o),
(104,509,o),
(90,435,q),
(74,435,l),
(70,435,o),
(67,436,q),
(34,330,l),
(45,330,l),
(50,330,o),
(63,330,o),
(70,331,q),
(60,271,o),
(38,168,o),
(30,128,q),
(21,81,o),
(13,42,q),
(43,21,o),
(104,2,o),
(136,2,q)
);
},
{
closed = 1;
nodes = (
(184,180,o),
(203,282,o),
(213,330,q),
(223,330,o),
(240,329,o),
(247,329,q),
(262,329,l),
(286,437,l),
(278,436,o),
(270,436,q),
(262,436,o),
(242,435,o),
(231,435,q),
(239,479,o),
(256,563,o),
(266,608,q),
(287,608,o),
(319,590,o),
(341,558,o),
(351,515,o),
(351,490,q),
(351,443,o),
(321,332,o),
(271,228,o),
(207,143,o),
(171,121,q)
);
}
);
};
layerId = "A5922FF3-8C0B-4EAE-8A2D-3EBDCCE80B0C";
shapes = (
{
closed = 1;
nodes = (
(244,2,o),
(338,69,o),
(402,167,cs),
(464,263,o),
(501,380,o),
(501,491,cs),
(501,628,o),
(449,730,o),
(313,730,cs),
(252,730,o),
(193,719,o),
(136,708,c),
(125,631,o),
(109,534,o),
(90,435,c),
(74,435,ls),
(71,435,o),
(69,435,o),
(67,436,c),
(34,330,l),
(45,330,l),
(57,330,ls),
(61,330,o),
(65,330,o),
(70,331,c),
(63,291,o),
(56,254,o),
(49,220,cs),
(42,185,o),
(35,155,o),
(30,128,cs),
(13,42,l),
(53,14,o),
(93,2,o),
(136,2,cs)
);
},
{
closed = 1;
nodes = (
(180,160,o),
(187,197,o),
(194,231,cs),
(200,265,o),
(206,298,o),
(213,330,c),
(232,330,l),
(237,329,o),
(242,329,o),
(247,329,cs),
(262,329,l),
(286,437,l),
(281,436,o),
(275,436,o),
(270,436,cs),
(252,436,l),
(245,435,o),
(238,435,o),
(231,435,c),
(242,494,o),
(253,548,o),
(266,608,c),
(322,608,o),
(351,558,o),
(351,490,cs),
(351,365,o),
(265,178,o),
(171,121,c)
);
}
);
width = 445;
}
);
unicode = 208;
},
{
glyphname = E;
lastChange = "2023-06-21 13:56:06 +0000";
layers = (
{
anchors = (
{
name = bottom;
pos = (171,0);
},
{
name = ogonek;
pos = (307,10);
},
{
name = top;
pos = (265,750);
},
{
name = topleft;
pos = (20,721);
}
);
background = {
anchors = (
{
name = bottom;
pos = (171,0);
},
{
name = ogonek;
pos = (307,10);
},
{
name = top;
pos = (265,750);
},
{
name = topleft;
pos = (20,721);
}
);
shapes = (
{
closed = 1;
nodes = (
(331,49,l),
(341,163,l),
(195,140,l),
(229,324,l),
(260,325,o),
(286,326,q),
(309,327,o),
(354,328,o),
(364,329,q),
(369,357,o),
(376,411,o),
(380,439,q),
(369,438,o),
(323,438,o),
(301,437,q),
(274,436,o),
(243,434,q),
(278,613,l),
(294,613,o),
(337,613,o),
(379,614,o),
(416,615,o),
(426,616,q),
(429,632,o),
(438,673,o),
(443,692,q),
(448,715,o),
(455,737,q),
(139,710,l),
(8,-1,l)
);
}
);
};
layerId = "A5922FF3-8C0B-4EAE-8A2D-3EBDCCE80B0C";
shapes = (
{
closed = 1;
nodes = (
(331,49,l),
(341,163,l),
(195,140,l),
(229,324,l),
(250,325,o),
(269,325,o),
(286,326,cs),
(301,327,o),
(317,327,o),
(332,328,cs),
(347,328,o),
(357,328,o),
(364,329,c),
(373,384,ls),
(375,402,o),
(377,420,o),
(380,439,c),
(373,438,o),
(361,438,o),
(346,438,cs),
(331,438,o),
(316,438,o),
(301,437,cs),
(243,434,l),
(278,613,l),
(281,613,o),
(391,613,o),
(426,616,c),
(430,637,o),
(436,667,o),
(443,692,cs),
(446,707,o),
(450,722,o),
(455,737,c),
(139,710,l),
(8,-1,l)
);
}
);
width = 341;
}
);
unicode = 69;
},
{
glyphname = Eacute;
lastChange = "2023-06-21 13:56:06 +0000";
layers = (
{
background = {
anchors = (
{
name = bottom;
pos = (171,0);
},
{
name = ogonek;
pos = (307,10);
},
{
name = top;
pos = (314,1118);
},
{
name = topleft;
pos = (20,721);
}
);
shapes = (
{
closed = 1;
nodes = (
(331,49,l),
(341,163,l),
(195,140,l),
(229,324,l),
(260,325,o),
(286,326,q),
(309,327,o),
(354,328,o),
(364,329,q),
(369,357,o),
(376,411,o),
(380,439,q),
(369,438,o),
(323,438,o),
(301,437,q),
(274,436,o),
(243,434,q),
(278,613,l),
(294,613,o),
(337,613,o),
(379,614,o),
(416,615,o),
(426,616,q),
(429,632,o),
(438,673,o),
(443,692,q),
(448,715,o),
(455,737,q),
(139,710,l),
(8,-1,l)
);
},
{
closed = 1;
nodes = (
(246,801,o),
(382,850,o),
(441,874,q),
(433,935,o),
(432,1051,o),
(427,1118,q),
(375,1061,o),
(255,953,o),
(187,884,q),
(187,866,o),
(186,833,o),
(186,817,q),
(186,808,o),
(186,790,o),
(187,779,q)
);
}
);
};
layerId = "A5922FF3-8C0B-4EAE-8A2D-3EBDCCE80B0C";
shapes = (
{
ref = E;
},
{
pos = (104,229);
ref = acutecomb.case;
}
);
width = 341;
}
);
unicode = 201;
},
{
glyphname = Ebreve;
lastChange = "2023-06-21 13:56:06 +0000";
layers = (
{
background = {
anchors = (
{
name = bottom;
pos = (171,0);
},
{
name = ogonek;
pos = (307,10);
},
{
name = top;
pos = (321,1038);
},
{
name = topleft;
pos = (20,721);
}
);
shapes = (
{
closed = 1;
nodes = (
(331,49,l),
(341,163,l),
(195,140,l),
(229,324,l),
(260,325,o),
(286,326,q),
(309,327,o),
(354,328,o),
(364,329,q),
(369,357,o),
(376,411,o),
(380,439,q),
(369,438,o),
(323,438,o),
(301,437,q),
(274,436,o),
(243,434,q),
(278,613,l),
(294,613,o),
(337,613,o),
(379,614,o),
(416,615,o),
(426,616,q),
(429,632,o),
(438,673,o),
(443,692,q),
(448,715,o),
(455,737,q),
(139,710,l),
(8,-1,l)
);
},
{
closed = 1;
nodes = (
(385,845,o),
(443,939,o),
(454,993,q),
(438,1009,ls),
(430,1017,o),
(410,1034,o),
(397,1045,q),
(377,1004,o),
(351,956,o),
(318,927,o),
(286,927,q),
(248,927,o),
(223,986,o),
(225,1035,c),
(212,1025,o),
(189,1004,o),
(178,995,q),
(166,984,o),
(156,975,q),
(152,911,o),
(223,799,o),
(278,799,qs),
(320,799,o)
);
}
);
};
layerId = "A5922FF3-8C0B-4EAE-8A2D-3EBDCCE80B0C";
shapes = (
{
ref = E;
},
{
pos = (103,146);
ref = brevecomb.case;
}
);
width = 341;
}
);
unicode = 276;
},
{
glyphname = Ecaron;
lastChange = "2023-06-21 13:56:06 +0000";
layers = (
{
background = {
anchors = (
{
name = bottom;
pos = (171,0);
},
{
name = ogonek;
pos = (307,10);
},
{
name = top;
pos = (265,1057);
},
{
name = topleft;
pos = (20,721);
}
);
shapes = (
{
closed = 1;
nodes = (
(331,49,l),
(341,163,l),
(195,140,l),
(229,324,l),
(260,325,o),
(286,326,q),
(309,327,o),
(354,328,o),
(364,329,q),
(369,357,o),
(376,411,o),
(380,439,q),
(369,438,o),
(323,438,o),
(301,437,q),
(274,436,o),
(243,434,q),
(278,613,l),
(294,613,o),
(337,613,o),
(379,614,o),
(416,615,o),
(426,616,q),
(429,632,o),
(438,673,o),
(443,692,q),
(448,715,o),
(455,737,q),
(139,710,l),
(8,-1,l)
);
},
{
closed = 1;
nodes = (
(281,812,o),
(337,888,o),
(360,922,q),
(387,962,o),
(414,1005,q),
(398,1020,l),
(390,1028,o),
(370,1046,o),
(357,1057,q),
(346,1045,o),
(319,1012,o),
(290,977,o),
(262,943,o),
(252,932,q),
(185,1047,l),
(173,1037,o),
(149,1016,o),
(138,1007,q),
(127,996,o),
(116,986,q),
(129,949,o),
(141,913,q),
(152,882,o),
(175,813,o),
(184,787,q),
(184,786,o),
(188,786,q),
(192,786,o),
(204,787,o),
(214,787,q),
(221,787,o),
(243,786,o),
(256,785,q)
);
}
);
};
layerId = "A5922FF3-8C0B-4EAE-8A2D-3EBDCCE80B0C";
shapes = (
{
ref = E;
},
{
pos = (-15,164);
ref = caroncomb.case;
}
);
width = 341;
}
);
unicode = 282;
},
{
glyphname = Ecircumflex;
lastChange = "2023-06-21 13:56:06 +0000";
layers = (
{
background = {
anchors = (
{
name = bottom;
pos = (171,0);
},
{
name = ogonek;
pos = (307,10);
},
{
name = top;
pos = (310,1045);
},
{
name = topleft;
pos = (20,721);
}
);
shapes = (
{
closed = 1;
nodes = (
(331,49,l),
(341,163,l),
(195,140,l),
(229,324,l),
(260,325,o),
(286,326,q),
(309,327,o),
(354,328,o),
(364,329,q),
(369,357,o),
(376,411,o),
(380,439,q),
(369,438,o),
(323,438,o),
(301,437,q),
(274,436,o),
(243,434,q),
(278,613,l),
(294,613,o),
(337,613,o),
(379,614,o),
(416,615,o),
(426,616,q),
(429,632,o),
(438,673,o),
(443,692,q),
(448,715,o),
(455,737,q),
(139,710,l),
(8,-1,l)
);
},
{
closed = 1;
nodes = (
(206,790,o),
(236,822,o),
(266,856,o),
(296,888,o),
(307,898,q),
(368,780,l),
(380,789,o),
(406,808,o),
(416,817,q),
(428,827,o),
(440,837,q),
(429,874,o),
(418,911,q),
(409,942,o),
(390,1012,o),
(382,1039,q),
(380,1041,o),
(349,1039,o),
(310,1045,q),
(284,1019,o),
(225,947,o),
(200,914,q),
(170,875,o),
(142,834,q),
(148,826,o),
(157,817,q),
(163,809,o),
(183,790,o),
(196,779,q)
);
}
);
};
layerId = "A5922FF3-8C0B-4EAE-8A2D-3EBDCCE80B0C";
shapes = (
{
ref = E;
},
{
pos = (55,162);
ref = circumflexcomb.case;
}
);
width = 341;
}
);
unicode = 202;
},
{
glyphname = Ecircumflexacute;
lastChange = "2023-06-21 13:56:06 +0000";
layers = (
{
background = {
anchors = (
{
name = bottom;
pos = (171,0);
},
{
name = ogonek;
pos = (307,10);
},
{
name = top;
pos = (377,1145);
},
{
name = topleft;
pos = (20,721);
}
);
shapes = (
{
closed = 1;
nodes = (
(331,49,l),
(341,163,l),
(195,140,l),
(229,324,l),
(260,325,o),
(286,326,q),
(309,327,o),
(354,328,o),
(364,329,q),
(369,357,o),
(376,411,o),
(380,439,q),
(369,438,o),
(323,438,o),
(301,437,q),
(274,436,o),
(243,434,q),
(278,613,l),
(294,613,o),
(337,613,o),
(379,614,o),
(416,615,o),
(426,616,q),
(429,632,o),
(438,673,o),
(443,692,q),
(448,715,o),
(455,737,q),
(139,710,l),
(8,-1,l)
);
},
{
closed = 1;
nodes = (
(209,779,o),
(239,811,o),
(269,845,o),
(299,877,o),
(310,887,q),
(371,769,l),
(383,778,o),
(409,797,o),
(419,806,q),
(431,816,o),
(443,826,q),
(432,863,o),
(421,900,q),
(412,931,o),
(393,1001,o),
(385,1028,q),
(383,1030,o),
(352,1028,o),
(313,1034,q),
(287,1008,o),
(228,936,o),
(203,903,q),
(173,864,o),
(145,823,q),
(151,815,o),
(160,806,q),
(166,798,o),
(186,779,o),
(199,768,q)
);
},
{
closed = 1;
nodes = (
(485,941,o),
(572,973,o),
(611,988,q),
(605,1028,o),
(605,1103,o),
(601,1146,q),
(568,1109,o),
(490,1039,o),
(447,995,q),
(447,983,o),
(446,962,o),
(446,952,q),
(446,946,o),
(446,934,o),
(447,927,q)
);
}
);
};
layerId = "A5922FF3-8C0B-4EAE-8A2D-3EBDCCE80B0C";
shapes = (
{
ref = E;
},
{
pos = (58,151);
ref = circumflexcomb_acutecomb;
}
);
width = 341;
}
);
unicode = 7870;
},
{
glyphname = Ecircumflexdotbelow;
lastChange = "2023-06-21 13:56:06 +0000";
layers = (
{
background = {
anchors = (
{
name = bottom;
pos = (171,-206);
},
{
name = ogonek;
pos = (307,10);
},
{
name = top;
pos = (310,1045);
},
{
name = topleft;
pos = (20,721);
}
);
shapes = (
{
closed = 1;
nodes = (
(331,49,l),
(341,163,l),
(195,140,l),
(229,324,l),
(260,325,o),
(286,326,q),
(309,327,o),
(354,328,o),
(364,329,q),
(369,357,o),
(376,411,o),
(380,439,q),
(369,438,o),
(323,438,o),
(301,437,q),
(274,436,o),
(243,434,q),
(278,613,l),
(294,613,o),
(337,613,o),
(379,614,o),
(416,615,o),
(426,616,q),
(429,632,o),
(438,673,o),
(443,692,q),
(448,715,o),
(455,737,q),
(139,710,l),
(8,-1,l)
);
},
{
closed = 1;
nodes = (
(206,790,o),
(236,822,o),
(266,856,o),
(296,888,o),
(307,898,q),
(368,780,l),
(380,789,o),
(406,808,o),
(416,817,q),
(428,827,o),
(440,837,q),
(429,874,o),
(418,911,q),
(409,942,o),
(390,1012,o),
(382,1039,q),
(380,1041,o),
(349,1039,o),
(310,1045,q),
(284,1019,o),
(225,947,o),
(200,914,q),
(170,875,o),
(142,834,q),
(148,826,o),
(157,817,q),
(163,809,o),
(183,790,o),
(196,779,q)
);
},
{
closed = 1;
nodes = (
(182,-205,o),
(222,-189,o),
(250,-162,o),
(263,-129,o),
(263,-112,q),
(263,-80,o),
(216,-30,o),
(167,-30,q),
(144,-30,o),
(110,-46,o),
(88,-71,o),
(77,-103,o),
(77,-119,q),
(77,-153,o),
(117,-205,o),
(157,-205,q)
);
}
);
};
layerId = "A5922FF3-8C0B-4EAE-8A2D-3EBDCCE80B0C";
shapes = (
{
ref = E;
},
{
pos = (55,162);
ref = circumflexcomb.case;
},
{
pos = (28,-28);
ref = dotbelowcomb.case;
}
);
width = 341;
}
);
unicode = 7878;
},
{
glyphname = Ecircumflexgrave;
lastChange = "2023-06-21 13:56:06 +0000";
layers = (
{
background = {
anchors = (
{
name = bottom;
pos = (171,0);
},
{
name = ogonek;
pos = (307,10);
},
{
name = top;
pos = (245,1155);
},
{
name = topleft;
pos = (20,721);
}
);
shapes = (
{
closed = 1;
nodes = (
(331,49,l),
(341,163,l),
(195,140,l),
(229,324,l),
(260,325,o),
(286,326,q),
(309,327,o),
(354,328,o),
(364,329,q),
(369,357,o),
(376,411,o),
(380,439,q),
(369,438,o),
(323,438,o),
(301,437,q),
(274,436,o),
(243,434,q),
(278,613,l),
(294,613,o),
(337,613,o),
(379,614,o),
(416,615,o),
(426,616,q),
(429,632,o),
(438,673,o),
(443,692,q),
(448,715,o),
(455,737,q),
(139,710,l),
(8,-1,l)
);
},
{
closed = 1;
nodes = (
(203,758,o),
(233,790,o),
(263,824,o),
(293,856,o),
(304,866,q),
(365,748,l),
(377,757,o),
(403,776,o),
(413,785,q),
(425,795,o),
(437,805,q),
(426,842,o),
(415,879,q),
(406,910,o),
(387,980,o),
(379,1007,q),
(377,1009,o),
(346,1007,o),
(307,1013,q),
(281,987,o),
(222,915,o),
(197,882,q),
(167,843,o),
(139,802,q),
(145,794,o),
(154,785,q),
(160,777,o),
(180,758,o),
(193,747,q)
);
},
{
closed = 1;
nodes = (
(225,1005,l),
(206,1026,o),
(157,1079,o),
(136,1102,q),
(110,1128,o),
(85,1155,q),
(79,1124,o),
(73,1094,q),
(68,1068,o),
(58,1014,o),
(54,995,q),
(73,989,o),
(129,974,o),
(156,968,q),
(187,960,o),
(220,952,q)
);
}
);
};
layerId = "A5922FF3-8C0B-4EAE-8A2D-3EBDCCE80B0C";
shapes = (
{
ref = E;
},
{
pos = (52,130);
ref = circumflexcomb_gravecomb;
}
);
width = 341;
}
);
unicode = 7872;
},
{
glyphname = Ecircumflexhookabove;
lastChange = "2023-06-21 13:56:06 +0000";
layers = (
{
background = {
anchors = (
{
name = bottom;
pos = (171,0);
},
{
name = ogonek;
pos = (307,10);
},
{
name = top;
pos = (377,1124);
},
{
name = topleft;
pos = (20,721);
}
);
shapes = (
{
closed = 1;
nodes = (
(331,49,l),
(341,163,l),
(195,140,l),
(229,324,l),
(260,325,o),
(286,326,q),
(309,327,o),
(354,328,o),
(364,329,q),
(369,357,o),
(376,411,o),
(380,439,q),
(369,438,o),
(323,438,o),
(301,437,q),
(274,436,o),
(243,434,q),
(278,613,l),
(294,613,o),
(337,613,o),
(379,614,o),
(416,615,o),
(426,616,q),
(429,632,o),
(438,673,o),
(443,692,q),
(448,715,o),
(455,737,q),
(139,710,l),
(8,-1,l)
);
},
{
closed = 1;
nodes = (
(216,773,o),
(246,805,o),
(276,839,o),
(306,871,o),
(317,881,q),
(378,763,l),
(390,772,o),
(416,791,o),
(426,800,q),
(438,810,o),
(450,820,q),
(439,857,o),
(428,894,q),
(419,925,o),
(400,995,o),
(392,1022,q),
(390,1024,o),
(359,1022,o),
(320,1028,q),
(294,1002,o),
(235,930,o),
(210,897,q),
(180,858,o),
(152,817,q),
(158,809,o),
(167,800,q),
(173,792,o),
(193,773,o),
(206,762,q)
);
},
{
closed = 1;
nodes = (
(502,941,l),
(521,943,l),
(525,955,o),
(538,974,o),
(556,989,o),
(576,1003,o),
(591,1020,o),
(601,1042,o),
(601,1059,q),
(598,1088,o),
(580,1109,o),
(566,1118,o),
(540,1123,o),
(530,1123,q),
(508,1123,o),
(465,1106,o),
(441,1087,q),
(457,1028,l),
(467,1036,o),
(486,1050,o),
(503,1060,o),
(510,1060,q),
(515,1060,o),
(521,1053,o),
(521,1051,q),
(521,1046,o),
(511,1035,o),
(496,1022,o),
(479,1005,o),
(463,984,o),
(454,956,o),
(454,939,q)
);
}
);
};
layerId = "A5922FF3-8C0B-4EAE-8A2D-3EBDCCE80B0C";
shapes = (
{
ref = E;
},
{
pos = (65,145);
ref = circumflexcomb_hookabovecomb;
}
);
width = 341;
}
);
unicode = 7874;
},
{
glyphname = Ecircumflextilde;
lastChange = "2023-06-21 13:56:06 +0000";
layers = (
{
background = {
anchors = (
{
name = bottom;
pos = (171,0);
},
{
name = ogonek;
pos = (307,10);
},
{
name = top;
pos = (380,1291);
},
{
name = topleft;
pos = (20,721);
}
);
shapes = (
{
closed = 1;
nodes = (
(331,49,l),
(341,163,l),
(195,140,l),
(229,324,l),
(260,325,o),
(286,326,q),
(309,327,o),
(354,328,o),
(364,329,q),
(369,357,o),
(376,411,o),
(380,439,q),
(369,438,o),
(323,438,o),
(301,437,q),
(274,436,o),
(243,434,q),
(278,613,l),
(294,613,o),
(337,613,o),
(379,614,o),
(416,615,o),
(426,616,q),
(429,632,o),
(438,673,o),
(443,692,q),
(448,715,o),
(455,737,q),
(139,710,l),
(8,-1,l)
);
},
{
closed = 1;
nodes = (
(208,766,o),
(238,798,o),
(268,832,o),
(298,864,o),
(309,874,q),
(370,756,l),
(382,765,o),
(408,784,o),
(418,793,q),
(430,803,o),
(442,813,q),
(431,850,o),
(420,887,q),
(411,918,o),
(392,988,o),
(384,1015,q),
(382,1017,o),
(351,1015,o),
(312,1021,q),
(286,995,o),
(227,923,o),
(202,890,q),
(172,851,o),
(144,810,q),
(150,802,o),
(159,793,q),
(165,785,o),
(185,766,o),
(198,755,q)
);
},
{
closed = 1;
nodes = (
(238,1076,o),
(262,1102,o),
(287,1126,o),
(315,1143,o),
(330,1143,q),
(351,1143,o),
(372,1122,o),
(392,1096,o),
(417,1075,o),
(441,1075,q),
(461,1075,o),
(496,1090,o),
(528,1114,o),
(556,1144,o),
(567,1161,q),
(594,1199,o),
(615,1248,q),
(609,1255,o),
(601,1261,q),
(593,1267,o),
(573,1283,o),
(561,1292,q),
(551,1283,o),
(527,1253,o),
(501,1223,o),
(473,1202,o),
(458,1202,q),
(453,1202,o),
(436,1228,o),
(408,1260,o),
(371,1288,o),
(347,1288,q),
(321,1288,o),
(277,1261,o),
(239,1222,o),
(208,1176,o),
(186,1137,o),
(174,1111,o),
(174,1111,q),
(180,1104,o),
(196,1092,o),
(215,1076,o),
(228,1067,q)
);
}
);
};
layerId = "A5922FF3-8C0B-4EAE-8A2D-3EBDCCE80B0C";
shapes = (
{
ref = E;
},
{
pos = (57,138);
ref = circumflexcomb_tildecomb;
}
);
width = 341;
}
);
unicode = 7876;
},
{
glyphname = Edblgrave;
lastChange = "2023-06-21 13:56:06 +0000";
layers = (
{
background = {
anchors = (
{
name = bottom;
pos = (171,0);
},
{
name = ogonek;
pos = (307,10);
},
{
name = top;
pos = (251,1020);
},
{
name = topleft;
pos = (20,721);
}
);
shapes = (
{
closed = 1;
nodes = (
(331,49,l),
(341,163,l),
(195,140,l),
(229,324,l),
(260,325,o),
(286,326,q),
(309,327,o),
(354,328,o),
(364,329,q),
(369,357,o),
(376,411,o),
(380,439,q),
(369,438,o),
(323,438,o),
(301,437,q),
(274,436,o),
(243,434,q),
(278,613,l),
(294,613,o),
(337,613,o),
(379,614,o),
(416,615,o),
(426,616,q),
(429,632,o),
(438,673,o),
(443,692,q),
(448,715,o),
(455,737,q),
(139,710,l),
(8,-1,l)
);
},
{
closed = 1;
nodes = (
(237,842,l),
(209,874,o),
(134,954,o),
(101,989,q),
(62,1029,o),
(23,1071,q),
(14,1023,o),
(5,977,q),
(-2,938,o),
(-18,855,o),
(-24,826,q),
(5,817,o),
(91,794,o),
(132,785,q),
(179,773,o),
(230,761,q)
);
},
{
closed = 1;
nodes = (
(526,817,l),
(498,849,o),
(423,929,o),
(390,964,q),
(351,1004,o),
(312,1046,q),
(303,998,o),
(294,952,q),
(287,913,o),
(271,830,o),
(265,801,q),
(294,792,o),
(380,769,o),
(421,760,q),
(468,748,o),
(519,736,q)
);
}
);
};
layerId = "A5922FF3-8C0B-4EAE-8A2D-3EBDCCE80B0C";
shapes = (
{
ref = E;
},
{
pos = (-73,131);
ref = dblgravecomb.case;
}
);
width = 341;
}
);
unicode = 516;
},
{
glyphname = Edieresis;
lastChange = "2023-06-21 13:56:06 +0000";
layers = (
{
background = {
anchors = (
{
name = bottom;
pos = (171,0);
},
{
name = ogonek;
pos = (307,10);
},
{
name = top;
pos = (265,1018);
},
{
name = topleft;
pos = (20,721);
}
);
shapes = (
{
closed = 1;
nodes = (
(331,49,l),
(341,163,l),
(195,140,l),
(229,324,l),
(260,325,o),
(286,326,q),
(309,327,o),
(354,328,o),
(364,329,q),
(369,357,o),
(376,411,o),
(380,439,q),
(369,438,o),
(323,438,o),
(301,437,q),
(274,436,o),
(243,434,q),
(278,613,l),
(294,613,o),
(337,613,o),
(379,614,o),
(416,615,o),
(426,616,q),
(429,632,o),
(438,673,o),
(443,692,q),
(448,715,o),
(455,737,q),
(139,710,l),
(8,-1,l)
);
},
{
closed = 1;
nodes = (
(394,843,o),
(433,860,o),
(460,886,o),
(474,919,o),
(474,937,q),
(474,968,o),
(426,1018,o),
(378,1018,q),
(355,1018,o),
(320,1002,o),
(298,978,o),
(287,946,o),
(287,929,q),
(287,896,o),
(327,843,o),
(367,843,q)
);
},
{
closed = 1;
nodes = (
(160,843,o),
(200,860,o),
(228,886,o),
(241,919,o),
(241,937,q),
(241,968,o),
(194,1018,o),
(145,1018,q),
(122,1018,o),
(88,1002,o),
(66,978,o),
(55,946,o),
(55,929,q),
(55,896,o),
(95,843,o),
(135,843,q)
);
}
);
};
layerId = "A5922FF3-8C0B-4EAE-8A2D-3EBDCCE80B0C";
shapes = (
{
ref = E;
},
{
pos = (6,135);
ref = dieresiscomb.case;
}
);
width = 341;
}
);
unicode = 203;
},
{
glyphname = Edotaccent;
lastChange = "2023-06-21 13:56:06 +0000";
layers = (
{
background = {
anchors = (
{
name = bottom;
pos = (171,0);
},
{
name = ogonek;
pos = (307,10);
},
{
name = top;
pos = (269,972);
},
{
name = topleft;
pos = (20,721);
}
);
shapes = (
{
closed = 1;
nodes = (
(331,49,l),
(341,163,l),
(195,140,l),
(229,324,l),
(260,325,o),
(286,326,q),
(309,327,o),
(354,328,o),
(364,329,q),
(369,357,o),
(376,411,o),
(380,439,q),
(369,438,o),
(323,438,o),
(301,437,q),
(274,436,o),
(243,434,q),
(278,613,l),
(294,613,o),
(337,613,o),
(379,614,o),
(416,615,o),
(426,616,q),
(429,632,o),
(438,673,o),
(443,692,q),
(448,715,o),
(455,737,q),
(139,710,l),
(8,-1,l)
);
},
{
closed = 1;
nodes = (
(280,797,o),
(320,813,o),
(348,840,o),
(361,873,o),
(361,890,q),
(361,922,o),
(314,972,o),
(265,972,q),
(242,972,o),
(208,956,o),
(186,931,o),
(175,899,o),
(175,883,q),
(175,849,o),
(215,797,o),
(255,797,q)
);
}
);
};
layerId = "A5922FF3-8C0B-4EAE-8A2D-3EBDCCE80B0C";
shapes = (
{
ref = E;
},
{
pos = (126,76);
ref = dotaccentcomb.case;
}
);
width = 341;
}
);
unicode = 278;
},
{
glyphname = Edotbelow;
lastChange = "2023-06-21 13:56:06 +0000";
layers = (
{
background = {
anchors = (
{
name = bottom;
pos = (171,-206);
},
{
name = ogonek;
pos = (307,10);
},
{
name = top;
pos = (265,750);
},
{
name = topleft;
pos = (20,721);
}
);
shapes = (
{
closed = 1;
nodes = (
(331,49,l),
(341,163,l),
(195,140,l),
(229,324,l),
(260,325,o),
(286,326,q),
(309,327,o),
(354,328,o),
(364,329,q),
(369,357,o),
(376,411,o),
(380,439,q),
(369,438,o),
(323,438,o),
(301,437,q),
(274,436,o),
(243,434,q),
(278,613,l),
(294,613,o),
(337,613,o),
(379,614,o),
(416,615,o),
(426,616,q),
(429,632,o),
(438,673,o),
(443,692,q),
(448,715,o),
(455,737,q),
(139,710,l),
(8,-1,l)
);
},
{
closed = 1;
nodes = (
(182,-205,o),
(222,-189,o),
(250,-162,o),
(263,-129,o),
(263,-112,q),
(263,-80,o),
(216,-30,o),
(167,-30,q),
(144,-30,o),
(110,-46,o),
(88,-71,o),
(77,-103,o),
(77,-119,q),
(77,-153,o),
(117,-205,o),
(157,-205,q)
);
}
);
};
layerId = "A5922FF3-8C0B-4EAE-8A2D-3EBDCCE80B0C";
shapes = (
{
ref = E;
},
{
pos = (28,-28);
ref = dotbelowcomb.case;
}
);
width = 341;
}
);
unicode = 7864;
},
{
glyphname = Egrave;
lastChange = "2023-06-21 13:56:06 +0000";
layers = (
{
background = {
anchors = (
{
name = bottom;
pos = (171,0);
},
{
name = ogonek;
pos = (307,10);
},
{
name = top;
pos = (181,1091);
},
{
name = topleft;
pos = (20,721);
}
);
shapes = (
{
closed = 1;
nodes = (
(331,49,l),
(341,163,l),
(195,140,l),
(229,324,l),
(260,325,o),
(286,326,q),
(309,327,o),
(354,328,o),
(364,329,q),
(369,357,o),
(376,411,o),
(380,439,q),
(369,438,o),
(323,438,o),
(301,437,q),
(274,436,o),
(243,434,q),
(278,613,l),
(294,613,o),
(337,613,o),
(379,614,o),
(416,615,o),
(426,616,q),
(429,632,o),
(438,673,o),
(443,692,q),
(448,715,o),
(455,737,q),
(139,710,l),
(8,-1,l)
);
},
{
closed = 1;
nodes = (
(311,862,l),
(283,894,o),
(208,974,o),
(175,1009,q),
(136,1049,o),
(97,1091,q),
(88,1043,o),
(79,997,q),
(72,958,o),
(56,875,o),
(50,846,q),
(79,837,o),
(165,814,o),
(206,805,q),
(253,793,o),
(304,781,q)
);
}
);
};
layerId = "A5922FF3-8C0B-4EAE-8A2D-3EBDCCE80B0C";
shapes = (
{
ref = E;
},
{
pos = (-26,202);
ref = gravecomb.case;
}
);
width = 341;
}
);
unicode = 200;
},
{
glyphname = Ehookabove;
lastChange = "2023-06-21 13:56:47 +0000";
layers = (
{
background = {
anchors = (
{
name = bottom;
pos = (171,0);
},
{
name = ogonek;
pos = (307,10);
},
{
name = top;
pos = (315,958);
},
{
name = topleft;
pos = (20,721);
}
);
shapes = (
{
closed = 1;
nodes = (
(331,49,l),
(341,163,l),
(195,140,l),
(229,324,l),
(260,325,o),
(286,326,q),
(309,327,o),
(354,328,o),
(364,329,q),
(369,357,o),
(376,411,o),
(380,439,q),
(369,438,o),
(323,438,o),
(301,437,q),
(274,436,o),
(243,434,q),
(278,613,l),
(294,613,o),
(337,613,o),
(379,614,o),
(416,615,o),
(426,616,q),
(429,632,o),
(438,673,o),
(443,692,q),
(448,715,o),
(455,737,q),
(139,710,l),
(8,-1,l)
);
},
{
closed = 1;
nodes = (
(296,776,l),
(315,778,l),
(319,790,o),
(332,809,o),
(350,824,o),
(370,838,o),
(385,855,o),
(395,877,o),
(395,894,q),
(392,923,o),
(374,944,o),
(360,953,o),
(334,958,o),
(324,958,q),
(302,958,o),
(259,941,o),
(235,922,q),
(251,863,l),
(261,871,o),
(280,885,o),
(297,895,o),
(304,895,q),
(309,895,o),
(315,888,o),
(315,886,q),
(315,881,o),
(305,870,o),
(290,857,o),
(273,840,o),
(257,819,o),
(248,791,o),
(248,774,q)
);
}
);
};
layerId = "A5922FF3-8C0B-4EAE-8A2D-3EBDCCE80B0C";
shapes = (
{
ref = E;
},
{
pos = (175,137);
ref = hookabovecomb.case;
}
);
width = 341;
}
);
unicode = 7866;
},
{
glyphname = Einvertedbreve;
lastChange = "2023-06-21 13:56:06 +0000";
layers = (
{
background = {
anchors = (
{
name = bottom;
pos = (171,0);
},
{
name = ogonek;
pos = (307,10);
},
{
name = top;
pos = (265,1025);
},
{
name = topleft;
pos = (20,721);
}
);
shapes = (
{
closed = 1;
nodes = (
(331,49,l),
(341,163,l),
(195,140,l),
(229,324,l),
(260,325,o),
(286,326,q),
(309,327,o),
(354,328,o),
(364,329,q),
(369,357,o),
(376,411,o),
(380,439,q),
(369,438,o),
(323,438,o),
(301,437,q),
(274,436,o),
(243,434,q),
(278,613,l),
(294,613,o),
(337,613,o),
(379,614,o),
(416,615,o),
(426,616,q),
(429,632,o),
(438,673,o),
(443,692,q),
(448,715,o),
(455,737,q),
(139,710,l),
(8,-1,l)
);
},
{
closed = 1;
nodes = (
(183,960,o),
(125,866,o),
(114,812,q),
(130,796,ls),
(138,788,o),
(158,771,o),
(171,760,q),
(191,801,o),
(217,849,o),
(250,878,o),
(282,878,q),
(320,878,o),
(345,819,o),
(343,770,c),
(356,780,o),
(379,801,o),
(390,810,q),
(402,821,o),
(412,830,q),
(416,894,o),
(345,1006,o),
(290,1006,qs),
(248,1006,o)
);
}
);
};
layerId = "A5922FF3-8C0B-4EAE-8A2D-3EBDCCE80B0C";
shapes = (
{
ref = E;
},
{
pos = (66,145);
ref = breveinvertedcomb.case;
}
);
width = 341;
}
);
unicode = 518;
},
{
glyphname = Emacron;
lastChange = "2023-06-21 13:56:06 +0000";
layers = (
{
background = {
anchors = (
{
name = bottom;
pos = (171,0);
},
{
name = ogonek;
pos = (307,10);
},
{
name = top;
pos = (265,983);
},
{
name = topleft;
pos = (20,721);
}
);
shapes = (
{
closed = 1;
nodes = (
(331,49,l),
(341,163,l),
(195,140,l),
(229,324,l),
(260,325,o),
(286,326,q),
(309,327,o),
(354,328,o),
(364,329,q),
(369,357,o),
(376,411,o),
(380,439,q),
(369,438,o),
(323,438,o),
(301,437,q),
(274,436,o),
(243,434,q),
(278,613,l),
(294,613,o),
(337,613,o),
(379,614,o),
(416,615,o),
(426,616,q),
(429,632,o),
(438,673,o),
(443,692,q),
(448,715,o),
(455,737,q),
(139,710,l),
(8,-1,l)
);
},
{
closed = 1;
nodes = (
(96,796,o),
(151,801,o),
(213,806,o),
(278,810,o),
(309,812,q),
(381,816,o),
(460,821,q),
(444,983,l),
(70,951,l),
(69,943,o),
(69,933,q),
(69,893,l),
(69,867,o),
(71,811,o),
(76,794,q)
);
}
);
};
layerId = "A5922FF3-8C0B-4EAE-8A2D-3EBDCCE80B0C";
shapes = (
{
ref = E;
},
{
pos = (20,100);
ref = macroncomb.case;
}
);
width = 341;
}
);
unicode = 274;
},
{
glyphname = Eogonek;
lastChange = "2023-06-21 13:56:06 +0000";
layers = (
{
background = {
anchors = (
{
name = bottom;
pos = (171,0);
},
{
name = ogonek;
pos = (307,10);
},
{
name = top;
pos = (265,750);
},
{
name = topleft;
pos = (20,721);
}
);
shapes = (
{
closed = 1;
nodes = (
(331,49,l),
(341,163,l),
(195,140,l),
(229,324,l),
(260,325,o),
(286,326,q),
(309,327,o),
(354,328,o),
(364,329,q),
(369,357,o),
(376,411,o),
(380,439,q),
(369,438,o),
(323,438,o),
(301,437,q),
(274,436,o),
(243,434,q),
(278,613,l),
(294,613,o),
(337,613,o),
(379,614,o),
(416,615,o),
(426,616,q),
(429,632,o),
(438,673,o),
(443,692,q),
(448,715,o),
(455,737,q),
(139,710,l),
(8,-1,l)
);
},
{
closed = 1;
nodes = (
(293,-134,o),
(338,-116,o),
(354,-97,q),
(334,-9,l),
(309,-37,o),
(281,-37,q),
(260,-37,o),
(231,-5,o),
(231,20,q),
(231,32,o),
(235,50,q),
(218,48,o),
(194,44,o),
(176,41,o),
(175,41,q),
(135,2,o),
(135,-37,q),
(135,-58,o),
(155,-93,o),
(191,-119,o),
(240,-134,o),
(270,-134,q)
);
}
);
};
layerId = "A5922FF3-8C0B-4EAE-8A2D-3EBDCCE80B0C";
shapes = (
{
ref = E;
},
{
pos = (86,31);
ref = ogonekcomb.case;
}
);
width = 341;
}
);
unicode = 280;
},
{
glyphname = Etilde;
lastChange = "2023-06-21 13:56:06 +0000";
layers = (
{
background = {
anchors = (
{
name = bottom;
pos = (171,0);
},
{
name = ogonek;
pos = (307,10);
},
{
name = top;
pos = (312,1021);
},
{
name = topleft;
pos = (20,721);
}
);
shapes = (
{
closed = 1;
nodes = (
(331,49,l),
(341,163,l),
(195,140,l),
(229,324,l),
(260,325,o),
(286,326,q),
(309,327,o),
(354,328,o),
(364,329,q),
(369,357,o),
(376,411,o),
(380,439,q),
(369,438,o),
(323,438,o),
(301,437,q),
(274,436,o),
(243,434,q),
(278,613,l),
(294,613,o),
(337,613,o),
(379,614,o),
(416,615,o),
(426,616,q),
(429,632,o),
(438,673,o),
(443,692,q),
(448,715,o),
(455,737,q),
(139,710,l),
(8,-1,l)
);
},
{
closed = 1;
nodes = (
(156,805,o),
(180,831,o),
(205,855,o),
(233,872,o),
(248,872,q),
(269,872,o),
(290,851,o),
(310,825,o),
(335,804,o),
(359,804,q),
(379,804,o),
(414,819,o),
(446,843,o),
(474,873,o),
(485,890,q),
(512,928,o),
(533,977,q),
(527,984,o),
(519,990,q),
(511,996,o),
(491,1012,o),
(479,1021,q),
(469,1012,o),
(445,982,o),
(419,952,o),
(391,931,o),
(376,931,q),
(371,931,o),
(354,957,o),
(326,989,o),
(289,1017,o),
(265,1017,q),
(239,1017,o),
(195,990,o),
(157,951,o),
(126,905,o),
(104,866,o),
(92,840,o),
(92,840,q),
(98,833,o),
(114,821,o),
(133,805,o),
(146,796,q)
);
}
);
};
layerId = "A5922FF3-8C0B-4EAE-8A2D-3EBDCCE80B0C";
shapes = (
{
ref = E;
},
{
pos = (83,134);
ref = tildecomb.case;
}
);
width = 341;
}
);
unicode = 7868;
},
{
glyphname = Schwa;
lastChange = "2023-06-21 14:19:30 +0000";
layers = (
{
background = {
shapes = (
{
closed = 1;
nodes = (
(271,535,o),
(317,578,o),
(346,578,c),
(399,578,o),
(434,504,o),
(434,393,c),
(434,271,o),
(378,145,o),
(269,145,c),
(224,145,o),
(202,195,o),
(202,261,cs),
(202,278,o),
(207,297,o),
(214,315,c),
(186,315,o),
(208,310,o),
(208,310,c),
(208,310,o),
(491,310,o),
(491,310,c),
(491,310,o),
(481,430,o),
(481,430,c),
(481,430,o),
(108,430,o),
(108,430,c),
(84,369,o),
(72,308,o),
(73,252,cs),
(76,110,o),
(159,0,o),
(280,0,c),
(472,0,o),
(604,217,o),
(604,436,c),
(604,661,o),
(479,751,o),
(347,751,c),
(281,751,o),
(188,701,o),
(158,621,c),
(265,513,l)
);
}
);
};
layerId = "A5922FF3-8C0B-4EAE-8A2D-3EBDCCE80B0C";
shapes = (
{
closed = 1;
nodes = (
(271,535,o),
(317,578,o),
(346,578,cs),
(399,578,o),
(434,504,o),
(434,393,cs),
(434,271,o),
(378,145,o),
(269,145,cs),
(224,145,o),
(202,195,o),
(202,261,cs),
(202,268,o),
(206,301,o),
(208,310,c),
(491,310,l),
(481,430,l),
(108,430,l),
(84,369,o),
(72,308,o),
(73,252,cs),
(76,110,o),
(159,0,o),
(280,0,cs),
(472,0,o),
(604,217,o),
(604,436,cs),
(604,661,o),
(479,751,o),
(347,751,cs),
(281,751,o),
(188,701,o),
(158,621,c),
(265,513,l)
);
}
);
width = 585;
}
);
unicode = 399;
},
{
glyphname = F;
lastChange = "2023-06-21 13:56:06 +0000";
layers = (
{
anchors = (
{
name = bottom;
pos = (171,0);
},
{
name = top;
pos = (325,721);
}
);
background = {
anchors = (
{
name = bottom;
pos = (171,0);
},
{
name = top;
pos = (325,721);
}
);
shapes = (
{
closed = 1;
nodes = (
(29,5,o),
(95,19,o),
(123,24,q),
(156,31,o),
(190,37,q),
(236,332,l),
(268,331,o),
(319,329,o),
(367,328,o),
(380,328,q),
(384,355,o),
(393,409,o),
(396,437,q),
(383,436,o),
(335,436,o),
(312,436,q),
(284,436,o),
(253,435,q),
(284,613,l),
(441,613,l),
(470,736,l),
(135,719,l),
(114,577,o),
(93,444,q),
(83,388,o),
(62,267,o),
(39,149,o),
(16,42,o),
(4,-1,q)
);
}
);
};
layerId = "A5922FF3-8C0B-4EAE-8A2D-3EBDCCE80B0C";
shapes = (
{
closed = 1;
nodes = (
(37,7,o),
(86,17,o),
(123,24,cs),
(145,29,o),
(167,33,o),
(190,37,c),
(236,332,l),
(295,330,o),
(352,328,o),
(380,328,c),
(389,382,ls),
(392,400,o),
(394,418,o),
(396,437,c),
(387,436,o),
(375,436,o),
(359,436,cs),
(312,436,ls),
(293,436,o),
(274,436,o),
(253,435,c),
(284,613,l),
(441,613,l),
(470,736,l),
(135,719,l),
(121,624,o),
(107,533,o),
(93,444,cs),
(76,349,o),
(40,127,o),
(4,-1,c)
);
}
);
width = 341;
}
);
unicode = 70;
},
{
glyphname = G;
lastChange = "2023-06-21 13:56:06 +0000";
layers = (
{
anchors = (
{
name = bottom;
pos = (250,0);
},
{
name = top;
pos = (379,721);
}
);
background = {
anchors = (
{
name = bottom;
pos = (250,0);
},
{
name = top;
pos = (379,721);
}
);
shapes = (
{
closed = 1;
nodes = (
(271,-24,o),
(378,26,o),
(471,128,o),
(537,279,o),
(544,381,q),
(512,375,o),
(427,361,o),
(389,356,q),
(344,350,o),
(297,344,q),
(278,245,l),
(385,261,l),
(384,232,o),
(361,183,o),
(327,146,o),
(284,126,o),
(264,126,q),
(235,126,o),
(198,179,o),
(198,241,q),
(200,306,o),
(236,440,o),
(288,552,o),
(348,623,o),
(373,623,q),
(392,623,o),
(422,589,o),
(431,549,q),
(568,575,l),
(568,610,o),
(551,673,o),
(513,720,o),
(454,748,o),
(414,748,q),
(358,748,o),
(229,686,o),
(116,558,o),
(42,366,o),
(42,237,q),
(42,171,o),
(70,73,o),
(119,8,o),
(186,-24,o),
(223,-24,q)
);
}
);
};
layerId = "A5922FF3-8C0B-4EAE-8A2D-3EBDCCE80B0C";
shapes = (
{
closed = 1;
nodes = (
(350,-24,o),
(525,108,o),
(544,381,c),
(501,373,o),
(440,363,o),
(389,356,cs),
(297,344,l),
(278,245,l),
(385,261,l),
(382,185,o),
(320,126,o),
(264,126,cs),
(225,126,o),
(198,158,o),
(198,241,cs),
(203,399,o),
(301,623,o),
(373,623,cs),
(398,623,o),
(419,602,o),
(431,549,c),
(568,575,l),
(568,670,o),
(521,748,o),
(414,748,cs),
(339,748,o),
(248,707,o),
(173,622,cs),
(97,537,o),
(42,409,o),
(42,237,cs),
(42,149,o),
(62,84,o),
(95,41,cs),
(127,-3,o),
(174,-24,o),
(223,-24,cs)
);
}
);
width = 499;
}
);
unicode = 71;
},
{
glyphname = Gbreve;
lastChange = "2023-06-21 13:56:06 +0000";
layers = (
{
background = {
anchors = (
{
name = bottom;
pos = (250,0);
},
{
name = top;
pos = (435,1009);
}
);
shapes = (
{
closed = 1;
nodes = (
(271,-24,o),
(378,26,o),
(471,128,o),
(537,279,o),
(544,381,q),
(512,375,o),
(427,361,o),
(389,356,q),
(344,350,o),
(297,344,q),
(278,245,l),
(385,261,l),
(384,232,o),
(361,183,o),
(327,146,o),
(284,126,o),
(264,126,q),
(235,126,o),
(198,179,o),
(198,241,q),
(200,306,o),
(236,440,o),
(288,552,o),
(348,623,o),
(373,623,q),
(392,623,o),
(422,589,o),
(431,549,q),
(568,575,l),
(568,610,o),
(551,673,o),
(513,720,o),
(454,748,o),
(414,748,q),
(358,748,o),
(229,686,o),
(116,558,o),
(42,366,o),
(42,237,q),
(42,171,o),
(70,73,o),
(119,8,o),
(186,-24,o),
(223,-24,q)
);
},
{
closed = 1;
nodes = (
(499,816,o),
(557,910,o),
(568,964,q),
(552,980,ls),
(544,988,o),
(524,1005,o),
(511,1016,q),
(491,975,o),
(465,927,o),
(432,898,o),
(400,898,q),
(362,898,o),
(337,957,o),
(339,1006,c),
(326,996,o),
(303,975,o),
(292,966,q),
(280,955,o),
(270,946,q),
(266,882,o),
(337,770,o),
(392,770,qs),
(434,770,o)
);
}
);
};
layerId = "A5922FF3-8C0B-4EAE-8A2D-3EBDCCE80B0C";
shapes = (
{
ref = G;
},
{
pos = (217,117);
ref = brevecomb.case;
}
);
width = 499;
}
);
unicode = 286;
},
{
glyphname = Gcaron;
lastChange = "2023-06-21 13:56:06 +0000";
layers = (
{
background = {
anchors = (
{
name = bottom;
pos = (250,0);
},
{
name = top;
pos = (379,1028);
}
);
shapes = (
{
closed = 1;
nodes = (
(271,-24,o),
(378,26,o),
(471,128,o),
(537,279,o),
(544,381,q),
(512,375,o),
(427,361,o),
(389,356,q),
(344,350,o),
(297,344,q),
(278,245,l),
(385,261,l),
(384,232,o),
(361,183,o),
(327,146,o),
(284,126,o),
(264,126,q),
(235,126,o),
(198,179,o),
(198,241,q),
(200,306,o),
(236,440,o),
(288,552,o),
(348,623,o),
(373,623,q),
(392,623,o),
(422,589,o),
(431,549,q),
(568,575,l),
(568,610,o),
(551,673,o),
(513,720,o),
(454,748,o),
(414,748,q),
(358,748,o),
(229,686,o),
(116,558,o),
(42,366,o),
(42,237,q),
(42,171,o),
(70,73,o),
(119,8,o),
(186,-24,o),
(223,-24,q)
);
},
{
closed = 1;
nodes = (
(395,783,o),
(451,859,o),
(474,893,q),
(501,933,o),
(528,976,q),
(512,991,l),
(504,999,o),
(484,1017,o),
(471,1028,q),
(460,1016,o),
(433,983,o),
(404,948,o),
(376,914,o),
(366,903,q),
(299,1018,l),
(287,1008,o),
(263,987,o),
(252,978,q),
(241,967,o),
(230,957,q),
(243,920,o),
(255,884,q),
(266,853,o),
(289,784,o),
(298,758,q),
(298,757,o),
(302,757,q),
(306,757,o),
(318,758,o),
(328,758,q),
(335,758,o),
(357,757,o),
(370,756,q)
);
}
);
};
layerId = "A5922FF3-8C0B-4EAE-8A2D-3EBDCCE80B0C";
shapes = (
{
ref = G;
},
{
pos = (99,135);
ref = caroncomb.case;
}
);
width = 499;
}
);
unicode = 486;
},
{
glyphname = Gcircumflex;
lastChange = "2023-06-21 13:56:06 +0000";
layers = (
{
background = {
anchors = (
{
name = bottom;
pos = (250,0);
},
{
name = top;
pos = (424,1016);
}
);
shapes = (
{
closed = 1;
nodes = (
(271,-24,o),
(378,26,o),
(471,128,o),
(537,279,o),
(544,381,q),
(512,375,o),
(427,361,o),
(389,356,q),
(344,350,o),
(297,344,q),
(278,245,l),
(385,261,l),
(384,232,o),
(361,183,o),
(327,146,o),
(284,126,o),
(264,126,q),
(235,126,o),
(198,179,o),
(198,241,q),
(200,306,o),
(236,440,o),
(288,552,o),
(348,623,o),
(373,623,q),
(392,623,o),
(422,589,o),
(431,549,q),
(568,575,l),
(568,610,o),
(551,673,o),
(513,720,o),
(454,748,o),
(414,748,q),
(358,748,o),
(229,686,o),
(116,558,o),
(42,366,o),
(42,237,q),
(42,171,o),
(70,73,o),
(119,8,o),
(186,-24,o),
(223,-24,q)
);
},
{
closed = 1;
nodes = (
(320,761,o),
(350,793,o),
(380,827,o),
(410,859,o),
(421,869,q),
(482,751,l),
(494,760,o),
(520,779,o),
(530,788,q),
(542,798,o),
(554,808,q),
(543,845,o),
(532,882,q),
(523,913,o),
(504,983,o),
(496,1010,q),
(494,1012,o),
(463,1010,o),
(424,1016,q),
(398,990,o),
(339,918,o),
(314,885,q),
(284,846,o),
(256,805,q),
(262,797,o),
(271,788,q),
(277,780,o),
(297,761,o),
(310,750,q)
);
}
);
};
layerId = "A5922FF3-8C0B-4EAE-8A2D-3EBDCCE80B0C";
shapes = (
{
ref = G;
},
{
pos = (169,133);
ref = circumflexcomb.case;
}
);
width = 499;
}
);
unicode = 284;
},
{
glyphname = Gcommaaccent;
lastChange = "2023-06-21 13:56:06 +0000";
layers = (
{
background = {
anchors = (
{
name = bottom;
pos = (208,-426);
},
{
name = top;
pos = (379,721);
}
);
shapes = (
{
closed = 1;
nodes = (
(271,-24,o),
(378,26,o),
(471,128,o),
(537,279,o),
(544,381,q),
(512,375,o),
(427,361,o),
(389,356,q),
(344,350,o),
(297,344,q),
(278,245,l),
(385,261,l),
(384,232,o),
(361,183,o),
(327,146,o),
(284,126,o),
(264,126,q),
(235,126,o),
(198,179,o),
(198,241,q),
(200,306,o),
(236,440,o),
(288,552,o),
(348,623,o),
(373,623,q),
(392,623,o),
(422,589,o),
(431,549,q),
(568,575,l),
(568,610,o),
(551,673,o),
(513,720,o),
(454,748,o),
(414,748,q),
(358,748,o),
(229,686,o),
(116,558,o),
(42,366,o),
(42,237,q),
(42,171,o),
(70,73,o),
(119,8,o),
(186,-24,o),
(223,-24,q)
);
},
{
closed = 1;
nodes = (
(245,-356,l),
(262,-301,o),
(292,-201,o),
(319,-100,o),
(327,-63,q),
(302,-64,o),
(257,-66,o),
(212,-66,o),
(198,-66,q),
(189,-66,o),
(154,-65,o),
(146,-65,q),
(143,-90,o),
(130,-156,o),
(114,-233,o),
(96,-316,o),
(88,-356,q)
);
}
);
};
layerId = "A5922FF3-8C0B-4EAE-8A2D-3EBDCCE80B0C";
shapes = (
{
ref = G;
},
{
pos = (122,-245);
ref = commaaccentcomb.case;
}
);
width = 499;
}
);
unicode = 290;
},
{
glyphname = Gdotaccent;
lastChange = "2023-06-21 13:56:06 +0000";
layers = (
{
background = {
anchors = (
{
name = bottom;
pos = (250,0);
},
{
name = top;
pos = (383,943);
}
);
shapes = (
{
closed = 1;
nodes = (
(271,-24,o),
(378,26,o),
(471,128,o),
(537,279,o),
(544,381,q),
(512,375,o),
(427,361,o),
(389,356,q),
(344,350,o),
(297,344,q),
(278,245,l),
(385,261,l),
(384,232,o),
(361,183,o),
(327,146,o),
(284,126,o),
(264,126,q),
(235,126,o),
(198,179,o),
(198,241,q),
(200,306,o),
(236,440,o),
(288,552,o),
(348,623,o),
(373,623,q),
(392,623,o),
(422,589,o),
(431,549,q),
(568,575,l),
(568,610,o),
(551,673,o),
(513,720,o),
(454,748,o),
(414,748,q),
(358,748,o),
(229,686,o),
(116,558,o),
(42,366,o),
(42,237,q),
(42,171,o),
(70,73,o),
(119,8,o),
(186,-24,o),
(223,-24,q)
);
},
{
closed = 1;
nodes = (
(394,768,o),
(434,784,o),
(462,811,o),
(475,844,o),
(475,861,q),
(475,893,o),
(428,943,o),
(379,943,q),
(356,943,o),
(322,927,o),
(300,902,o),
(289,870,o),
(289,854,q),
(289,820,o),
(329,768,o),
(369,768,q)
);
}
);
};
layerId = "A5922FF3-8C0B-4EAE-8A2D-3EBDCCE80B0C";
shapes = (
{
ref = G;
},
{
pos = (240,47);
ref = dotaccentcomb.case;
}
);
width = 499;
}
);
unicode = 288;
},
{
glyphname = H;
lastChange = "2023-06-21 13:56:06 +0000";
layers = (
{
anchors = (
{
name = bottom;
pos = (222,0);
},
{
name = center;
pos = (222,360);
},
{
name = top;
pos = (349,721);
},
{
name = topleft;
pos = (20,721);
}
);
background = {
anchors = (
{
name = bottom;
pos = (222,0);
},
{
name = center;
pos = (222,360);
},
{
name = top;
pos = (349,721);
},
{
name = topleft;
pos = (20,721);
}
);
shapes = (
{
closed = 1;
nodes = (
(163,30,l),
(174,84,o),
(185,138,q),
(193,183,o),
(212,283,o),
(219,321,q),
(316,330,l),
(310,293,o),
(289,189,o),
(279,141,q),
(269,84,o),
(256,24,q),
(412,42,l),
(431,175,o),
(453,302,q),
(462,355,o),
(484,473,o),
(508,588,o),
(533,695,o),
(547,740,q),
(547,740,o),
(514,737,o),
(466,733,o),
(410,728,o),
(387,724,q),
(369,653,o),
(347,520,o),
(333,449,q),
(234,438,l),
(248,510,o),
(281,662,o),
(298,732,q),
(136,721,l),
(129,675,o),
(111,564,o),
(91,446,o),
(69,325,o),
(60,269,q),
(35,136,o),
(9,-2,q)
);
}
);
};
layerId = "A5922FF3-8C0B-4EAE-8A2D-3EBDCCE80B0C";
shapes = (
{
closed = 1;
nodes = (
(163,30,l),
(170,66,o),
(178,102,o),
(185,138,cs),
(190,168,o),
(196,200,o),
(203,233,cs),
(209,266,o),
(214,296,o),
(219,321,c),
(316,330,l),
(308,281,o),
(292,205,o),
(279,141,cs),
(272,103,o),
(265,64,o),
(256,24,c),
(412,42,l),
(425,131,o),
(438,217,o),
(453,302,cs),
(476,438,o),
(513,632,o),
(547,740,c),
(547,740,o),
(458,736,o),
(387,724,c),
(375,677,o),
(365,631,o),
(358,587,cs),
(351,542,o),
(342,496,o),
(333,449,c),
(234,438,l),
(253,534,o),
(275,639,o),
(298,732,c),
(136,721,l),
(112,563,o),
(87,434,o),
(60,269,cs),
(43,180,o),
(26,90,o),
(9,-2,c)
);
}
);
width = 442;
}
);
unicode = 72;
},
{
glyphname = Hbar;
lastChange = "2023-06-21 13:56:06 +0000";
layers = (
{
anchors = (
{
name = bottom;
pos = (291,0);
},
{
name = center;
pos = (291,360);
},
{
name = top;
pos = (418,721);
},
{
name = topleft;
pos = (89,721);
}
);
background = {
anchors = (
{
name = bottom;
pos = (291,0);
},
{
name = center;
pos = (291,360);
},
{
name = top;
pos = (418,721);
},
{
name = topleft;
pos = (89,721);
}
);
shapes = (
{
closed = 1;
nodes = (
(655,657,l),
(117,598,l),
(97,489,l),
(640,547,l)
);
},
{
closed = 1;
nodes = (
(232,30,l),
(243,84,o),
(254,138,q),
(263,183,o),
(281,283,o),
(288,321,q),
(386,330,l),
(379,293,o),
(358,189,o),
(349,141,q),
(338,84,o),
(325,24,q),
(481,42,l),
(500,175,o),
(522,302,q),
(531,355,o),
(554,473,o),
(577,588,o),
(603,695,o),
(616,740,q),
(616,740,o),
(583,737,o),
(535,733,o),
(479,728,o),
(456,724,q),
(438,653,o),
(416,520,o),
(402,449,q),
(304,438,l),
(317,510,o),
(351,662,o),
(367,732,q),
(205,721,l),
(198,675,o),
(181,564,o),
(160,446,o),
(139,325,o),
(129,269,q),
(104,136,o),
(78,-2,q)
);
}
);
};
layerId = "A5922FF3-8C0B-4EAE-8A2D-3EBDCCE80B0C";
shapes = (
{
closed = 1;
nodes = (
(655,657,l),
(117,598,l),
(97,489,l),
(640,547,l)
);
},
{
closed = 1;
nodes = (
(232,30,l),
(239,66,o),
(247,102,o),
(254,138,cs),
(260,168,o),
(266,200,o),
(272,233,cs),
(278,266,o),
(283,296,o),
(288,321,c),
(386,330,l),
(381,305,o),
(376,276,o),
(369,241,cs),
(362,206,o),
(355,173,o),
(349,141,cs),
(342,103,o),
(334,64,o),
(325,24,c),
(481,42,l),
(494,131,o),
(507,217,o),
(522,302,cs),
(544,431,o),
(580,615,o),
(616,740,c),
(616,740,o),
(527,736,o),
(456,724,c),
(444,677,o),
(434,631,o),
(427,587,cs),
(420,542,o),
(411,496,o),
(402,449,c),
(304,438,l),
(321,534,o),
(346,639,o),
(367,732,c),
(205,721,l),
(182,571,o),
(160,440,o),
(129,269,cs),
(112,180,o),
(95,90,o),
(78,-2,c)
);
}
);
width = 577;
}
);
unicode = 294;
},
{
glyphname = Hcircumflex;
lastChange = "2023-06-21 13:56:06 +0000";
layers = (
{
background = {
anchors = (
{
name = bottom;
pos = (222,0);
},
{
name = center;
pos = (222,360);
},
{
name = top;
pos = (394,1016);
},
{
name = topleft;
pos = (20,721);
}
);
shapes = (
{
closed = 1;
nodes = (
(163,30,l),
(174,84,o),
(185,138,q),
(193,183,o),
(212,283,o),
(219,321,q),
(316,330,l),
(310,293,o),
(289,189,o),
(279,141,q),
(269,84,o),
(256,24,q),
(412,42,l),
(431,175,o),
(453,302,q),
(462,355,o),
(484,473,o),
(508,588,o),
(533,695,o),
(547,740,q),
(547,740,o),
(514,737,o),
(466,733,o),
(410,728,o),
(387,724,q),
(369,653,o),
(347,520,o),
(333,449,q),
(234,438,l),
(248,510,o),
(281,662,o),
(298,732,q),
(136,721,l),
(129,675,o),
(111,564,o),
(91,446,o),
(69,325,o),
(60,269,q),
(35,136,o),
(9,-2,q)
);
},
{
closed = 1;
nodes = (
(290,761,o),
(320,793,o),
(350,827,o),
(380,859,o),
(391,869,q),
(452,751,l),
(464,760,o),
(490,779,o),
(500,788,q),
(512,798,o),
(524,808,q),
(513,845,o),
(502,882,q),
(493,913,o),
(474,983,o),
(466,1010,q),
(464,1012,o),
(433,1010,o),
(394,1016,q),
(368,990,o),
(309,918,o),
(284,885,q),
(254,846,o),
(226,805,q),
(232,797,o),
(241,788,q),
(247,780,o),
(267,761,o),
(280,750,q)
);
}
);
};
layerId = "A5922FF3-8C0B-4EAE-8A2D-3EBDCCE80B0C";
shapes = (
{
ref = H;
},
{
pos = (139,133);
ref = circumflexcomb.case;
}
);
width = 442;
}
);
unicode = 292;
},
{
glyphname = I;
lastChange = "2023-06-21 13:56:28 +0000";
layers = (
{
anchors = (
{
name = bottom;
pos = (101,0);
},
{
name = ogonek;
pos = (186,10);
},
{
name = top;
pos = (232,720);
},
{
name = topleft;
pos = (20,721);
}
);
background = {
anchors = (
{
name = bottom;
pos = (101,0);
},
{
name = ogonek;
pos = (186,10);
},
{
name = top;
pos = (271,721);
},
{
name = topleft;
pos = (20,721);
}
);
shapes = (
{
closed = 1;
nodes = (
(-4,2,o),
(41,8,o),
(97,15,o),
(149,20,o),
(158,20,q),
(166,64,o),
(187,173,o),
(208,289,o),
(231,407,o),
(242,462,q),
(268,591,o),
(294,725,q),
(138,700,l),
(114,565,o),
(89,437,q),
(78,382,o),
(55,264,o),
(30,149,o),
(6,44,o),
(-6,1,q)
);
}
);
};
layerId = "A5922FF3-8C0B-4EAE-8A2D-3EBDCCE80B0C";
shapes = (
{
closed = 1;
nodes = (
(-3,3,o),
(109,20,o),
(158,20,c),
(182,150,o),
(214,321,o),
(242,462,cs),
(259,548,o),
(277,636,o),
(294,725,c),
(138,700,l),
(122,610,o),
(106,522,o),
(89,437,cs),
(61,297,o),
(27,119,o),
(-6,1,c)
);
}
);
width = 200;
}
);
unicode = 73;
},
{
glyphname = IJ;
lastChange = "2023-06-21 13:56:06 +0000";
layers = (
{
background = {
anchors = (
{
name = bottom;
pos = (335,0);
},
{
name = ogonek;
pos = (186,10);
},
{
name = top;
pos = (516,721);
},
{
name = topleft;
pos = (20,721);
}
);
shapes = (
{
closed = 1;
nodes = (
(-4,2,o),
(41,8,o),
(97,15,o),
(149,20,o),
(158,20,q),
(166,64,o),
(187,173,o),
(208,289,o),
(231,407,o),
(242,462,q),
(268,591,o),
(294,725,q),
(138,700,l),
(114,565,o),
(89,437,q),
(78,382,o),
(55,264,o),
(30,149,o),
(6,44,o),
(-6,1,q)
);
},
{
closed = 1;
nodes = (
(342,-1,o),
(403,50,o),
(446,127,o),
(472,222,o),
(481,266,q),
(491,318,o),
(518,449,o),
(548,585,o),
(580,715,o),
(595,766,q),
(551,754,o),
(464,737,o),
(419,733,q),
(396,637,o),
(362,444,o),
(343,347,q),
(341,330,o),
(333,274,o),
(319,221,o),
(300,181,o),
(288,181,q),
(271,181,o),
(242,196,o),
(237,206,q),
(168,52,l),
(207,23,o),
(272,-1,o),
(300,-1,q)
);
}
);
};
layerId = "A5922FF3-8C0B-4EAE-8A2D-3EBDCCE80B0C";
shapes = (
{
ref = I;
},
{
pos = (195,0);
ref = J;
}
);
width = 474;
}
);
unicode = 306;
},
{
glyphname = Iacute;
lastChange = "2023-06-21 13:56:28 +0000";
layers = (
{
background = {
anchors = (
{
name = bottom;
pos = (101,0);
},
{
name = ogonek;
pos = (186,10);
},
{
name = top;
pos = (320,1089);
},
{
name = topleft;
pos = (20,721);
}
);
shapes = (
{
closed = 1;
nodes = (
(-4,2,o),
(41,8,o),
(97,15,o),
(149,20,o),
(158,20,q),
(166,64,o),
(187,173,o),
(208,289,o),
(231,407,o),
(242,462,q),
(268,591,o),
(294,725,q),
(138,700,l),
(114,565,o),
(89,437,q),
(78,382,o),
(55,264,o),
(30,149,o),
(6,44,o),
(-6,1,q)
);
},
{
closed = 1;
nodes = (
(252,772,o),
(388,821,o),
(447,845,q),
(439,906,o),
(438,1022,o),
(433,1089,q),
(381,1032,o),
(261,924,o),
(193,855,q),
(193,837,o),
(192,804,o),
(192,788,q),
(192,779,o),
(192,761,o),
(193,750,q)
);
}
);
};
layerId = "A5922FF3-8C0B-4EAE-8A2D-3EBDCCE80B0C";
shapes = (
{
ref = I;
},
{
pos = (71,199);
ref = acutecomb.case;
}
);
width = 200;
}
);
unicode = 205;
},
{
glyphname = Ibreve;
lastChange = "2023-06-21 13:56:28 +0000";
layers = (
{
background = {
anchors = (
{
name = bottom;
pos = (101,0);
},
{
name = ogonek;
pos = (186,10);
},
{
name = top;
pos = (327,1009);
},
{
name = topleft;
pos = (20,721);
}
);
shapes = (
{
closed = 1;
nodes = (
(-4,2,o),
(41,8,o),
(97,15,o),
(149,20,o),
(158,20,q),
(166,64,o),
(187,173,o),
(208,289,o),
(231,407,o),
(242,462,q),
(268,591,o),
(294,725,q),
(138,700,l),
(114,565,o),
(89,437,q),
(78,382,o),
(55,264,o),
(30,149,o),
(6,44,o),
(-6,1,q)
);
},
{
closed = 1;
nodes = (
(391,816,o),
(449,910,o),
(460,964,q),
(444,980,ls),
(436,988,o),
(416,1005,o),
(403,1016,q),
(383,975,o),
(357,927,o),
(324,898,o),
(292,898,q),
(254,898,o),
(229,957,o),
(231,1006,c),
(218,996,o),
(195,975,o),
(184,966,q),
(172,955,o),
(162,946,q),
(158,882,o),
(229,770,o),
(284,770,qs),
(326,770,o)
);
}
);
};
layerId = "A5922FF3-8C0B-4EAE-8A2D-3EBDCCE80B0C";
shapes = (
{
ref = I;
},
{
pos = (70,116);
ref = brevecomb.case;
}
);
width = 200;
}
);
unicode = 300;
},
{
glyphname = Icircumflex;
lastChange = "2023-06-21 13:56:28 +0000";
layers = (
{
background = {
anchors = (
{
name = bottom;
pos = (101,0);
},
{
name = ogonek;
pos = (186,10);
},
{
name = top;
pos = (316,1016);
},
{
name = topleft;
pos = (20,721);
}
);
shapes = (
{
closed = 1;
nodes = (
(-4,2,o),
(41,8,o),
(97,15,o),
(149,20,o),
(158,20,q),
(166,64,o),
(187,173,o),
(208,289,o),
(231,407,o),
(242,462,q),
(268,591,o),
(294,725,q),
(138,700,l),
(114,565,o),
(89,437,q),
(78,382,o),
(55,264,o),
(30,149,o),
(6,44,o),
(-6,1,q)
);
},
{
closed = 1;
nodes = (
(212,761,o),
(242,793,o),
(272,827,o),
(302,859,o),
(313,869,q),
(374,751,l),
(386,760,o),
(412,779,o),
(422,788,q),
(434,798,o),
(446,808,q),
(435,845,o),
(424,882,q),
(415,913,o),
(396,983,o),
(388,1010,q),
(386,1012,o),
(355,1010,o),
(316,1016,q),
(290,990,o),
(231,918,o),
(206,885,q),
(176,846,o),
(148,805,q),
(154,797,o),
(163,788,q),
(169,780,o),
(189,761,o),
(202,750,q)
);
}
);
};
layerId = "A5922FF3-8C0B-4EAE-8A2D-3EBDCCE80B0C";
shapes = (
{
ref = I;
},
{
pos = (22,132);
ref = circumflexcomb.case;
}
);
width = 200;
}
);
unicode = 206;
},
{
glyphname = Idblgrave;
lastChange = "2023-06-21 13:56:28 +0000";
layers = (
{
background = {
anchors = (
{
name = bottom;
pos = (101,0);
},
{
name = ogonek;
pos = (186,10);
},
{
name = top;
pos = (257,991);
},
{
name = topleft;
pos = (20,721);
}
);
shapes = (
{
closed = 1;
nodes = (
(-4,2,o),
(41,8,o),
(97,15,o),
(149,20,o),
(158,20,q),
(166,64,o),
(187,173,o),
(208,289,o),
(231,407,o),
(242,462,q),
(268,591,o),
(294,725,q),
(138,700,l),
(114,565,o),
(89,437,q),
(78,382,o),
(55,264,o),
(30,149,o),
(6,44,o),
(-6,1,q)
);
},
{
closed = 1;
nodes = (
(243,813,l),
(215,845,o),
(140,925,o),
(107,960,q),
(68,1000,o),
(29,1042,q),
(20,994,o),
(11,948,q),
(4,909,o),
(-12,826,o),
(-18,797,q),
(11,788,o),
(97,765,o),
(138,756,q),
(185,744,o),
(236,732,q)
);
},
{
closed = 1;
nodes = (
(532,788,l),
(504,820,o),
(429,900,o),
(396,935,q),
(357,975,o),
(318,1017,q),
(309,969,o),
(300,923,q),
(293,884,o),
(277,801,o),
(271,772,q),
(300,763,o),
(386,740,o),
(427,731,q),
(474,719,o),
(525,707,q)
);
}
);
};
layerId = "A5922FF3-8C0B-4EAE-8A2D-3EBDCCE80B0C";
shapes = (
{
ref = I;
},
{
pos = (-106,101);
ref = dblgravecomb.case;
}
);
width = 200;
}
);
unicode = 520;
},
{
glyphname = Idieresis;
lastChange = "2023-06-21 13:56:28 +0000";
layers = (
{
background = {
anchors = (
{
name = bottom;
pos = (101,0);
},
{
name = ogonek;
pos = (186,10);
},
{
name = top;
pos = (271,989);
},
{
name = topleft;
pos = (20,721);
}
);
shapes = (
{
closed = 1;
nodes = (
(-4,2,o),
(41,8,o),
(97,15,o),
(149,20,o),
(158,20,q),
(166,64,o),
(187,173,o),
(208,289,o),
(231,407,o),
(242,462,q),
(268,591,o),
(294,725,q),
(138,700,l),
(114,565,o),
(89,437,q),
(78,382,o),
(55,264,o),
(30,149,o),
(6,44,o),
(-6,1,q)
);
},
{
closed = 1;
nodes = (
(400,814,o),
(439,831,o),
(466,857,o),
(480,890,o),
(480,908,q),
(480,939,o),
(432,989,o),
(384,989,q),
(361,989,o),
(326,973,o),
(304,949,o),
(293,917,o),
(293,900,q),
(293,867,o),
(333,814,o),
(373,814,q)
);
},
{
closed = 1;
nodes = (
(166,814,o),
(206,831,o),
(234,857,o),
(247,890,o),
(247,908,q),
(247,939,o),
(200,989,o),
(151,989,q),
(128,989,o),
(94,973,o),
(72,949,o),
(61,917,o),
(61,900,q),
(61,867,o),
(101,814,o),
(141,814,q)
);
}
);
};
layerId = "A5922FF3-8C0B-4EAE-8A2D-3EBDCCE80B0C";
shapes = (
{
ref = I;
},
{
pos = (-27,105);
ref = dieresiscomb.case;
}
);
width = 200;
}
);
unicode = 207;
},
{
glyphname = Idotaccent;
lastChange = "2023-06-21 13:56:28 +0000";
layers = (
{
background = {
anchors = (
{
name = bottom;
pos = (101,0);
},
{
name = ogonek;
pos = (186,10);
},
{
name = top;
pos = (275,943);
},
{
name = topleft;
pos = (20,721);
}
);
shapes = (
{
closed = 1;
nodes = (
(-4,2,o),
(41,8,o),
(97,15,o),
(149,20,o),
(158,20,q),
(166,64,o),
(187,173,o),
(208,289,o),
(231,407,o),
(242,462,q),
(268,591,o),
(294,725,q),
(138,700,l),
(114,565,o),
(89,437,q),
(78,382,o),
(55,264,o),
(30,149,o),
(6,44,o),
(-6,1,q)
);
},
{
closed = 1;
nodes = (
(286,768,o),
(326,784,o),
(354,811,o),
(367,844,o),
(367,861,q),
(367,893,o),
(320,943,o),
(271,943,q),
(248,943,o),
(214,927,o),
(192,902,o),
(181,870,o),
(181,854,q),
(181,820,o),
(221,768,o),
(261,768,q)
);
}
);
};
layerId = "A5922FF3-8C0B-4EAE-8A2D-3EBDCCE80B0C";
shapes = (
{
ref = I;
},
{
pos = (93,46);
ref = dotaccentcomb.case;
}
);
width = 200;
}
);
unicode = 304;
},
{
glyphname = Idotbelow;
lastChange = "2023-06-21 13:56:06 +0000";
layers = (
{
background = {
anchors = (
{
name = bottom;
pos = (101,-206);
},
{
name = ogonek;
pos = (186,10);
},
{
name = top;
pos = (271,721);
},
{
name = topleft;
pos = (20,721);
}
);
shapes = (
{
closed = 1;
nodes = (
(-4,2,o),
(41,8,o),
(97,15,o),
(149,20,o),
(158,20,q),
(166,64,o),
(187,173,o),
(208,289,o),
(231,407,o),
(242,462,q),
(268,591,o),
(294,725,q),
(138,700,l),
(114,565,o),
(89,437,q),
(78,382,o),
(55,264,o),
(30,149,o),
(6,44,o),
(-6,1,q)
);
},
{
closed = 1;
nodes = (
(112,-205,o),
(152,-189,o),
(180,-162,o),
(193,-129,o),
(193,-112,q),
(193,-80,o),
(146,-30,o),
(97,-30,q),
(74,-30,o),
(40,-46,o),
(18,-71,o),
(7,-103,o),
(7,-119,q),
(7,-153,o),
(47,-205,o),
(87,-205,q)
);
}
);
};
layerId = "A5922FF3-8C0B-4EAE-8A2D-3EBDCCE80B0C";
shapes = (
{
ref = I;
},
{
pos = (-42,-28);
ref = dotbelowcomb.case;
}
);
width = 200;
}
);
unicode = 7882;
},
{
glyphname = Igrave;
lastChange = "2023-06-21 13:56:28 +0000";
layers = (
{
background = {
anchors = (
{
name = bottom;
pos = (101,0);
},
{
name = ogonek;
pos = (186,10);
},
{
name = top;
pos = (187,1062);
},
{
name = topleft;
pos = (20,721);
}
);
shapes = (
{
closed = 1;
nodes = (
(-4,2,o),
(41,8,o),
(97,15,o),
(149,20,o),
(158,20,q),
(166,64,o),
(187,173,o),
(208,289,o),
(231,407,o),
(242,462,q),
(268,591,o),
(294,725,q),
(138,700,l),
(114,565,o),
(89,437,q),
(78,382,o),
(55,264,o),
(30,149,o),
(6,44,o),
(-6,1,q)
);
},
{
closed = 1;
nodes = (
(317,833,l),
(289,865,o),
(214,945,o),
(181,980,q),
(142,1020,o),
(103,1062,q),
(94,1014,o),
(85,968,q),
(78,929,o),
(62,846,o),
(56,817,q),
(85,808,o),
(171,785,o),
(212,776,q),
(259,764,o),
(310,752,q)
);
}
);
};
layerId = "A5922FF3-8C0B-4EAE-8A2D-3EBDCCE80B0C";
shapes = (
{
ref = I;
},
{
pos = (-59,172);
ref = gravecomb.case;
}
);
width = 200;
}
);
unicode = 204;
},
{
glyphname = Ihookabove;
lastChange = "2023-06-21 13:56:47 +0000";
layers = (
{
background = {
anchors = (
{
name = bottom;
pos = (101,0);
},
{
name = ogonek;
pos = (186,10);
},
{
name = top;
pos = (321,929);
},
{
name = topleft;
pos = (20,721);
}
);
shapes = (
{
closed = 1;
nodes = (
(-4,2,o),
(41,8,o),
(97,15,o),
(149,20,o),
(158,20,q),
(166,64,o),
(187,173,o),
(208,289,o),
(231,407,o),
(242,462,q),
(268,591,o),
(294,725,q),
(138,700,l),
(114,565,o),
(89,437,q),
(78,382,o),
(55,264,o),
(30,149,o),
(6,44,o),
(-6,1,q)
);
},
{
closed = 1;
nodes = (
(302,747,l),
(321,749,l),
(325,761,o),
(338,780,o),
(356,795,o),
(376,809,o),
(391,826,o),
(401,848,o),
(401,865,q),
(398,894,o),
(380,915,o),
(366,924,o),
(340,929,o),
(330,929,q),
(308,929,o),
(265,912,o),
(241,893,q),
(257,834,l),
(267,842,o),
(286,856,o),
(303,866,o),
(310,866,q),
(315,866,o),
(321,859,o),
(321,857,q),
(321,852,o),
(311,841,o),
(296,828,o),
(279,811,o),
(263,790,o),
(254,762,o),
(254,745,q)
);
}
);
};
layerId = "A5922FF3-8C0B-4EAE-8A2D-3EBDCCE80B0C";
shapes = (
{
ref = I;
},
{
pos = (142,107);
ref = hookabovecomb.case;
}
);
width = 200;
}
);
unicode = 7880;
},
{
glyphname = Iinvertedbreve;
lastChange = "2023-06-21 13:56:28 +0000";
layers = (
{
background = {
anchors = (
{
name = bottom;
pos = (101,0);
},
{
name = ogonek;
pos = (186,10);
},
{
name = top;
pos = (271,996);
},
{
name = topleft;
pos = (20,721);
}
);
shapes = (
{
closed = 1;
nodes = (
(-4,2,o),
(41,8,o),
(97,15,o),
(149,20,o),
(158,20,q),
(166,64,o),
(187,173,o),
(208,289,o),
(231,407,o),
(242,462,q),
(268,591,o),
(294,725,q),
(138,700,l),
(114,565,o),
(89,437,q),
(78,382,o),
(55,264,o),
(30,149,o),
(6,44,o),
(-6,1,q)
);
},
{
closed = 1;
nodes = (
(189,931,o),
(131,837,o),
(120,783,q),
(136,767,ls),
(144,759,o),
(164,742,o),
(177,731,q),
(197,772,o),
(223,820,o),
(256,849,o),
(288,849,q),
(326,849,o),
(351,790,o),
(349,741,c),
(362,751,o),
(385,772,o),
(396,781,q),
(408,792,o),
(418,801,q),
(422,865,o),
(351,977,o),
(296,977,qs),
(254,977,o)
);
}
);
};
layerId = "A5922FF3-8C0B-4EAE-8A2D-3EBDCCE80B0C";
shapes = (
{
ref = I;
},
{
pos = (33,115);
ref = breveinvertedcomb.case;
}
);
width = 200;
}
);
unicode = 522;
},
{
glyphname = Imacron;
lastChange = "2023-06-21 13:56:28 +0000";
layers = (
{
background = {
anchors = (
{
name = bottom;
pos = (101,0);
},
{
name = ogonek;
pos = (186,10);
},
{
name = top;
pos = (271,954);
},
{
name = topleft;
pos = (20,721);
}
);
shapes = (
{
closed = 1;
nodes = (
(-4,2,o),
(41,8,o),
(97,15,o),
(149,20,o),
(158,20,q),
(166,64,o),
(187,173,o),
(208,289,o),
(231,407,o),
(242,462,q),
(268,591,o),
(294,725,q),
(138,700,l),
(114,565,o),
(89,437,q),
(78,382,o),
(55,264,o),
(30,149,o),
(6,44,o),
(-6,1,q)
);
},
{
closed = 1;
nodes = (
(102,767,o),
(157,772,o),
(219,777,o),
(284,781,o),
(315,783,q),
(387,787,o),
(466,792,q),
(450,954,l),
(76,922,l),
(75,914,o),
(75,904,q),
(75,864,l),
(75,838,o),
(77,782,o),
(82,765,q)
);
}
);
};
layerId = "A5922FF3-8C0B-4EAE-8A2D-3EBDCCE80B0C";
shapes = (
{
ref = I;
},
{
pos = (-13,70);
ref = macroncomb.case;
}
);
width = 200;
}
);
unicode = 298;
},
{
glyphname = Iogonek;
lastChange = "2023-06-21 13:56:06 +0000";
layers = (
{
background = {
anchors = (
{
name = bottom;
pos = (101,0);
},
{
name = ogonek;
pos = (186,10);
},
{
name = top;
pos = (271,721);
},
{
name = topleft;
pos = (20,721);
}
);
shapes = (
{
closed = 1;
nodes = (
(-4,2,o),
(41,8,o),
(97,15,o),
(149,20,o),
(158,20,q),
(166,64,o),
(187,173,o),
(208,289,o),
(231,407,o),
(242,462,q),
(268,591,o),
(294,725,q),
(138,700,l),
(114,565,o),
(89,437,q),
(78,382,o),
(55,264,o),
(30,149,o),
(6,44,o),
(-6,1,q)
);
},
{
closed = 1;
nodes = (
(172,-134,o),
(217,-116,o),
(233,-97,q),
(213,-9,l),
(188,-37,o),
(160,-37,q),
(139,-37,o),
(110,-5,o),
(110,20,q),
(110,32,o),
(114,50,q),
(97,48,o),
(73,44,o),
(55,41,o),
(54,41,q),
(14,2,o),
(14,-37,q),
(14,-58,o),
(34,-93,o),
(70,-119,o),
(119,-134,o),
(149,-134,q)
);
}
);
};
layerId = "A5922FF3-8C0B-4EAE-8A2D-3EBDCCE80B0C";
shapes = (
{
ref = I;
},
{
pos = (-35,31);
ref = ogonekcomb.case;
}
);
width = 200;
}
);
unicode = 302;
},
{
glyphname = Itilde;
lastChange = "2023-06-21 13:56:28 +0000";
layers = (
{
background = {
anchors = (
{
name = bottom;
pos = (101,0);
},
{
name = ogonek;
pos = (186,10);
},
{
name = top;
pos = (318,992);
},
{
name = topleft;
pos = (20,721);
}
);
shapes = (
{
closed = 1;
nodes = (
(-4,2,o),
(41,8,o),
(97,15,o),
(149,20,o),
(158,20,q),
(166,64,o),
(187,173,o),
(208,289,o),
(231,407,o),
(242,462,q),
(268,591,o),
(294,725,q),
(138,700,l),
(114,565,o),
(89,437,q),
(78,382,o),
(55,264,o),
(30,149,o),
(6,44,o),
(-6,1,q)
);
},
{
closed = 1;
nodes = (
(162,776,o),
(186,802,o),
(211,826,o),
(239,843,o),
(254,843,q),
(275,843,o),
(296,822,o),
(316,796,o),
(341,775,o),
(365,775,q),
(385,775,o),
(420,790,o),
(452,814,o),
(480,844,o),
(491,861,q),
(518,899,o),
(539,948,q),
(533,955,o),
(525,961,q),
(517,967,o),
(497,983,o),
(485,992,q),
(475,983,o),
(451,953,o),
(425,923,o),
(397,902,o),
(382,902,q),
(377,902,o),
(360,928,o),
(332,960,o),
(295,988,o),
(271,988,q),
(245,988,o),
(201,961,o),
(163,922,o),
(132,876,o),
(110,837,o),
(98,811,o),
(98,811,q),
(104,804,o),
(120,792,o),
(139,776,o),
(152,767,q)
);
}
);
};
layerId = "A5922FF3-8C0B-4EAE-8A2D-3EBDCCE80B0C";
shapes = (
{
ref = I;
},
{
pos = (50,104);
ref = tildecomb.case;
}
);
width = 200;
}
);
unicode = 296;
},
{
glyphname = J;
lastChange = "2023-06-21 13:56:06 +0000";
layers = (
{
anchors = (
{
name = bottom;
pos = (140,0);
},
{
name = top;
pos = (321,721);
}
);
background = {
anchors = (
{
name = bottom;
pos = (140,0);
},
{
name = top;
pos = (321,721);
}
);
shapes = (
{
closed = 1;
nodes = (
(147,-1,o),
(208,50,o),
(251,127,o),
(277,222,o),
(286,266,q),
(296,318,o),
(323,449,o),
(353,585,o),
(385,715,o),
(400,766,q),
(356,754,o),
(269,737,o),
(224,733,q),
(201,637,o),
(167,444,o),
(148,347,q),
(146,330,o),
(138,274,o),
(124,221,o),
(105,181,o),
(93,181,q),
(76,181,o),
(47,196,o),
(42,206,q),
(-27,52,l),
(12,23,o),
(77,-1,o),
(105,-1,q)
);
}
);
};
layerId = "A5922FF3-8C0B-4EAE-8A2D-3EBDCCE80B0C";
shapes = (
{
closed = 1;
nodes = (
(220,-1,o),
(263,154,o),
(286,266,cs),
(313,405,o),
(360,630,o),
(400,766,c),
(341,750,o),
(284,738,o),
(224,733,c),
(209,669,o),
(195,605,o),
(184,541,cs),
(173,476,o),
(161,412,o),
(148,347,c),
(145,318,o),
(128,181,o),
(93,181,cs),
(70,181,o),
(49,193,o),
(42,206,c),
(-27,52,l),
(25,13,o),
(68,-1,o),
(105,-1,cs)
);
}
);
width = 279;
}
);
unicode = 74;
},
{
glyphname = Jcircumflex;
lastChange = "2023-06-21 13:56:06 +0000";
layers = (
{
background = {
anchors = (
{
name = bottom;
pos = (140,0);
},
{
name = top;
pos = (366,1016);
}
);
shapes = (
{
closed = 1;
nodes = (
(147,-1,o),
(208,50,o),
(251,127,o),
(277,222,o),
(286,266,q),
(296,318,o),
(323,449,o),
(353,585,o),
(385,715,o),
(400,766,q),
(356,754,o),
(269,737,o),
(224,733,q),
(201,637,o),
(167,444,o),
(148,347,q),
(146,330,o),
(138,274,o),
(124,221,o),
(105,181,o),
(93,181,q),
(76,181,o),
(47,196,o),
(42,206,q),
(-27,52,l),
(12,23,o),
(77,-1,o),
(105,-1,q)
);
},
{
closed = 1;
nodes = (
(262,761,o),
(292,793,o),
(322,827,o),
(352,859,o),
(363,869,q),
(424,751,l),
(436,760,o),
(462,779,o),
(472,788,q),
(484,798,o),
(496,808,q),
(485,845,o),
(474,882,q),
(465,913,o),
(446,983,o),
(438,1010,q),
(436,1012,o),
(405,1010,o),
(366,1016,q),
(340,990,o),
(281,918,o),
(256,885,q),
(226,846,o),
(198,805,q),
(204,797,o),
(213,788,q),
(219,780,o),
(239,761,o),
(252,750,q)
);
}
);
};
layerId = "A5922FF3-8C0B-4EAE-8A2D-3EBDCCE80B0C";
shapes = (
{
ref = J;
},
{
pos = (111,133);
ref = circumflexcomb.case;
}
);
width = 279;
}
);
unicode = 308;
},
{
glyphname = K;
lastChange = "2023-06-21 13:56:06 +0000";
layers = (
{
anchors = (
{
name = bottom;
pos = (231,0);
},
{
name = top;
pos = (360,721);
}
);
background = {
anchors = (
{
name = bottom;
pos = (231,0);
},
{
name = top;
pos = (360,721);
}
);
shapes = (
{
closed = 1;
nodes = (
(169,23,l),
(179,74,o),
(188,122,q),
(196,163,o),
(213,251,o),
(220,281,q),
(238,302,l),
(247,237,o),
(268,94,o),
(277,29,q),
(306,30,o),
(360,31,o),
(389,31,q),
(412,31,o),
(460,30,o),
(483,29,q),
(452,127,o),
(392,315,o),
(370,416,q),
(383,437,o),
(416,487,o),
(454,541,o),
(493,597,o),
(512,623,q),
(556,684,o),
(603,747,q),
(553,739,o),
(453,729,o),
(403,725,q),
(390,704,o),
(352,645,o),
(312,581,o),
(275,524,o),
(265,508,q),
(259,507,l),
(269,562,o),
(277,606,q),
(281,625,o),
(288,663,o),
(294,694,o),
(298,716,o),
(299,720,q),
(269,720,o),
(239,722,q),
(214,724,o),
(156,727,o),
(133,729,q),
(129,683,o),
(114,570,o),
(95,450,o),
(73,328,o),
(63,271,q),
(37,139,o),
(7,-1,q)
);
}
);
};
layerId = "A5922FF3-8C0B-4EAE-8A2D-3EBDCCE80B0C";
shapes = (
{
closed = 1;
nodes = (
(169,23,l),
(176,57,o),
(182,90,o),
(188,122,cs),
(193,149,o),
(199,178,o),
(205,207,cs),
(210,236,o),
(215,261,o),
(220,281,c),
(238,302,l),
(244,259,o),
(251,213,o),
(258,166,cs),
(265,118,o),
(271,72,o),
(277,29,c),
(316,30,o),
(350,31,o),
(389,31,cs),
(420,31,o),
(452,30,o),
(483,29,c),
(462,94,o),
(442,158,o),
(422,221,cs),
(402,284,o),
(385,349,o),
(370,416,c),
(402,468,o),
(465,559,o),
(512,623,cs),
(541,664,o),
(572,705,o),
(603,747,c),
(536,736,o),
(470,730,o),
(403,725,c),
(359,653,o),
(303,568,o),
(265,508,c),
(259,507,l),
(277,606,ls),
(281,624,o),
(295,704,o),
(299,720,c),
(279,720,o),
(259,721,o),
(239,722,cs),
(222,723,o),
(204,725,o),
(185,726,cs),
(133,729,l),
(121,588,o),
(91,430,o),
(63,271,cs),
(46,183,o),
(27,92,o),
(7,-1,c)
);
}
);
width = 462;
}
);
unicode = 75;
},
{
glyphname = Kcommaaccent;
lastChange = "2023-06-21 13:56:06 +0000";
layers = (
{
background = {
anchors = (
{
name = bottom;
pos = (189,-426);
},
{
name = top;
pos = (360,721);
}
);
shapes = (
{
closed = 1;
nodes = (
(169,23,l),
(179,74,o),
(188,122,q),
(196,163,o),
(213,251,o),
(220,281,q),
(238,302,l),
(247,237,o),
(268,94,o),
(277,29,q),
(306,30,o),
(360,31,o),
(389,31,q),
(412,31,o),
(460,30,o),
(483,29,q),
(452,127,o),
(392,315,o),
(370,416,q),
(383,437,o),
(416,487,o),
(454,541,o),
(493,597,o),
(512,623,q),
(556,684,o),
(603,747,q),
(553,739,o),
(453,729,o),
(403,725,q),
(390,704,o),
(352,645,o),
(312,581,o),
(275,524,o),
(265,508,q),
(259,507,l),
(269,562,o),
(277,606,q),
(281,625,o),
(288,663,o),
(294,694,o),
(298,716,o),
(299,720,q),
(269,720,o),
(239,722,q),
(214,724,o),
(156,727,o),
(133,729,q),
(129,683,o),
(114,570,o),
(95,450,o),
(73,328,o),
(63,271,q),
(37,139,o),
(7,-1,q)
);
},
{
closed = 1;
nodes = (
(226,-356,l),
(243,-301,o),
(273,-201,o),
(300,-100,o),
(308,-63,q),
(283,-64,o),
(238,-66,o),
(193,-66,o),
(179,-66,q),
(170,-66,o),
(135,-65,o),
(127,-65,q),
(124,-90,o),
(111,-156,o),
(95,-233,o),
(77,-316,o),
(69,-356,q)
);
}
);
};
layerId = "A5922FF3-8C0B-4EAE-8A2D-3EBDCCE80B0C";
shapes = (
{
ref = K;
},
{
pos = (103,-245);
ref = commaaccentcomb.case;
}
);
width = 462;
}
);
unicode = 310;
},
{
glyphname = L;
lastChange = "2023-06-21 14:56:48 +0000";
layers = (
{
anchors = (
{
name = bottom;
pos = (151,0);
},
{
name = center;
pos = (151,360);
},
{
name = top;
pos = (244,721);
},
{
name = topright;
pos = (325,438);
}
);
background = {
anchors = (
{
name = bottom;
pos = (151,0);
},
{
name = center;
pos = (151,360);
},
{
name = top;
pos = (244,721);
},
{
name = topright;
pos = (282,721);
}
);
shapes = (
{
closed = 1;
nodes = (
(39,7,o),
(106,20,o),
(176,28,o),
(245,32,o),
(276,32,q),
(284,32,o),
(299,31,o),
(307,31,q),
(306,35,o),
(303,58,o),
(298,88,o),
(294,125,o),
(293,144,q),
(271,144,o),
(214,143,o),
(189,141,q),
(194,176,o),
(210,266,o),
(230,362,o),
(252,463,o),
(263,510,q),
(288,620,o),
(315,736,q),
(140,713,l),
(112,577,o),
(87,446,q),
(76,391,o),
(55,271,o),
(34,153,o),
(18,43,o),
(12,-2,q)
);
}
);
};
layerId = "A5922FF3-8C0B-4EAE-8A2D-3EBDCCE80B0C";
shapes = (
{
closed = 1;
nodes = (
(86,23,o),
(198,32,o),
(276,32,cs),
(292,32,l),
(297,31,o),
(302,31,o),
(307,31,c),
(306,35,o),
(295,98,o),
(293,144,c),
(264,144,o),
(222,144,o),
(189,141,c),
(203,238,o),
(235,391,o),
(263,510,cs),
(315,736,l),
(140,713,l),
(121,622,o),
(104,533,o),
(87,446,cs),
(63,326,o),
(33,155,o),
(12,-2,c)
);
}
);
width = 302;
}
);
unicode = 76;
},
{
glyphname = LJ;
lastChange = "2023-06-21 13:56:06 +0000";
layers = (
{
background = {
anchors = (
{
name = bottom;
pos = (442,0);
},
{
name = center;
pos = (151,360);
},
{
name = top;
pos = (623,721);
},
{
name = topright;
pos = (282,721);
}
);
shapes = (
{
closed = 1;
nodes = (
(39,7,o),
(106,20,o),
(176,28,o),
(245,32,o),
(276,32,q),
(284,32,o),
(299,31,o),
(307,31,q),
(306,35,o),
(303,58,o),
(298,88,o),
(294,125,o),
(293,144,q),
(271,144,o),
(214,143,o),
(189,141,q),
(194,176,o),
(210,266,o),
(230,362,o),
(252,463,o),
(263,510,q),
(288,620,o),
(315,736,q),
(140,713,l),
(112,577,o),
(87,446,q),
(76,391,o),
(55,271,o),
(34,153,o),
(18,43,o),
(12,-2,q)
);
},
{
closed = 1;
nodes = (
(449,-1,o),
(510,50,o),
(553,127,o),
(579,222,o),
(588,266,q),
(598,318,o),
(625,449,o),
(655,585,o),
(687,715,o),
(702,766,q),
(658,754,o),
(571,737,o),
(526,733,q),
(503,637,o),
(469,444,o),
(450,347,q),
(448,330,o),
(440,274,o),
(426,221,o),
(407,181,o),
(395,181,q),
(378,181,o),
(349,196,o),
(344,206,q),
(275,52,l),
(314,23,o),
(379,-1,o),
(407,-1,q)
);
}
);
};
layerId = "A5922FF3-8C0B-4EAE-8A2D-3EBDCCE80B0C";
shapes = (
{
ref = L;
},
{
pos = (302,0);
ref = J;
}
);
width = 581;
}
);
unicode = 455;
},
{
glyphname = Lacute;
lastChange = "2023-06-21 13:56:06 +0000";
layers = (
{
background = {
anchors = (
{
name = bottom;
pos = (151,0);
},
{
name = center;
pos = (151,360);
},
{
name = top;
pos = (293,1089);
},
{
name = topright;
pos = (282,721);
}
);
shapes = (
{
closed = 1;
nodes = (
(39,7,o),
(106,20,o),
(176,28,o),
(245,32,o),
(276,32,q),
(284,32,o),
(299,31,o),
(307,31,q),
(306,35,o),
(303,58,o),
(298,88,o),
(294,125,o),
(293,144,q),
(271,144,o),
(214,143,o),
(189,141,q),
(194,176,o),
(210,266,o),
(230,362,o),
(252,463,o),
(263,510,q),
(288,620,o),
(315,736,q),
(140,713,l),
(112,577,o),
(87,446,q),
(76,391,o),
(55,271,o),
(34,153,o),
(18,43,o),
(12,-2,q)
);
},
{
closed = 1;
nodes = (
(225,772,o),
(361,821,o),
(420,845,q),
(412,906,o),
(411,1022,o),
(406,1089,q),
(354,1032,o),
(234,924,o),
(166,855,q),
(166,837,o),
(165,804,o),
(165,788,q),
(165,779,o),
(165,761,o),
(166,750,q)
);
}
);
};
layerId = "A5922FF3-8C0B-4EAE-8A2D-3EBDCCE80B0C";
shapes = (
{
ref = L;
},
{
pos = (83,200);
ref = acutecomb.case;
}
);
width = 302;
}
);
unicode = 313;
},
{
glyphname = Lcaron;
lastChange = "2023-06-21 14:57:22 +0000";
layers = (
{
background = {
anchors = (
{
name = bottom;
pos = (450,360);
},
{
name = center;
pos = (151,360);
},
{
name = top;
pos = (244,721);
},
{
name = topright;
pos = (282,721);
}
);
shapes = (
{
closed = 1;
nodes = (
(39,7,o),
(106,20,o),
(176,28,o),
(245,32,o),
(276,32,q),
(284,32,o),
(299,31,o),
(307,31,q),
(306,35,o),
(303,58,o),
(298,88,o),
(294,125,o),
(293,144,q),
(271,144,o),
(214,143,o),
(189,141,q),
(194,176,o),
(210,266,o),
(230,362,o),
(252,463,o),
(263,510,q),
(288,620,o),
(315,736,q),
(140,713,l),
(112,577,o),
(87,446,q),
(76,391,o),
(55,271,o),
(34,153,o),
(18,43,o),
(12,-2,q)
);
},
{
closed = 1;
nodes = (
(487,430,l),
(504,485,o),
(534,585,o),
(561,686,o),
(569,723,q),
(544,722,o),
(499,720,o),
(454,720,o),
(440,720,q),
(431,720,o),
(396,721,o),
(388,721,q),
(385,696,o),
(372,630,o),
(356,553,o),
(338,470,o),
(330,430,q)
);
}
);
};
layerId = "A5922FF3-8C0B-4EAE-8A2D-3EBDCCE80B0C";
shapes = (
{
alignment = -1;
ref = L;
},
{
alignment = -1;
pos = (269,-74);
ref = caroncomb.alt;
}
);
width = 466;
}
);
unicode = 317;
},
{
glyphname = Lcommaaccent;
lastChange = "2023-06-21 13:56:06 +0000";
layers = (
{
background = {
anchors = (
{
name = bottom;
pos = (109,-426);
},
{
name = center;
pos = (151,360);
},
{
name = top;
pos = (244,721);
},
{
name = topright;
pos = (282,721);
}
);
shapes = (
{
closed = 1;
nodes = (
(39,7,o),
(106,20,o),
(176,28,o),
(245,32,o),
(276,32,q),
(284,32,o),
(299,31,o),
(307,31,q),
(306,35,o),
(303,58,o),
(298,88,o),
(294,125,o),
(293,144,q),
(271,144,o),
(214,143,o),
(189,141,q),
(194,176,o),
(210,266,o),
(230,362,o),
(252,463,o),
(263,510,q),
(288,620,o),
(315,736,q),
(140,713,l),
(112,577,o),
(87,446,q),
(76,391,o),
(55,271,o),
(34,153,o),
(18,43,o),
(12,-2,q)
);
},
{
closed = 1;
nodes = (
(146,-356,l),
(163,-301,o),
(193,-201,o),
(220,-100,o),
(228,-63,q),
(203,-64,o),
(158,-66,o),
(113,-66,o),
(99,-66,q),
(90,-66,o),
(55,-65,o),
(47,-65,q),
(44,-90,o),
(31,-156,o),
(15,-233,o),
(-3,-316,o),
(-11,-356,q)
);
}
);
};
layerId = "A5922FF3-8C0B-4EAE-8A2D-3EBDCCE80B0C";
shapes = (
{
ref = L;
},
{
pos = (23,-245);
ref = commaaccentcomb.case;
}
);
width = 302;
}
);
unicode = 315;
},
{
glyphname = Ldot;
lastChange = "2023-06-21 14:40:52 +0000";
layers = (
{
background = {
anchors = (
{
name = bottom;
pos = (151,0);
},
{
name = center;
pos = (151,360);
},
{
name = top;
pos = (244,721);
},
{
name = topright;
pos = (282,721);
}
);
shapes = (
{
closed = 1;
nodes = (
(39,7,o),
(106,20,o),
(176,28,o),
(245,32,o),
(276,32,q),
(284,32,o),
(299,31,o),
(307,31,q),
(306,35,o),
(303,58,o),
(298,88,o),
(294,125,o),
(293,144,q),
(271,144,o),
(214,143,o),
(189,141,q),
(194,176,o),
(210,266,o),
(230,362,o),
(252,463,o),
(263,510,q),
(288,620,o),
(315,736,q),
(140,713,l),
(112,577,o),
(87,446,q),
(76,391,o),
(55,271,o),
(34,153,o),
(18,43,o),
(12,-2,q)
);
},
{
closed = 1;
nodes = (
(451,281,o),
(499,298,o),
(531,327,o),
(548,365,o),
(548,384,q),
(548,419,o),
(490,474,o),
(432,474,q),
(406,474,o),
(369,456,o),
(344,429,o),
(332,394,o),
(332,375,q),
(332,358,o),
(344,324,o),
(365,297,o),
(399,281,o),
(420,281,q)
);
}
);
};
layerId = "A5922FF3-8C0B-4EAE-8A2D-3EBDCCE80B0C";
shapes = (
{
ref = L;
},
{
alignment = 1;
pos = (202,0);
ref = periodcentered;
}
);
width = 416;
}
);
unicode = 319;
},
{
glyphname = Lj;
lastChange = "2023-06-21 13:56:06 +0000";
layers = (
{
background = {
anchors = (
{
name = bottom;
pos = (151,0);
},
{
name = center;
pos = (151,360);
},
{
name = top;
pos = (244,721);
},
{
name = topright;
pos = (282,721);
}
);
shapes = (
{
closed = 1;
nodes = (
(39,7,o),
(106,20,o),
(176,28,o),
(245,32,o),
(276,32,q),
(284,32,o),
(299,31,o),
(307,31,q),
(306,35,o),
(303,58,o),
(298,88,o),
(294,125,o),
(293,144,q),
(271,144,o),
(214,143,o),
(189,141,q),
(194,176,o),
(210,266,o),
(230,362,o),
(252,463,o),
(263,510,q),
(288,620,o),
(315,736,q),
(140,713,l),
(112,577,o),
(87,446,q),
(76,391,o),
(55,271,o),
(34,153,o),
(18,43,o),
(12,-2,q)
);
},
{
closed = 1;
nodes = (
(449,-1,o),
(510,50,o),
(553,127,o),
(579,222,o),
(588,266,q),
(598,318,o),
(625,449,o),
(655,585,o),
(687,715,o),
(702,766,q),
(658,754,o),
(571,737,o),
(526,733,q),
(503,637,o),
(469,444,o),
(450,347,q),
(448,330,o),
(440,274,o),
(426,221,o),
(407,181,o),
(395,181,q),
(378,181,o),
(349,196,o),
(344,206,q),
(275,52,l),
(314,23,o),
(379,-1,o),
(407,-1,q)
);
}
);
};
layerId = "A5922FF3-8C0B-4EAE-8A2D-3EBDCCE80B0C";
shapes = (
{
ref = L;
},
{
pos = (302,0);
ref = j;
}
);
width = 581;
}
);
unicode = 456;
},
{
glyphname = Lslash;
lastChange = "2023-06-21 13:56:06 +0000";
layers = (
{
background = {
shapes = (
{
closed = 1;
nodes = (
(45,7,o),
(112,20,o),
(182,28,o),
(251,32,o),
(282,32,q),
(290,32,o),
(305,31,o),
(313,31,q),
(312,35,o),
(309,58,o),
(304,88,o),
(300,125,o),
(299,144,q),
(276,144,o),
(220,143,o),
(195,141,q),
(202,190,o),
(228,322,o),
(242,393,q),
(368,435,l),
(365,555,l),
(351,548,o),
(334,542,q),
(320,537,o),
(286,524,o),
(270,519,q),
(280,564,o),
(298,644,o),
(306,673,q),
(314,707,o),
(321,736,q),
(146,713,l),
(138,679,o),
(130,639,q),
(122,604,o),
(105,512,o),
(95,458,q),
(84,454,o),
(65,448,o),
(58,446,q),
(49,443,o),
(41,441,q),
(30,317,l),
(35,319,o),
(42,322,q),
(47,324,o),
(63,329,o),
(71,333,q),
(55,243,o),
(26,67,o),
(18,-2,q)
);
}
);
};
layerId = "A5922FF3-8C0B-4EAE-8A2D-3EBDCCE80B0C";
shapes = (
{
closed = 1;
nodes = (
(92,23,o),
(204,32,o),
(282,32,cs),
(298,32,l),
(303,31,o),
(308,31,o),
(313,31,c),
(312,35,o),
(301,98,o),
(299,144,c),
(268,144,o),
(228,144,o),
(195,141,c),
(204,206,o),
(223,298,o),
(242,393,c),
(368,435,l),
(365,555,l),
(356,550,o),
(345,546,o),
(334,542,cs),
(303,531,ls),
(292,526,o),
(281,522,o),
(270,519,c),
(283,579,o),
(295,634,o),
(306,673,cs),
(311,696,o),
(316,717,o),
(321,736,c),
(146,713,l),
(141,690,o),
(135,666,o),
(130,639,cs),
(125,616,o),
(119,589,o),
(114,558,cs),
(108,527,o),
(102,494,o),
(95,458,c),
(58,446,ls),
(52,444,o),
(46,442,o),
(41,441,c),
(30,317,l),
(33,318,o),
(37,320,o),
(42,322,cs),
(55,327,l),
(60,328,o),
(66,330,o),
(71,333,c),
(50,213,o),
(29,90,o),
(18,-2,c)
);
}
);
width = 309;
}
);
unicode = 321;
},
{
glyphname = M;
lastChange = "2023-06-21 13:56:06 +0000";
layers = (
{
anchors = (
{
name = bottom;
pos = (310,0);
},
{
name = top;
pos = (470,721);
}
);
background = {
anchors = (
{
name = bottom;
pos = (310,0);
},
{
name = top;
pos = (470,721);
}
);
shapes = (
{
closed = 1;
nodes = (
(135,17,l),
(136,20,o),
(150,67,o),
(171,140,o),
(195,225,o),
(216,304,o),
(232,365,o),
(234,378,q),
(249,378,l),
(217,7,l),
(250,9,o),
(300,12,o),
(335,13,q),
(348,55,o),
(382,147,o),
(417,243,o),
(451,336,o),
(465,378,q),
(474,378,l),
(469,352,o),
(459,279,o),
(450,201,o),
(441,123,o),
(436,59,o),
(433,15,o),
(433,10,q),
(607,41,l),
(616,159,o),
(628,283,q),
(633,336,o),
(646,454,o),
(660,575,o),
(678,697,o),
(688,755,q),
(661,750,o),
(616,743,o),
(572,736,o),
(528,730,o),
(503,728,q),
(493,707,o),
(470,652,o),
(445,591,o),
(421,527,o),
(383,426,o),
(354,350,q),
(341,350,l),
(353,425,o),
(367,525,o),
(377,589,o),
(386,649,o),
(393,704,o),
(396,726,q),
(339,721,o),
(241,709,o),
(186,709,q),
(174,663,o),
(143,555,o),
(107,439,o),
(71,321,o),
(54,267,q),
(14,139,o),
(-30,6,q)
);
}
);
};
layerId = "A5922FF3-8C0B-4EAE-8A2D-3EBDCCE80B0C";
shapes = (
{
closed = 1;
nodes = (
(135,17,l),
(137,22,o),
(153,77,o),
(183,183,cs),
(206,262,o),
(231,356,o),
(234,378,c),
(249,378,l),
(217,7,l),
(261,10,o),
(288,12,o),
(335,13,c),
(380,158,o),
(431,277,o),
(465,378,c),
(474,378,l),
(464,328,o),
(455,247,o),
(446,162,cs),
(436,76,o),
(433,13,o),
(433,10,c),
(607,41,l),
(613,120,o),
(620,200,o),
(628,283,cs),
(640,406,o),
(659,587,o),
(688,755,c),
(637,746,o),
(551,732,o),
(503,728,c),
(486,693,o),
(456,621,o),
(433,559,cs),
(417,516,o),
(393,451,o),
(354,350,c),
(341,350,l),
(355,437,o),
(366,516,o),
(372,557,cs),
(375,578,o),
(379,599,o),
(382,619,cs),
(385,639,o),
(387,658,o),
(390,677,cs),
(396,726,l),
(358,723,o),
(323,719,o),
(290,715,cs),
(257,711,o),
(223,709,o),
(186,709,c),
(156,593,o),
(98,405,o),
(54,267,cs),
(27,182,o),
(-1,95,o),
(-30,6,c)
);
}
);
width = 619;
}
);
unicode = 77;
},
{
glyphname = N;
lastChange = "2023-06-21 14:19:49 +0000";
layers = (
{
anchors = (
{
name = bottom;
pos = (227,0);
},
{
name = top;
pos = (375,721);
}
);
background = {
anchors = (
{
name = bottom;
pos = (227,0);
},
{
name = top;
pos = (375,721);
}
);
shapes = (
{
closed = 1;
nodes = (
(152,29,l),
(167,106,o),
(180,177,q),
(186,207,o),
(196,270,o),
(206,329,o),
(216,381,o),
(219,399,q),
(222,381,o),
(229,328,o),
(236,268,o),
(244,202,o),
(247,171,q),
(255,98,o),
(262,17,q),
(275,21,o),
(328,34,o),
(381,46,o),
(422,55,o),
(425,55,q),
(429,87,o),
(443,180,o),
(463,290,o),
(486,408,o),
(498,466,q),
(524,600,o),
(558,750,q),
(436,735,l),
(420,659,o),
(405,589,q),
(399,559,o),
(386,495,o),
(374,434,o),
(364,379,o),
(360,358,q),
(355,379,o),
(345,434,o),
(335,494,o),
(324,559,o),
(319,589,q),
(309,659,o),
(296,736,q),
(275,734,o),
(221,731,o),
(195,729,q),
(166,727,o),
(135,725,q),
(130,679,o),
(113,568,o),
(93,449,o),
(70,326,o),
(60,270,q),
(34,136,o),
(6,-5,q)
);
}
);
};
layerId = "A5922FF3-8C0B-4EAE-8A2D-3EBDCCE80B0C";
shapes = (
{
closed = 1;
nodes = (
(152,29,l),
(162,80,o),
(171,130,o),
(180,177,cs),
(194,246,o),
(206,320,o),
(219,399,c),
(225,361,o),
(241,232,o),
(247,171,cs),
(262,17,l),
(425,55,l),
(438,160,o),
(465,305,o),
(498,466,cs),
(515,555,o),
(535,650,o),
(558,750,c),
(436,735,l),
(405,589,ls),
(387,500,o),
(380,463,o),
(360,358,c),
(348,406,o),
(330,526,o),
(319,589,cs),
(312,636,o),
(305,685,o),
(296,736,c),
(248,733,ls),
(230,732,o),
(212,730,o),
(195,729,cs),
(176,728,o),
(156,726,o),
(135,725,c),
(121,594,o),
(88,426,o),
(60,270,cs),
(43,181,o),
(25,89,o),
(6,-5,c)
);
}
);
width = 453;
}
);
unicode = 78;
},
{
glyphname = NJ;
lastChange = "2023-06-21 13:56:06 +0000";
layers = (
{
background = {
anchors = (
{
name = bottom;
pos = (593,0);
},
{
name = top;
pos = (774,721);
}
);
shapes = (
{
closed = 1;
nodes = (
(152,29,l),
(167,106,o),
(180,177,q),
(186,207,o),
(196,270,o),
(206,329,o),
(216,381,o),
(219,399,q),
(222,381,o),
(229,328,o),
(236,268,o),
(244,202,o),
(247,171,q),
(255,98,o),
(262,17,q),
(275,21,o),
(328,34,o),
(381,46,o),
(422,55,o),
(425,55,q),
(429,87,o),
(443,180,o),
(463,290,o),
(486,408,o),
(498,466,q),
(524,600,o),
(558,750,q),
(436,735,l),
(420,659,o),
(405,589,q),
(399,559,o),
(386,495,o),
(374,434,o),
(364,379,o),
(360,358,q),
(355,379,o),
(345,434,o),
(335,494,o),
(324,559,o),
(319,589,q),
(309,659,o),
(296,736,q),
(275,734,o),
(221,731,o),
(195,729,q),
(166,727,o),
(135,725,q),
(130,679,o),
(113,568,o),
(93,449,o),
(70,326,o),
(60,270,q),
(34,136,o),
(6,-5,q)
);
},
{
closed = 1;
nodes = (
(600,-1,o),
(661,50,o),
(704,127,o),
(730,222,o),
(739,266,q),
(749,318,o),
(776,449,o),
(806,585,o),
(838,715,o),
(853,766,q),
(809,754,o),
(722,737,o),
(677,733,q),
(654,637,o),
(620,444,o),
(601,347,q),
(599,330,o),
(591,274,o),
(577,221,o),
(558,181,o),
(546,181,q),
(529,181,o),
(500,196,o),
(495,206,q),
(426,52,l),
(465,23,o),
(530,-1,o),
(558,-1,q)
);
}
);
};
layerId = "A5922FF3-8C0B-4EAE-8A2D-3EBDCCE80B0C";
shapes = (
{
ref = N;
},
{
pos = (453,0);
ref = J;
}
);
width = 732;
}
);
unicode = 458;
},
{
glyphname = Nacute;
lastChange = "2023-06-21 13:56:06 +0000";
layers = (
{
background = {
anchors = (
{
name = bottom;
pos = (227,0);
},
{
name = top;
pos = (424,1089);
}
);
shapes = (
{
closed = 1;
nodes = (
(152,29,l),
(167,106,o),
(180,177,q),
(186,207,o),
(196,270,o),
(206,329,o),
(216,381,o),
(219,399,q),
(222,381,o),
(229,328,o),
(236,268,o),
(244,202,o),
(247,171,q),
(255,98,o),
(262,17,q),
(275,21,o),
(328,34,o),
(381,46,o),
(422,55,o),
(425,55,q),
(429,87,o),
(443,180,o),
(463,290,o),
(486,408,o),
(498,466,q),
(524,600,o),
(558,750,q),
(436,735,l),
(420,659,o),
(405,589,q),
(399,559,o),
(386,495,o),
(374,434,o),
(364,379,o),
(360,358,q),
(355,379,o),
(345,434,o),
(335,494,o),
(324,559,o),
(319,589,q),
(309,659,o),
(296,736,q),
(275,734,o),
(221,731,o),
(195,729,q),
(166,727,o),
(135,725,q),
(130,679,o),
(113,568,o),
(93,449,o),
(70,326,o),
(60,270,q),
(34,136,o),
(6,-5,q)
);
},
{
closed = 1;
nodes = (
(356,772,o),
(492,821,o),
(551,845,q),
(543,906,o),
(542,1022,o),
(537,1089,q),
(485,1032,o),
(365,924,o),
(297,855,q),
(297,837,o),
(296,804,o),
(296,788,q),
(296,779,o),
(296,761,o),
(297,750,q)
);
}
);
};
layerId = "A5922FF3-8C0B-4EAE-8A2D-3EBDCCE80B0C";
shapes = (
{
ref = N;
},
{
pos = (214,200);
ref = acutecomb.case;
}
);
width = 453;
}
);
unicode = 323;
},
{
glyphname = Ncaron;
lastChange = "2023-06-21 13:56:06 +0000";
layers = (
{
background = {
anchors = (
{
name = bottom;
pos = (227,0);
},
{
name = top;
pos = (375,1028);
}
);
shapes = (
{
closed = 1;
nodes = (
(152,29,l),
(167,106,o),
(180,177,q),
(186,207,o),
(196,270,o),
(206,329,o),
(216,381,o),
(219,399,q),
(222,381,o),
(229,328,o),
(236,268,o),
(244,202,o),
(247,171,q),
(255,98,o),
(262,17,q),
(275,21,o),
(328,34,o),
(381,46,o),
(422,55,o),
(425,55,q),
(429,87,o),
(443,180,o),
(463,290,o),
(486,408,o),
(498,466,q),
(524,600,o),
(558,750,q),
(436,735,l),
(420,659,o),
(405,589,q),
(399,559,o),
(386,495,o),
(374,434,o),
(364,379,o),
(360,358,q),
(355,379,o),
(345,434,o),
(335,494,o),
(324,559,o),
(319,589,q),
(309,659,o),
(296,736,q),
(275,734,o),
(221,731,o),
(195,729,q),
(166,727,o),
(135,725,q),
(130,679,o),
(113,568,o),
(93,449,o),
(70,326,o),
(60,270,q),
(34,136,o),
(6,-5,q)
);
},
{
closed = 1;
nodes = (
(391,783,o),
(447,859,o),
(470,893,q),
(497,933,o),
(524,976,q),
(508,991,l),
(500,999,o),
(480,1017,o),
(467,1028,q),
(456,1016,o),
(429,983,o),
(400,948,o),
(372,914,o),
(362,903,q),
(295,1018,l),
(283,1008,o),
(259,987,o),
(248,978,q),
(237,967,o),
(226,957,q),
(239,920,o),
(251,884,q),
(262,853,o),
(285,784,o),
(294,758,q),
(294,757,o),
(298,757,q),
(302,757,o),
(314,758,o),
(324,758,q),
(331,758,o),
(353,757,o),
(366,756,q)
);
}
);
};
layerId = "A5922FF3-8C0B-4EAE-8A2D-3EBDCCE80B0C";
shapes = (
{
ref = N;
},
{
pos = (95,135);
ref = caroncomb.case;
}
);
width = 453;
}
);
unicode = 327;
},
{
glyphname = Ncommaaccent;
lastChange = "2023-06-21 13:56:06 +0000";
layers = (
{
background = {
anchors = (
{
name = bottom;
pos = (185,-426);
},
{
name = top;
pos = (375,721);
}
);
shapes = (
{
closed = 1;
nodes = (
(152,29,l),
(167,106,o),
(180,177,q),
(186,207,o),
(196,270,o),
(206,329,o),
(216,381,o),
(219,399,q),
(222,381,o),
(229,328,o),
(236,268,o),
(244,202,o),
(247,171,q),
(255,98,o),
(262,17,q),
(275,21,o),
(328,34,o),
(381,46,o),
(422,55,o),
(425,55,q),
(429,87,o),
(443,180,o),
(463,290,o),
(486,408,o),
(498,466,q),
(524,600,o),
(558,750,q),
(436,735,l),
(420,659,o),
(405,589,q),
(399,559,o),
(386,495,o),
(374,434,o),
(364,379,o),
(360,358,q),
(355,379,o),
(345,434,o),
(335,494,o),
(324,559,o),
(319,589,q),
(309,659,o),
(296,736,q),
(275,734,o),
(221,731,o),
(195,729,q),
(166,727,o),
(135,725,q),
(130,679,o),
(113,568,o),
(93,449,o),
(70,326,o),
(60,270,q),
(34,136,o),
(6,-5,q)
);
},
{
closed = 1;
nodes = (
(222,-356,l),
(239,-301,o),
(269,-201,o),
(296,-100,o),
(304,-63,q),
(279,-64,o),
(234,-66,o),
(189,-66,o),
(175,-66,q),
(166,-66,o),
(131,-65,o),
(123,-65,q),
(120,-90,o),
(107,-156,o),
(91,-233,o),
(73,-316,o),
(65,-356,q)
);
}
);
};
layerId = "A5922FF3-8C0B-4EAE-8A2D-3EBDCCE80B0C";
shapes = (
{
ref = N;
},
{
pos = (99,-245);
ref = commaaccentcomb.case;
}
);
width = 453;
}
);
unicode = 325;
},
{
glyphname = Nhookleft;
lastChange = "2023-06-21 13:56:06 +0000";
layers = (
{
background = {
shapes = (
{
closed = 1;
nodes = (
(184,197,o),
(188,218,o),
(190,238,c),
(194,259,o),
(198,279,o),
(201,299,c),
(204,319,o),
(208,338,o),
(211,354,c),
(219,399,l),
(226,354,l),
(229,337,o),
(230,318,o),
(232,298,c),
(240,234,l),
(262,17,l),
(262,17,o),
(425,55,o),
(425,55,c),
(428,76,o),
(431,103,o),
(436,133,c),
(440,164,o),
(446,198,o),
(453,234,c),
(475,349,l),
(498,466,l),
(516,555,o),
(535,649,o),
(558,750,c),
(436,735,l),
(405,589,l),
(401,568,o),
(397,548,o),
(393,526,c),
(388,506,o),
(384,484,o),
(380,464,c),
(376,443,o),
(372,425,o),
(369,406,c),
(360,358,l),
(350,406,l),
(347,425,o),
(343,443,o),
(340,464,c),
(337,484,o),
(333,505,o),
(329,526,c),
(319,589,l),
(313,636,o),
(305,685,o),
(296,736,c),
(282,735,o),
(267,733,o),
(248,732,c),
(195,729,l),
(176,728,o),
(155,726,o),
(135,725,c),
(132,694,o),
(127,660,o),
(121,623,c),
(116,587,o),
(109,549,o),
(103,509,c),
(96,469,o),
(89,429,o),
(81,388,c),
(74,347,o),
(66,308,o),
(60,270,c),
(8,4,l),
(2,-25,o),
(-21,-36,o),
(-38,-36,c),
(-57,-36,o),
(-74,-21,o),
(-93,0,c),
(-150,-128,l),
(-107,-158,o),
(-64,-181,o),
(-18,-181,c),
(98,-181,o),
(144,-29,o),
(152,29,c),
(180,177,l)
);
}
);
};
layerId = "A5922FF3-8C0B-4EAE-8A2D-3EBDCCE80B0C";
shapes = (
{
closed = 1;
nodes = (
(184,197,o),
(188,218,o),
(190,238,cs),
(194,259,o),
(198,279,o),
(201,299,cs),
(204,319,o),
(208,338,o),
(211,354,cs),
(219,399,l),
(226,354,ls),
(229,337,o),
(230,318,o),
(232,298,cs),
(240,234,l),
(262,17,l),
(425,55,l),
(428,76,o),
(431,103,o),
(436,133,cs),
(440,164,o),
(446,198,o),
(453,234,cs),
(475,349,l),
(498,466,ls),
(516,555,o),
(535,649,o),
(558,750,c),
(436,735,l),
(405,589,l),
(393,526,ls),
(388,506,o),
(384,484,o),
(380,464,cs),
(376,443,o),
(372,425,o),
(369,406,cs),
(360,358,l),
(350,406,ls),
(347,425,o),
(343,443,o),
(340,464,cs),
(337,484,o),
(333,505,o),
(329,526,cs),
(319,589,ls),
(313,636,o),
(305,685,o),
(296,736,c),
(282,735,o),
(267,733,o),
(248,732,cs),
(195,729,ls),
(176,728,o),
(155,726,o),
(135,725,c),
(132,694,o),
(127,660,o),
(121,623,cs),
(116,587,o),
(109,549,o),
(103,509,cs),
(96,469,o),
(89,429,o),
(81,388,cs),
(74,347,o),
(66,308,o),
(60,270,cs),
(8,4,ls),
(2,-25,o),
(-21,-36,o),
(-38,-36,cs),
(-57,-36,o),
(-74,-21,o),
(-93,0,c),
(-150,-128,l),
(-107,-158,o),
(-64,-181,o),
(-18,-181,cs),
(98,-181,o),
(144,-29,o),
(152,29,c),
(180,177,ls)
);
}
);
width = 465;
}
);
unicode = 413;
},
{
glyphname = Nj;
lastChange = "2023-06-21 13:56:06 +0000";
layers = (
{
background = {
anchors = (
{
name = bottom;
pos = (227,0);
},
{
name = top;
pos = (375,721);
}
);
shapes = (
{
closed = 1;
nodes = (
(152,29,l),
(167,106,o),
(180,177,q),
(186,207,o),
(196,270,o),
(206,329,o),
(216,381,o),
(219,399,q),
(222,381,o),
(229,328,o),
(236,268,o),
(244,202,o),
(247,171,q),
(255,98,o),
(262,17,q),
(275,21,o),
(328,34,o),
(381,46,o),
(422,55,o),
(425,55,q),
(429,87,o),
(443,180,o),
(463,290,o),
(486,408,o),
(498,466,q),
(524,600,o),
(558,750,q),
(436,735,l),
(420,659,o),
(405,589,q),
(399,559,o),
(386,495,o),
(374,434,o),
(364,379,o),
(360,358,q),
(355,379,o),
(345,434,o),
(335,494,o),
(324,559,o),
(319,589,q),
(309,659,o),
(296,736,q),
(275,734,o),
(221,731,o),
(195,729,q),
(166,727,o),
(135,725,q),
(130,679,o),
(113,568,o),
(93,449,o),
(70,326,o),
(60,270,q),
(34,136,o),
(6,-5,q)
);
},
{
closed = 1;
nodes = (
(600,-1,o),
(661,50,o),
(704,127,o),
(730,222,o),
(739,266,q),
(749,318,o),
(776,449,o),
(806,585,o),
(838,715,o),
(853,766,q),
(809,754,o),
(722,737,o),
(677,733,q),
(654,637,o),
(620,444,o),
(601,347,q),
(599,330,o),
(591,274,o),
(577,221,o),
(558,181,o),
(546,181,q),
(529,181,o),
(500,196,o),
(495,206,q),
(426,52,l),
(465,23,o),
(530,-1,o),
(558,-1,q)
);
}
);
};
layerId = "A5922FF3-8C0B-4EAE-8A2D-3EBDCCE80B0C";
shapes = (
{
ref = N;
},
{
pos = (453,0);
ref = j;
}
);
width = 732;
}
);
unicode = 459;
},
{
glyphname = Ntilde;
lastChange = "2023-06-21 13:56:06 +0000";
layers = (
{
background = {
anchors = (
{
name = bottom;
pos = (227,0);
},
{
name = top;
pos = (422,992);
}
);
shapes = (
{
closed = 1;
nodes = (
(152,29,l),
(167,106,o),
(180,177,q),
(186,207,o),
(196,270,o),
(206,329,o),
(216,381,o),
(219,399,q),
(222,381,o),
(229,328,o),
(236,268,o),
(244,202,o),
(247,171,q),
(255,98,o),
(262,17,q),
(275,21,o),
(328,34,o),
(381,46,o),
(422,55,o),
(425,55,q),
(429,87,o),
(443,180,o),
(463,290,o),
(486,408,o),
(498,466,q),
(524,600,o),
(558,750,q),
(436,735,l),
(420,659,o),
(405,589,q),
(399,559,o),
(386,495,o),
(374,434,o),
(364,379,o),
(360,358,q),
(355,379,o),
(345,434,o),
(335,494,o),
(324,559,o),
(319,589,q),
(309,659,o),
(296,736,q),
(275,734,o),
(221,731,o),
(195,729,q),
(166,727,o),
(135,725,q),
(130,679,o),
(113,568,o),
(93,449,o),
(70,326,o),
(60,270,q),
(34,136,o),
(6,-5,q)
);
},
{
closed = 1;
nodes = (
(266,776,o),
(290,802,o),
(315,826,o),
(343,843,o),
(358,843,q),
(379,843,o),
(400,822,o),
(420,796,o),
(445,775,o),
(469,775,q),
(489,775,o),
(524,790,o),
(556,814,o),
(584,844,o),
(595,861,q),
(622,899,o),
(643,948,q),
(637,955,o),
(629,961,q),
(621,967,o),
(601,983,o),
(589,992,q),
(579,983,o),
(555,953,o),
(529,923,o),
(501,902,o),
(486,902,q),
(481,902,o),
(464,928,o),
(436,960,o),
(399,988,o),
(375,988,q),
(349,988,o),
(305,961,o),
(267,922,o),
(236,876,o),
(214,837,o),
(202,811,o),
(202,811,q),
(208,804,o),
(224,792,o),
(243,776,o),
(256,767,q)
);
}
);
};
layerId = "A5922FF3-8C0B-4EAE-8A2D-3EBDCCE80B0C";
shapes = (
{
ref = N;
},
{
pos = (193,105);
ref = tildecomb.case;
}
);
width = 453;
}
);
unicode = 209;
},
{
glyphname = Eng;
lastChange = "2023-06-21 13:56:06 +0000";
layers = (
{
anchors = (
{
name = bottom;
pos = (227,0);
},
{
name = top;
pos = (375,721);
}
);
background = {
anchors = (
{
name = bottom;
pos = (227,0);
},
{
name = top;
pos = (375,721);
}
);
shapes = (
{
closed = 1;
nodes = (
(428,89,o),
(431,103,o),
(436,133,c),
(440,164,o),
(446,198,o),
(453,234,c),
(475,349,l),
(498,466,l),
(516,555,o),
(535,649,o),
(558,750,c),
(436,735,l),
(405,589,l),
(401,568,o),
(397,548,o),
(393,526,c),
(388,506,o),
(384,484,o),
(380,464,c),
(376,443,o),
(372,425,o),
(369,406,c),
(360,358,l),
(350,406,l),
(347,425,o),
(343,443,o),
(340,464,c),
(337,484,o),
(333,505,o),
(329,526,c),
(319,589,l),
(313,636,o),
(305,685,o),
(296,736,c),
(282,735,o),
(267,733,o),
(248,732,c),
(195,729,l),
(176,728,o),
(155,726,o),
(135,725,c),
(132,694,o),
(127,660,o),
(121,623,c),
(116,587,o),
(109,549,o),
(103,509,c),
(96,469,o),
(89,429,o),
(81,388,c),
(74,347,o),
(66,308,o),
(60,270,c),
(43,181,o),
(24,89,o),
(6,-5,c),
(152,29,l),
(180,177,l),
(184,197,o),
(188,218,o),
(190,238,c),
(194,259,o),
(198,279,o),
(201,299,c),
(204,319,o),
(208,338,o),
(211,354,c),
(219,399,l),
(226,354,l),
(229,337,o),
(230,318,o),
(232,298,c),
(240,234,l),
(262,2,l),
(264,-19,o),
(245,-38,o),
(228,-38,c),
(209,-38,o),
(191,-22,o),
(173,-2,c),
(115,-130,l),
(158,-160,o),
(201,-183,o),
(248,-183,c),
(363,-183,o),
(411,-27,o),
(425,67,c)
);
}
);
};
layerId = "A5922FF3-8C0B-4EAE-8A2D-3EBDCCE80B0C";
shapes = (
{
closed = 1;
nodes = (
(428,89,o),
(431,103,o),
(436,133,cs),
(440,164,o),
(446,198,o),
(453,234,cs),
(475,349,l),
(498,466,ls),
(516,555,o),
(535,649,o),
(558,750,c),
(436,735,l),
(405,589,l),
(393,526,ls),
(388,506,o),
(384,484,o),
(380,464,cs),
(376,443,o),
(372,425,o),
(369,406,cs),
(360,358,l),
(350,406,ls),
(347,425,o),
(343,443,o),
(340,464,cs),
(337,484,o),
(333,505,o),
(329,526,cs),
(319,589,ls),
(313,636,o),
(305,685,o),
(296,736,c),
(282,735,o),
(267,733,o),
(248,732,cs),
(195,729,ls),
(176,728,o),
(155,726,o),
(135,725,c),
(132,694,o),
(127,660,o),
(121,623,cs),
(116,587,o),
(109,549,o),
(103,509,cs),
(96,469,o),
(89,429,o),
(81,388,cs),
(74,347,o),
(66,308,o),
(60,270,cs),
(43,181,o),
(24,89,o),
(6,-5,c),
(152,29,l),
(180,177,ls),
(184,197,o),
(188,218,o),
(190,238,cs),
(194,259,o),
(198,279,o),
(201,299,cs),
(204,319,o),
(208,338,o),
(211,354,cs),
(219,399,l),
(226,354,ls),
(229,337,o),
(230,318,o),
(232,298,cs),
(240,234,l),
(262,2,ls),
(264,-19,o),
(245,-38,o),
(228,-38,cs),
(209,-38,o),
(191,-22,o),
(173,-2,c),
(115,-130,l),
(158,-160,o),
(201,-183,o),
(248,-183,cs),
(363,-183,o),
(411,-27,o),
(425,67,cs)
);
}
);
width = 453;
}
);
unicode = 330;
},
{
glyphname = O;
lastChange = "2023-06-21 13:56:06 +0000";
layers = (
{
anchors = (
{
name = bottom;
pos = (162,0);
},
{
name = center;
pos = (247,360);
},
{
name = ogonek;
pos = (295,10);
},
{
name = top;
pos = (414,750);
},
{
name = topleft;
pos = (20,721);
},
{
name = topright;
pos = (491,574);
}
);
background = {
anchors = (
{
name = bottom;
pos = (162,0);
},
{
name = center;
pos = (247,360);
},
{
name = ogonek;
pos = (295,10);
},
{
name = top;
pos = (414,750);
},
{
name = topleft;
pos = (20,721);
},
{
name = topright;
pos = (491,574);
}
);
shapes = (
{
closed = 1;
nodes = (
(220,-4,o),
(306,31,o),
(390,98,o),
(467,193,o),
(525,314,o),
(560,459,o),
(560,541,q),
(560,578,o),
(546,652,o),
(513,711,o),
(454,748,o),
(409,748,q),
(357,748,o),
(261,698,o),
(177,613,o),
(107,503,o),
(59,381,o),
(31,257,o),
(31,201,q),
(31,147,o),
(54,70,o),
(94,21,o),
(148,-4,o),
(181,-4,q)
);
},
{
closed = 1;
nodes = (
(223,161,o),
(202,174,o),
(188,192,o),
(180,216,o),
(180,227,q),
(180,251,o),
(190,317,o),
(213,386,o),
(245,453,o),
(288,506,o),
(342,538,o),
(374,538,q),
(390,538,o),
(409,521,o),
(418,497,o),
(421,469,o),
(421,457,q),
(421,415,o),
(396,313,o),
(350,223,o),
(280,161,o),
(235,161,q)
);
}
);
};
layerId = "A5922FF3-8C0B-4EAE-8A2D-3EBDCCE80B0C";
shapes = (
{
closed = 1;
nodes = (
(259,-4,o),
(351,49,o),
(429,146,cs),
(506,241,o),
(560,382,o),
(560,541,cs),
(560,642,o),
(528,748,o),
(409,748,cs),
(308,748,o),
(213,670,o),
(142,558,cs),
(76,455,o),
(31,314,o),
(31,201,cs),
(31,63,o),
(93,-4,o),
(181,-4,cs)
);
},
{
closed = 1;
nodes = (
(201,161,o),
(180,199,o),
(180,227,cs),
(180,282,o),
(196,350,o),
(229,420,cs),
(262,488,o),
(312,538,o),
(374,538,cs),
(416,538,o),
(421,488,o),
(421,457,cs),
(421,347,o),
(355,161,o),
(235,161,cs)
);
}
);
width = 493;
}
);
unicode = 79;
},
{
glyphname = Oacute;
lastChange = "2023-06-21 13:56:06 +0000";
layers = (
{
background = {
anchors = (
{
name = bottom;
pos = (162,0);
},
{
name = center;
pos = (247,360);
},
{
name = ogonek;
pos = (295,10);
},
{
name = top;
pos = (463,1118);
},
{
name = topleft;
pos = (20,721);
},
{
name = topright;
pos = (491,574);
}
);
shapes = (
{
closed = 1;
nodes = (
(220,-4,o),
(306,31,o),
(390,98,o),
(467,193,o),
(525,314,o),
(560,459,o),
(560,541,q),
(560,578,o),
(546,652,o),
(513,711,o),
(454,748,o),
(409,748,q),
(357,748,o),
(261,698,o),
(177,613,o),
(107,503,o),
(59,381,o),
(31,257,o),
(31,201,q),
(31,147,o),
(54,70,o),
(94,21,o),
(148,-4,o),
(181,-4,q)
);
},
{
closed = 1;
nodes = (
(223,161,o),
(202,174,o),
(188,192,o),
(180,216,o),
(180,227,q),
(180,251,o),
(190,317,o),
(213,386,o),
(245,453,o),
(288,506,o),
(342,538,o),
(374,538,q),
(390,538,o),
(409,521,o),
(418,497,o),
(421,469,o),
(421,457,q),
(421,415,o),
(396,313,o),
(350,223,o),
(280,161,o),
(235,161,q)
);
},
{
closed = 1;
nodes = (
(395,801,o),
(531,850,o),
(590,874,q),
(582,935,o),
(581,1051,o),
(576,1118,q),
(524,1061,o),
(404,953,o),
(336,884,q),
(336,866,o),
(335,833,o),
(335,817,q),
(335,808,o),
(335,790,o),
(336,779,q)
);
}
);
};
layerId = "A5922FF3-8C0B-4EAE-8A2D-3EBDCCE80B0C";
shapes = (
{
ref = O;
},
{
pos = (253,229);
ref = acutecomb.case;
}
);
width = 493;
}
);
unicode = 211;
},
{
glyphname = Obreve;
lastChange = "2023-06-21 13:56:06 +0000";
layers = (
{
background = {
anchors = (
{
name = bottom;
pos = (162,0);
},
{
name = center;
pos = (247,360);
},
{
name = ogonek;
pos = (295,10);
},
{
name = top;
pos = (470,1038);
},
{
name = topleft;
pos = (20,721);
},
{
name = topright;
pos = (491,574);
}
);
shapes = (
{
closed = 1;
nodes = (
(220,-4,o),
(306,31,o),
(390,98,o),
(467,193,o),
(525,314,o),
(560,459,o),
(560,541,q),
(560,578,o),
(546,652,o),
(513,711,o),
(454,748,o),
(409,748,q),
(357,748,o),
(261,698,o),
(177,613,o),
(107,503,o),
(59,381,o),
(31,257,o),
(31,201,q),
(31,147,o),
(54,70,o),
(94,21,o),
(148,-4,o),
(181,-4,q)
);
},
{
closed = 1;
nodes = (
(223,161,o),
(202,174,o),
(188,192,o),
(180,216,o),
(180,227,q),
(180,251,o),
(190,317,o),
(213,386,o),
(245,453,o),
(288,506,o),
(342,538,o),
(374,538,q),
(390,538,o),
(409,521,o),
(418,497,o),
(421,469,o),
(421,457,q),
(421,415,o),
(396,313,o),
(350,223,o),
(280,161,o),
(235,161,q)
);
},
{
closed = 1;
nodes = (
(534,845,o),
(592,939,o),
(603,993,q),
(587,1009,ls),
(579,1017,o),
(559,1034,o),
(546,1045,q),
(526,1004,o),
(500,956,o),
(467,927,o),
(435,927,q),
(397,927,o),
(372,986,o),
(374,1035,c),
(361,1025,o),
(338,1004,o),
(327,995,q),
(315,984,o),
(305,975,q),
(301,911,o),
(372,799,o),
(427,799,qs),
(469,799,o)
);
}
);
};
layerId = "A5922FF3-8C0B-4EAE-8A2D-3EBDCCE80B0C";
shapes = (
{
ref = O;
},
{
pos = (252,146);
ref = brevecomb.case;
}
);
width = 493;
}
);
unicode = 334;
},
{
glyphname = Ocircumflex;
lastChange = "2023-06-21 13:56:06 +0000";
layers = (
{
background = {
anchors = (
{
name = bottom;
pos = (162,0);
},
{
name = center;
pos = (247,360);
},
{
name = ogonek;
pos = (295,10);
},
{
name = top;
pos = (459,1045);
},
{
name = topleft;
pos = (20,721);
},
{
name = topright;
pos = (491,574);
}
);
shapes = (
{
closed = 1;
nodes = (
(220,-4,o),
(306,31,o),
(390,98,o),
(467,193,o),
(525,314,o),
(560,459,o),
(560,541,q),
(560,578,o),
(546,652,o),
(513,711,o),
(454,748,o),
(409,748,q),
(357,748,o),
(261,698,o),
(177,613,o),
(107,503,o),
(59,381,o),
(31,257,o),
(31,201,q),
(31,147,o),
(54,70,o),
(94,21,o),
(148,-4,o),
(181,-4,q)
);
},
{
closed = 1;
nodes = (
(223,161,o),
(202,174,o),
(188,192,o),
(180,216,o),
(180,227,q),
(180,251,o),
(190,317,o),
(213,386,o),
(245,453,o),
(288,506,o),
(342,538,o),
(374,538,q),
(390,538,o),
(409,521,o),
(418,497,o),
(421,469,o),
(421,457,q),
(421,415,o),
(396,313,o),
(350,223,o),
(280,161,o),
(235,161,q)
);
},
{
closed = 1;
nodes = (
(355,790,o),
(385,822,o),
(415,856,o),
(445,888,o),
(456,898,q),
(517,780,l),
(529,789,o),
(555,808,o),
(565,817,q),
(577,827,o),
(589,837,q),
(578,874,o),
(567,911,q),
(558,942,o),
(539,1012,o),
(531,1039,q),
(529,1041,o),
(498,1039,o),
(459,1045,q),
(433,1019,o),
(374,947,o),
(349,914,q),
(319,875,o),
(291,834,q),
(297,826,o),
(306,817,q),
(312,809,o),
(332,790,o),
(345,779,q)
);
}
);
};
layerId = "A5922FF3-8C0B-4EAE-8A2D-3EBDCCE80B0C";
shapes = (
{
ref = O;
},
{
pos = (204,162);
ref = circumflexcomb.case;
}
);
width = 493;
}
);
unicode = 212;
},
{
glyphname = Ocircumflexacute;
lastChange = "2023-06-21 13:56:06 +0000";
layers = (
{
background = {
anchors = (
{
name = bottom;
pos = (162,0);
},
{
name = center;
pos = (247,360);
},
{
name = ogonek;
pos = (295,10);
},
{
name = top;
pos = (526,1145);
},
{
name = topleft;
pos = (20,721);
},
{
name = topright;
pos = (491,574);
}
);
shapes = (
{
closed = 1;
nodes = (
(220,-4,o),
(306,31,o),
(390,98,o),
(467,193,o),
(525,314,o),
(560,459,o),
(560,541,q),
(560,578,o),
(546,652,o),
(513,711,o),
(454,748,o),
(409,748,q),
(357,748,o),
(261,698,o),
(177,613,o),
(107,503,o),
(59,381,o),
(31,257,o),
(31,201,q),
(31,147,o),
(54,70,o),
(94,21,o),
(148,-4,o),
(181,-4,q)
);
},
{
closed = 1;
nodes = (
(223,161,o),
(202,174,o),
(188,192,o),
(180,216,o),
(180,227,q),
(180,251,o),
(190,317,o),
(213,386,o),
(245,453,o),
(288,506,o),
(342,538,o),
(374,538,q),
(390,538,o),
(409,521,o),
(418,497,o),
(421,469,o),
(421,457,q),
(421,415,o),
(396,313,o),
(350,223,o),
(280,161,o),
(235,161,q)
);
},
{
closed = 1;
nodes = (
(358,779,o),
(388,811,o),
(418,845,o),
(448,877,o),
(459,887,q),
(520,769,l),
(532,778,o),
(558,797,o),
(568,806,q),
(580,816,o),
(592,826,q),
(581,863,o),
(570,900,q),
(561,931,o),
(542,1001,o),
(534,1028,q),
(532,1030,o),
(501,1028,o),
(462,1034,q),
(436,1008,o),
(377,936,o),
(352,903,q),
(322,864,o),
(294,823,q),
(300,815,o),
(309,806,q),
(315,798,o),
(335,779,o),
(348,768,q)
);
},
{
closed = 1;
nodes = (
(634,941,o),
(721,973,o),
(760,988,q),
(754,1028,o),
(754,1103,o),
(750,1146,q),
(717,1109,o),
(639,1039,o),
(596,995,q),
(596,983,o),
(595,962,o),
(595,952,q),
(595,946,o),
(595,934,o),
(596,927,q)
);
}
);
};
layerId = "A5922FF3-8C0B-4EAE-8A2D-3EBDCCE80B0C";
shapes = (
{
ref = O;
},
{
pos = (207,151);
ref = circumflexcomb_acutecomb;
}
);
width = 493;
}
);
unicode = 7888;
},
{
glyphname = Ocircumflexdotbelow;
lastChange = "2023-06-21 13:56:06 +0000";
layers = (
{
background = {
anchors = (
{
name = bottom;
pos = (162,-206);
},
{
name = center;
pos = (247,360);
},
{
name = ogonek;
pos = (295,10);
},
{
name = top;
pos = (459,1045);
},
{
name = topleft;
pos = (20,721);
},
{
name = topright;
pos = (491,574);
}
);
shapes = (
{
closed = 1;
nodes = (
(220,-4,o),
(306,31,o),
(390,98,o),
(467,193,o),
(525,314,o),
(560,459,o),
(560,541,q),
(560,578,o),
(546,652,o),
(513,711,o),
(454,748,o),
(409,748,q),
(357,748,o),
(261,698,o),
(177,613,o),
(107,503,o),
(59,381,o),
(31,257,o),
(31,201,q),
(31,147,o),
(54,70,o),
(94,21,o),
(148,-4,o),
(181,-4,q)
);
},
{
closed = 1;
nodes = (
(223,161,o),
(202,174,o),
(188,192,o),
(180,216,o),
(180,227,q),
(180,251,o),
(190,317,o),
(213,386,o),
(245,453,o),
(288,506,o),
(342,538,o),
(374,538,q),
(390,538,o),
(409,521,o),
(418,497,o),
(421,469,o),
(421,457,q),
(421,415,o),
(396,313,o),
(350,223,o),
(280,161,o),
(235,161,q)
);
},
{
closed = 1;
nodes = (
(355,790,o),
(385,822,o),
(415,856,o),
(445,888,o),
(456,898,q),
(517,780,l),
(529,789,o),
(555,808,o),
(565,817,q),
(577,827,o),
(589,837,q),
(578,874,o),
(567,911,q),
(558,942,o),
(539,1012,o),
(531,1039,q),
(529,1041,o),
(498,1039,o),
(459,1045,q),
(433,1019,o),
(374,947,o),
(349,914,q),
(319,875,o),
(291,834,q),
(297,826,o),
(306,817,q),
(312,809,o),
(332,790,o),
(345,779,q)
);
},
{
closed = 1;
nodes = (
(173,-205,o),
(213,-189,o),
(241,-162,o),
(254,-129,o),
(254,-112,q),
(254,-80,o),
(207,-30,o),
(158,-30,q),
(135,-30,o),
(101,-46,o),
(79,-71,o),
(68,-103,o),
(68,-119,q),
(68,-153,o),
(108,-205,o),
(148,-205,q)
);
}
);
};
layerId = "A5922FF3-8C0B-4EAE-8A2D-3EBDCCE80B0C";
shapes = (
{
ref = O;
},
{
pos = (204,162);
ref = circumflexcomb.case;
},
{
pos = (19,-28);
ref = dotbelowcomb.case;
}
);
width = 493;
}
);
unicode = 7896;
},
{
glyphname = Ocircumflexgrave;
lastChange = "2023-06-21 13:56:06 +0000";
layers = (
{
background = {
anchors = (
{
name = bottom;
pos = (162,0);
},
{
name = center;
pos = (247,360);
},
{
name = ogonek;
pos = (295,10);
},
{
name = top;
pos = (394,1155);
},
{
name = topleft;
pos = (20,721);
},
{
name = topright;
pos = (491,574);
}
);
shapes = (
{
closed = 1;
nodes = (
(220,-4,o),
(306,31,o),
(390,98,o),
(467,193,o),
(525,314,o),
(560,459,o),
(560,541,q),
(560,578,o),
(546,652,o),
(513,711,o),
(454,748,o),
(409,748,q),
(357,748,o),
(261,698,o),
(177,613,o),
(107,503,o),
(59,381,o),
(31,257,o),
(31,201,q),
(31,147,o),
(54,70,o),
(94,21,o),
(148,-4,o),
(181,-4,q)
);
},
{
closed = 1;
nodes = (
(223,161,o),
(202,174,o),
(188,192,o),
(180,216,o),
(180,227,q),
(180,251,o),
(190,317,o),
(213,386,o),
(245,453,o),
(288,506,o),
(342,538,o),
(374,538,q),
(390,538,o),
(409,521,o),
(418,497,o),
(421,469,o),
(421,457,q),
(421,415,o),
(396,313,o),
(350,223,o),
(280,161,o),
(235,161,q)
);
},
{
closed = 1;
nodes = (
(352,758,o),
(382,790,o),
(412,824,o),
(442,856,o),
(453,866,q),
(514,748,l),
(526,757,o),
(552,776,o),
(562,785,q),
(574,795,o),
(586,805,q),
(575,842,o),
(564,879,q),
(555,910,o),
(536,980,o),
(528,1007,q),
(526,1009,o),
(495,1007,o),
(456,1013,q),
(430,987,o),
(371,915,o),
(346,882,q),
(316,843,o),
(288,802,q),
(294,794,o),
(303,785,q),
(309,777,o),
(329,758,o),
(342,747,q)
);
},
{
closed = 1;
nodes = (
(374,1005,l),
(355,1026,o),
(306,1079,o),
(285,1102,q),
(259,1128,o),
(234,1155,q),
(228,1124,o),
(222,1094,q),
(217,1068,o),
(207,1014,o),
(203,995,q),
(222,989,o),
(278,974,o),
(305,968,q),
(336,960,o),
(369,952,q)
);
}
);
};
layerId = "A5922FF3-8C0B-4EAE-8A2D-3EBDCCE80B0C";
shapes = (
{
ref = O;
},
{
pos = (201,130);
ref = circumflexcomb_gravecomb;
}
);
width = 493;
}
);
unicode = 7890;
},
{
glyphname = Ocircumflexhookabove;
lastChange = "2023-06-21 13:56:06 +0000";
layers = (
{
background = {
anchors = (
{
name = bottom;
pos = (162,0);
},
{
name = center;
pos = (247,360);
},
{
name = ogonek;
pos = (295,10);
},
{
name = top;
pos = (526,1124);
},
{
name = topleft;
pos = (20,721);
},
{
name = topright;
pos = (491,574);
}
);
shapes = (
{
closed = 1;
nodes = (
(220,-4,o),
(306,31,o),
(390,98,o),
(467,193,o),
(525,314,o),
(560,459,o),
(560,541,q),
(560,578,o),
(546,652,o),
(513,711,o),
(454,748,o),
(409,748,q),
(357,748,o),
(261,698,o),
(177,613,o),
(107,503,o),
(59,381,o),
(31,257,o),
(31,201,q),
(31,147,o),
(54,70,o),
(94,21,o),
(148,-4,o),
(181,-4,q)
);
},
{
closed = 1;
nodes = (
(223,161,o),
(202,174,o),
(188,192,o),
(180,216,o),
(180,227,q),
(180,251,o),
(190,317,o),
(213,386,o),
(245,453,o),
(288,506,o),
(342,538,o),
(374,538,q),
(390,538,o),
(409,521,o),
(418,497,o),
(421,469,o),
(421,457,q),
(421,415,o),
(396,313,o),
(350,223,o),
(280,161,o),
(235,161,q)
);
},
{
closed = 1;
nodes = (
(365,773,o),
(395,805,o),
(425,839,o),
(455,871,o),
(466,881,q),
(527,763,l),
(539,772,o),
(565,791,o),
(575,800,q),
(587,810,o),
(599,820,q),
(588,857,o),
(577,894,q),
(568,925,o),
(549,995,o),
(541,1022,q),
(539,1024,o),
(508,1022,o),
(469,1028,q),
(443,1002,o),
(384,930,o),
(359,897,q),
(329,858,o),
(301,817,q),
(307,809,o),
(316,800,q),
(322,792,o),
(342,773,o),
(355,762,q)
);
},
{
closed = 1;
nodes = (
(651,941,l),
(670,943,l),
(674,955,o),
(687,974,o),
(705,989,o),
(725,1003,o),
(740,1020,o),
(750,1042,o),
(750,1059,q),
(747,1088,o),
(729,1109,o),
(715,1118,o),
(689,1123,o),
(679,1123,q),
(657,1123,o),
(614,1106,o),
(590,1087,q),
(606,1028,l),
(616,1036,o),
(635,1050,o),
(652,1060,o),
(659,1060,q),
(664,1060,o),
(670,1053,o),
(670,1051,q),
(670,1046,o),
(660,1035,o),
(645,1022,o),
(628,1005,o),
(612,984,o),
(603,956,o),
(603,939,q)
);
}
);
};
layerId = "A5922FF3-8C0B-4EAE-8A2D-3EBDCCE80B0C";
shapes = (
{
ref = O;
},
{
pos = (214,145);
ref = circumflexcomb_hookabovecomb;
}
);
width = 493;
}
);
unicode = 7892;
},
{
glyphname = Ocircumflextilde;
lastChange = "2023-06-21 13:56:06 +0000";
layers = (
{
background = {
anchors = (
{
name = bottom;
pos = (162,0);
},
{
name = center;
pos = (247,360);
},
{
name = ogonek;
pos = (295,10);
},
{
name = top;
pos = (529,1291);
},
{
name = topleft;
pos = (20,721);
},
{
name = topright;
pos = (491,574);
}
);
shapes = (
{
closed = 1;
nodes = (
(220,-4,o),
(306,31,o),
(390,98,o),
(467,193,o),
(525,314,o),
(560,459,o),
(560,541,q),
(560,578,o),
(546,652,o),
(513,711,o),
(454,748,o),
(409,748,q),
(357,748,o),
(261,698,o),
(177,613,o),
(107,503,o),
(59,381,o),
(31,257,o),
(31,201,q),
(31,147,o),
(54,70,o),
(94,21,o),
(148,-4,o),
(181,-4,q)
);
},
{
closed = 1;
nodes = (
(223,161,o),
(202,174,o),
(188,192,o),
(180,216,o),
(180,227,q),
(180,251,o),
(190,317,o),
(213,386,o),
(245,453,o),
(288,506,o),
(342,538,o),
(374,538,q),
(390,538,o),
(409,521,o),
(418,497,o),
(421,469,o),
(421,457,q),
(421,415,o),
(396,313,o),
(350,223,o),
(280,161,o),
(235,161,q)
);
},
{
closed = 1;
nodes = (
(357,766,o),
(387,798,o),
(417,832,o),
(447,864,o),
(458,874,q),
(519,756,l),
(531,765,o),
(557,784,o),
(567,793,q),
(579,803,o),
(591,813,q),
(580,850,o),
(569,887,q),
(560,918,o),
(541,988,o),
(533,1015,q),
(531,1017,o),
(500,1015,o),
(461,1021,q),
(435,995,o),
(376,923,o),
(351,890,q),
(321,851,o),
(293,810,q),
(299,802,o),
(308,793,q),
(314,785,o),
(334,766,o),
(347,755,q)
);
},
{
closed = 1;
nodes = (
(387,1076,o),
(411,1102,o),
(436,1126,o),
(464,1143,o),
(479,1143,q),
(500,1143,o),
(521,1122,o),
(541,1096,o),
(566,1075,o),
(590,1075,q),
(610,1075,o),
(645,1090,o),
(677,1114,o),
(705,1144,o),
(716,1161,q),
(743,1199,o),
(764,1248,q),
(758,1255,o),
(750,1261,q),
(742,1267,o),
(722,1283,o),
(710,1292,q),
(700,1283,o),
(676,1253,o),
(650,1223,o),
(622,1202,o),
(607,1202,q),
(602,1202,o),
(585,1228,o),
(557,1260,o),
(520,1288,o),
(496,1288,q),
(470,1288,o),
(426,1261,o),
(388,1222,o),
(357,1176,o),
(335,1137,o),
(323,1111,o),
(323,1111,q),
(329,1104,o),
(345,1092,o),
(364,1076,o),
(377,1067,q)
);
}
);
};
layerId = "A5922FF3-8C0B-4EAE-8A2D-3EBDCCE80B0C";
shapes = (
{
ref = O;
},
{
pos = (206,138);
ref = circumflexcomb_tildecomb;
}
);
width = 493;
}
);
unicode = 7894;
},
{
glyphname = Odblgrave;
lastChange = "2023-06-21 13:56:06 +0000";
layers = (
{
background = {
anchors = (
{
name = bottom;
pos = (162,0);
},
{
name = center;
pos = (247,360);
},
{
name = ogonek;
pos = (295,10);
},
{
name = top;
pos = (400,1020);
},
{
name = topleft;
pos = (20,721);
},
{
name = topright;
pos = (491,574);
}
);
shapes = (
{
closed = 1;
nodes = (
(220,-4,o),
(306,31,o),
(390,98,o),
(467,193,o),
(525,314,o),
(560,459,o),
(560,541,q),
(560,578,o),
(546,652,o),
(513,711,o),
(454,748,o),
(409,748,q),
(357,748,o),
(261,698,o),
(177,613,o),
(107,503,o),
(59,381,o),
(31,257,o),
(31,201,q),
(31,147,o),
(54,70,o),
(94,21,o),
(148,-4,o),
(181,-4,q)
);
},
{
closed = 1;
nodes = (
(223,161,o),
(202,174,o),
(188,192,o),
(180,216,o),
(180,227,q),
(180,251,o),
(190,317,o),
(213,386,o),
(245,453,o),
(288,506,o),
(342,538,o),
(374,538,q),
(390,538,o),
(409,521,o),
(418,497,o),
(421,469,o),
(421,457,q),
(421,415,o),
(396,313,o),
(350,223,o),
(280,161,o),
(235,161,q)
);
},
{
closed = 1;
nodes = (
(386,842,l),
(358,874,o),
(283,954,o),
(250,989,q),
(211,1029,o),
(172,1071,q),
(163,1023,o),
(154,977,q),
(147,938,o),
(131,855,o),
(125,826,q),
(154,817,o),
(240,794,o),
(281,785,q),
(328,773,o),
(379,761,q)
);
},
{
closed = 1;
nodes = (
(675,817,l),
(647,849,o),
(572,929,o),
(539,964,q),
(500,1004,o),
(461,1046,q),
(452,998,o),
(443,952,q),
(436,913,o),
(420,830,o),
(414,801,q),
(443,792,o),
(529,769,o),
(570,760,q),
(617,748,o),
(668,736,q)
);
}
);
};
layerId = "A5922FF3-8C0B-4EAE-8A2D-3EBDCCE80B0C";
shapes = (
{
ref = O;
},
{
pos = (76,131);
ref = dblgravecomb.case;
}
);
width = 493;
}
);
unicode = 524;
},
{
glyphname = Odieresis;
lastChange = "2023-06-21 13:56:06 +0000";
layers = (
{
background = {
anchors = (
{
name = bottom;
pos = (162,0);
},
{
name = center;
pos = (247,360);
},
{
name = ogonek;
pos = (295,10);
},
{
name = top;
pos = (414,1018);
},
{
name = topleft;
pos = (20,721);
},
{
name = topright;
pos = (491,574);
}
);
shapes = (
{
closed = 1;
nodes = (
(220,-4,o),
(306,31,o),
(390,98,o),
(467,193,o),
(525,314,o),
(560,459,o),
(560,541,q),
(560,578,o),
(546,652,o),
(513,711,o),
(454,748,o),
(409,748,q),
(357,748,o),
(261,698,o),
(177,613,o),
(107,503,o),
(59,381,o),
(31,257,o),
(31,201,q),
(31,147,o),
(54,70,o),
(94,21,o),
(148,-4,o),
(181,-4,q)
);
},
{
closed = 1;
nodes = (
(223,161,o),
(202,174,o),
(188,192,o),
(180,216,o),
(180,227,q),
(180,251,o),
(190,317,o),
(213,386,o),
(245,453,o),
(288,506,o),
(342,538,o),
(374,538,q),
(390,538,o),
(409,521,o),
(418,497,o),
(421,469,o),
(421,457,q),
(421,415,o),
(396,313,o),
(350,223,o),
(280,161,o),
(235,161,q)
);
},
{
closed = 1;
nodes = (
(543,843,o),
(582,860,o),
(609,886,o),
(623,919,o),
(623,937,q),
(623,968,o),
(575,1018,o),
(527,1018,q),
(504,1018,o),
(469,1002,o),
(447,978,o),
(436,946,o),
(436,929,q),
(436,896,o),
(476,843,o),
(516,843,q)
);
},
{
closed = 1;
nodes = (
(309,843,o),
(349,860,o),
(377,886,o),
(390,919,o),
(390,937,q),
(390,968,o),
(343,1018,o),
(294,1018,q),
(271,1018,o),
(237,1002,o),
(215,978,o),
(204,946,o),
(204,929,q),
(204,896,o),
(244,843,o),
(284,843,q)
);
}
);
};
layerId = "A5922FF3-8C0B-4EAE-8A2D-3EBDCCE80B0C";
shapes = (
{
ref = O;
},
{
pos = (155,135);
ref = dieresiscomb.case;
}
);
width = 493;
}
);
unicode = 214;
},
{
glyphname = Odieresismacron;
lastChange = "2023-06-21 13:56:06 +0000";
layers = (
{
background = {
anchors = (
{
name = bottom;
pos = (162,0);
},
{
name = center;
pos = (247,360);
},
{
name = ogonek;
pos = (295,10);
},
{
name = top;
pos = (414,1251);
},
{
name = topleft;
pos = (20,721);
},
{
name = topright;
pos = (491,574);
}
);
shapes = (
{
closed = 1;
nodes = (
(220,-4,o),
(306,31,o),
(390,98,o),
(467,193,o),
(525,314,o),
(560,459,o),
(560,541,q),
(560,578,o),
(546,652,o),
(513,711,o),
(454,748,o),
(409,748,q),
(357,748,o),
(261,698,o),
(177,613,o),
(107,503,o),
(59,381,o),
(31,257,o),
(31,201,q),
(31,147,o),
(54,70,o),
(94,21,o),
(148,-4,o),
(181,-4,q)
);
},
{
closed = 1;
nodes = (
(223,161,o),
(202,174,o),
(188,192,o),
(180,216,o),
(180,227,q),
(180,251,o),
(190,317,o),
(213,386,o),
(245,453,o),
(288,506,o),
(342,538,o),
(374,538,q),
(390,538,o),
(409,521,o),
(418,497,o),
(421,469,o),
(421,457,q),
(421,415,o),
(396,313,o),
(350,223,o),
(280,161,o),
(235,161,q)
);
},
{
closed = 1;
nodes = (
(543,843,o),
(582,860,o),
(609,886,o),
(623,919,o),
(623,937,q),
(623,968,o),
(575,1018,o),
(527,1018,q),
(504,1018,o),
(469,1002,o),
(447,978,o),
(436,946,o),
(436,929,q),
(436,896,o),
(476,843,o),
(516,843,q)
);
},
{
closed = 1;
nodes = (
(309,843,o),
(349,860,o),
(377,886,o),
(390,919,o),
(390,937,q),
(390,968,o),
(343,1018,o),
(294,1018,q),
(271,1018,o),
(237,1002,o),
(215,978,o),
(204,946,o),
(204,929,q),
(204,896,o),
(244,843,o),
(284,843,q)
);
},
{
closed = 1;
nodes = (
(245,1064,o),
(300,1069,o),
(362,1074,o),
(427,1078,o),
(458,1080,q),
(530,1084,o),
(609,1089,q),
(593,1251,l),
(219,1219,l),
(218,1211,o),
(218,1201,q),
(218,1161,l),
(218,1135,o),
(220,1079,o),
(225,1062,q)
);
}
);
};
layerId = "A5922FF3-8C0B-4EAE-8A2D-3EBDCCE80B0C";
shapes = (
{
ref = O;
},
{
pos = (155,135);
ref = dieresiscomb.case;
},
{
pos = (169,368);
ref = macroncomb.case;
}
);
width = 493;
}
);
unicode = 554;
},
{
glyphname = Odotaccentmacron;
lastChange = "2023-06-21 13:56:06 +0000";
layers = (
{
background = {
anchors = (
{
name = bottom;
pos = (162,0);
},
{
name = center;
pos = (247,360);
},
{
name = ogonek;
pos = (295,10);
},
{
name = top;
pos = (418,1205);
},
{
name = topleft;
pos = (20,721);
},
{
name = topright;
pos = (491,574);
}
);
shapes = (
{
closed = 1;
nodes = (
(220,-4,o),
(306,31,o),
(390,98,o),
(467,193,o),
(525,314,o),
(560,459,o),
(560,541,q),
(560,578,o),
(546,652,o),
(513,711,o),
(454,748,o),
(409,748,q),
(357,748,o),
(261,698,o),
(177,613,o),
(107,503,o),
(59,381,o),
(31,257,o),
(31,201,q),
(31,147,o),
(54,70,o),
(94,21,o),
(148,-4,o),
(181,-4,q)
);
},
{
closed = 1;
nodes = (
(223,161,o),
(202,174,o),
(188,192,o),
(180,216,o),
(180,227,q),
(180,251,o),
(190,317,o),
(213,386,o),
(245,453,o),
(288,506,o),
(342,538,o),
(374,538,q),
(390,538,o),
(409,521,o),
(418,497,o),
(421,469,o),
(421,457,q),
(421,415,o),
(396,313,o),
(350,223,o),
(280,161,o),
(235,161,q)
);
},
{
closed = 1;
nodes = (
(429,797,o),
(469,813,o),
(497,840,o),
(510,873,o),
(510,890,q),
(510,922,o),
(463,972,o),
(414,972,q),
(391,972,o),
(357,956,o),
(335,931,o),
(324,899,o),
(324,883,q),
(324,849,o),
(364,797,o),
(404,797,q)
);
},
{
closed = 1;
nodes = (
(249,1018,o),
(304,1023,o),
(366,1028,o),
(431,1032,o),
(462,1034,q),
(534,1038,o),
(613,1043,q),
(597,1205,l),
(223,1173,l),
(222,1165,o),
(222,1155,q),
(222,1115,l),
(222,1089,o),
(224,1033,o),
(229,1016,q)
);
}
);
};
layerId = "A5922FF3-8C0B-4EAE-8A2D-3EBDCCE80B0C";
shapes = (
{
ref = O;
},
{
pos = (275,76);
ref = dotaccentcomb.case;
},
{
pos = (173,322);
ref = macroncomb.case;
}
);
width = 493;
}
);
unicode = 560;
},
{
glyphname = Odotbelow;
lastChange = "2023-06-21 14:40:52 +0000";
layers = (
{
background = {
anchors = (
{
name = bottom;
pos = (162,-206);
},
{
name = center;
pos = (247,360);
},
{
name = ogonek;
pos = (295,10);
},
{
name = top;
pos = (414,750);
},
{
name = topleft;
pos = (20,721);
},
{
name = topright;
pos = (491,574);
}
);
shapes = (
{
closed = 1;
nodes = (
(220,-4,o),
(306,31,o),
(390,98,o),
(467,193,o),
(525,314,o),
(560,459,o),
(560,541,q),
(560,578,o),
(546,652,o),
(513,711,o),
(454,748,o),
(409,748,q),
(357,748,o),
(261,698,o),
(177,613,o),
(107,503,o),
(59,381,o),
(31,257,o),
(31,201,q),
(31,147,o),
(54,70,o),
(94,21,o),
(148,-4,o),
(181,-4,q)
);
},
{
closed = 1;
nodes = (
(223,161,o),
(202,174,o),
(188,192,o),
(180,216,o),
(180,227,q),
(180,251,o),
(190,317,o),
(213,386,o),
(245,453,o),
(288,506,o),
(342,538,o),
(374,538,q),
(390,538,o),
(409,521,o),
(418,497,o),
(421,469,o),
(421,457,q),
(421,415,o),
(396,313,o),
(350,223,o),
(280,161,o),
(235,161,q)
);
},
{
closed = 1;
nodes = (
(173,-205,o),
(213,-189,o),
(241,-162,o),
(254,-129,o),
(254,-112,q),
(254,-80,o),
(207,-30,o),
(158,-30,q),
(135,-30,o),
(101,-46,o),
(79,-71,o),
(68,-103,o),
(68,-119,q),
(68,-153,o),
(108,-205,o),
(148,-205,q)
);
}
);
};
layerId = "A5922FF3-8C0B-4EAE-8A2D-3EBDCCE80B0C";
shapes = (
{
ref = O;
},
{
pos = (19,-28);
ref = dotbelowcomb.case;
}
);
width = 493;
}
);
unicode = 7884;
},
{
glyphname = Ograve;
lastChange = "2023-06-21 14:40:52 +0000";
layers = (
{
background = {
anchors = (
{
name = bottom;
pos = (162,0);
},
{
name = center;
pos = (247,360);
},
{
name = ogonek;
pos = (295,10);
},
{
name = top;
pos = (323,1078);
},
{
name = topleft;
pos = (20,721);
},
{
name = topright;
pos = (491,574);
}
);
shapes = (
{
closed = 1;
nodes = (
(220,-4,o),
(306,31,o),
(390,98,o),
(467,193,o),
(525,314,o),
(560,459,o),
(560,541,q),
(560,578,o),
(546,652,o),
(513,711,o),
(454,748,o),
(409,748,q),
(357,748,o),
(261,698,o),
(177,613,o),
(107,503,o),
(59,381,o),
(31,257,o),
(31,201,q),
(31,147,o),
(54,70,o),
(94,21,o),
(148,-4,o),
(181,-4,q)
);
},
{
closed = 1;
nodes = (
(223,161,o),
(202,174,o),
(188,192,o),
(180,216,o),
(180,227,q),
(180,251,o),
(190,317,o),
(213,386,o),
(245,453,o),
(288,506,o),
(342,538,o),
(374,538,q),
(390,538,o),
(409,521,o),
(418,497,o),
(421,469,o),
(421,457,q),
(421,415,o),
(396,313,o),
(350,223,o),
(280,161,o),
(235,161,q)
);
},
{
closed = 1;
nodes = (
(453,849,l),
(425,881,o),
(350,961,o),
(317,996,q),
(278,1036,o),
(239,1078,q),
(230,1030,o),
(221,984,q),
(214,945,o),
(198,862,o),
(192,833,q),
(221,824,o),
(307,801,o),
(348,792,q),
(395,780,o),
(446,768,q)
);
}
);
};
layerId = "A5922FF3-8C0B-4EAE-8A2D-3EBDCCE80B0C";
shapes = (
{
ref = O;
},
{
pos = (123,202);
ref = gravecomb.case;
}
);
width = 493;
}
);
unicode = 210;
},
{
glyphname = Ohookabove;
lastChange = "2023-06-21 14:40:52 +0000";
layers = (
{
background = {
anchors = (
{
name = bottom;
pos = (162,0);
},
{
name = center;
pos = (247,360);
},
{
name = ogonek;
pos = (295,10);
},
{
name = top;
pos = (462,943);
},
{
name = topleft;
pos = (20,721);
},
{
name = topright;
pos = (491,574);
}
);
shapes = (
{
closed = 1;
nodes = (
(220,-4,o),
(306,31,o),
(390,98,o),
(467,193,o),
(525,314,o),
(560,459,o),
(560,541,q),
(560,578,o),
(546,652,o),
(513,711,o),
(454,748,o),
(409,748,q),
(357,748,o),
(261,698,o),
(177,613,o),
(107,503,o),
(59,381,o),
(31,257,o),
(31,201,q),
(31,147,o),
(54,70,o),
(94,21,o),
(148,-4,o),
(181,-4,q)
);
},
{
closed = 1;
nodes = (
(223,161,o),
(202,174,o),
(188,192,o),
(180,216,o),
(180,227,q),
(180,251,o),
(190,317,o),
(213,386,o),
(245,453,o),
(288,506,o),
(342,538,o),
(374,538,q),
(390,538,o),
(409,521,o),
(418,497,o),
(421,469,o),
(421,457,q),
(421,415,o),
(396,313,o),
(350,223,o),
(280,161,o),
(235,161,q)
);
},
{
closed = 1;
nodes = (
(443,761,l),
(462,763,l),
(466,775,o),
(479,794,o),
(497,809,o),
(517,823,o),
(532,840,o),
(542,862,o),
(542,879,q),
(539,908,o),
(521,929,o),
(507,938,o),
(481,943,o),
(471,943,q),
(449,943,o),
(406,926,o),
(382,907,q),
(398,848,l),
(408,856,o),
(427,870,o),
(444,880,o),
(451,880,q),
(456,880,o),
(462,873,o),
(462,871,q),
(462,866,o),
(452,855,o),
(437,842,o),
(420,825,o),
(404,804,o),
(395,776,o),
(395,759,q)
);
}
);
};
layerId = "A5922FF3-8C0B-4EAE-8A2D-3EBDCCE80B0C";
shapes = (
{
ref = O;
},
{
pos = (324,137);
ref = hookabovecomb.case;
}
);
width = 493;
}
);
unicode = 7886;
},
{
glyphname = Ohorn;
lastChange = "2023-06-21 13:56:06 +0000";
layers = (
{
background = {
anchors = (
{
name = bottom;
pos = (162,0);
},
{
name = center;
pos = (247,360);
},
{
name = ogonek;
pos = (295,10);
},
{
name = top;
pos = (414,750);
},
{
name = topleft;
pos = (20,721);
},
{
name = topright;
pos = (720,777);
}
);
shapes = (
{
closed = 1;
nodes = (
(220,-4,o),
(306,31,o),
(390,98,o),
(467,193,o),
(525,314,o),
(560,459,o),
(560,541,q),
(560,578,o),
(546,652,o),
(513,711,o),
(454,748,o),
(409,748,q),
(357,748,o),
(261,698,o),
(177,613,o),
(107,503,o),
(59,381,o),
(31,257,o),
(31,201,q),
(31,147,o),
(54,70,o),
(94,21,o),
(148,-4,o),
(181,-4,q)
);
},
{
closed = 1;
nodes = (
(223,161,o),
(202,174,o),
(188,192,o),
(180,216,o),
(180,227,q),
(180,251,o),
(190,317,o),
(213,386,o),
(245,453,o),
(288,506,o),
(342,538,o),
(374,538,q),
(390,538,o),
(409,521,o),
(418,497,o),
(421,469,o),
(421,457,q),
(421,415,o),
(396,313,o),
(350,223,o),
(280,161,o),
(235,161,q)
);
},
{
closed = 1;
nodes = (
(532,540,l),
(602,549,o),
(671,652,o),
(667,716,q),
(657,725,o),
(645,736,q),
(634,745,o),
(611,766,o),
(598,776,q),
(600,727,o),
(597,612,o),
(519,612,c)
);
}
);
};
layerId = "A5922FF3-8C0B-4EAE-8A2D-3EBDCCE80B0C";
shapes = (
{
ref = O;
},
{
pos = (470,-92);
ref = horncomb.case;
}
);
width = 493;
}
);
unicode = 416;
},
{
glyphname = Ohornacute;
lastChange = "2023-06-21 14:40:52 +0000";
layers = (
{
background = {
anchors = (
{
name = bottom;
pos = (162,0);
},
{
name = center;
pos = (247,360);
},
{
name = ogonek;
pos = (295,10);
},
{
name = top;
pos = (459,1106);
},
{
name = topleft;
pos = (20,721);
},
{
name = topright;
pos = (720,777);
}
);
shapes = (
{
closed = 1;
nodes = (
(220,-4,o),
(306,31,o),
(390,98,o),
(467,193,o),
(525,314,o),
(560,459,o),
(560,541,q),
(560,578,o),
(546,652,o),
(513,711,o),
(454,748,o),
(409,748,q),
(357,748,o),
(261,698,o),
(177,613,o),
(107,503,o),
(59,381,o),
(31,257,o),
(31,201,q),
(31,147,o),
(54,70,o),
(94,21,o),
(148,-4,o),
(181,-4,q)
);
},
{
closed = 1;
nodes = (
(223,161,o),
(202,174,o),
(188,192,o),
(180,216,o),
(180,227,q),
(180,251,o),
(190,317,o),
(213,386,o),
(245,453,o),
(288,506,o),
(342,538,o),
(374,538,q),
(390,538,o),
(409,521,o),
(418,497,o),
(421,469,o),
(421,457,q),
(421,415,o),
(396,313,o),
(350,223,o),
(280,161,o),
(235,161,q)
);
},
{
closed = 1;
nodes = (
(532,540,l),
(602,549,o),
(671,652,o),
(667,716,q),
(657,725,o),
(645,736,q),
(634,745,o),
(611,766,o),
(598,776,q),
(600,727,o),
(597,612,o),
(519,612,c)
);
},
{
closed = 1;
nodes = (
(391,789,o),
(527,838,o),
(586,862,q),
(578,923,o),
(577,1039,o),
(572,1106,q),
(520,1049,o),
(400,941,o),
(332,872,q),
(332,854,o),
(331,821,o),
(331,805,q),
(331,796,o),
(331,778,o),
(332,767,q)
);
}
);
};
layerId = "A5922FF3-8C0B-4EAE-8A2D-3EBDCCE80B0C";
shapes = (
{
ref = Ohorn;
},
{
pos = (253,229);
ref = acutecomb.case;
}
);
width = 493;
}
);
unicode = 7898;
},
{
glyphname = Ohorndotbelow;
lastChange = "2023-06-21 14:40:52 +0000";
layers = (
{
background = {
anchors = (
{
name = bottom;
pos = (162,-206);
},
{
name = center;
pos = (247,360);
},
{
name = ogonek;
pos = (295,10);
},
{
name = top;
pos = (414,750);
},
{
name = topleft;
pos = (20,721);
},
{
name = topright;
pos = (720,777);
}
);
shapes = (
{
closed = 1;
nodes = (
(220,-4,o),
(306,31,o),
(390,98,o),
(467,193,o),
(525,314,o),
(560,459,o),
(560,541,q),
(560,578,o),
(546,652,o),
(513,711,o),
(454,748,o),
(409,748,q),
(357,748,o),
(261,698,o),
(177,613,o),
(107,503,o),
(59,381,o),
(31,257,o),
(31,201,q),
(31,147,o),
(54,70,o),
(94,21,o),
(148,-4,o),
(181,-4,q)
);
},
{
closed = 1;
nodes = (
(223,161,o),
(202,174,o),
(188,192,o),
(180,216,o),
(180,227,q),
(180,251,o),
(190,317,o),
(213,386,o),
(245,453,o),
(288,506,o),
(342,538,o),
(374,538,q),
(390,538,o),
(409,521,o),
(418,497,o),
(421,469,o),
(421,457,q),
(421,415,o),
(396,313,o),
(350,223,o),
(280,161,o),
(235,161,q)
);
},
{
closed = 1;
nodes = (
(532,540,l),
(602,549,o),
(671,652,o),
(667,716,q),
(657,725,o),
(645,736,q),
(634,745,o),
(611,766,o),
(598,776,q),
(600,727,o),
(597,612,o),
(519,612,c)
);
},
{
closed = 1;
nodes = (
(173,-205,o),
(213,-189,o),
(241,-162,o),
(254,-129,o),
(254,-112,q),
(254,-80,o),
(207,-30,o),
(158,-30,q),
(135,-30,o),
(101,-46,o),
(79,-71,o),
(68,-103,o),
(68,-119,q),
(68,-153,o),
(108,-205,o),
(148,-205,q)
);
}
);
};
layerId = "A5922FF3-8C0B-4EAE-8A2D-3EBDCCE80B0C";
shapes = (
{
ref = Ohorn;
},
{
pos = (19,-28);
ref = dotbelowcomb.case;
}
);
width = 493;
}
);
unicode = 7906;
},
{
glyphname = Ohorngrave;
lastChange = "2023-06-21 14:40:52 +0000";
layers = (
{
background = {
anchors = (
{
name = bottom;
pos = (162,0);
},
{
name = center;
pos = (247,360);
},
{
name = ogonek;
pos = (295,10);
},
{
name = top;
pos = (323,1078);
},
{
name = topleft;
pos = (20,721);
},
{
name = topright;
pos = (720,777);
}
);
shapes = (
{
closed = 1;
nodes = (
(220,-4,o),
(306,31,o),
(390,98,o),
(467,193,o),
(525,314,o),
(560,459,o),
(560,541,q),
(560,578,o),
(546,652,o),
(513,711,o),
(454,748,o),
(409,748,q),
(357,748,o),
(261,698,o),
(177,613,o),
(107,503,o),
(59,381,o),
(31,257,o),
(31,201,q),
(31,147,o),
(54,70,o),
(94,21,o),
(148,-4,o),
(181,-4,q)
);
},
{
closed = 1;
nodes = (
(223,161,o),
(202,174,o),
(188,192,o),
(180,216,o),
(180,227,q),
(180,251,o),
(190,317,o),
(213,386,o),
(245,453,o),
(288,506,o),
(342,538,o),
(374,538,q),
(390,538,o),
(409,521,o),
(418,497,o),
(421,469,o),
(421,457,q),
(421,415,o),
(396,313,o),
(350,223,o),
(280,161,o),
(235,161,q)
);
},
{
closed = 1;
nodes = (
(532,540,l),
(602,549,o),
(671,652,o),
(667,716,q),
(657,725,o),
(645,736,q),
(634,745,o),
(611,766,o),
(598,776,q),
(600,727,o),
(597,612,o),
(519,612,c)
);
},
{
closed = 1;
nodes = (
(453,849,l),
(425,881,o),
(350,961,o),
(317,996,q),
(278,1036,o),
(239,1078,q),
(230,1030,o),
(221,984,q),
(214,945,o),
(198,862,o),
(192,833,q),
(221,824,o),
(307,801,o),
(348,792,q),
(395,780,o),
(446,768,q)
);
}
);
};
layerId = "A5922FF3-8C0B-4EAE-8A2D-3EBDCCE80B0C";
shapes = (
{
ref = Ohorn;
},
{
pos = (123,202);
ref = gravecomb.case;
}
);
width = 493;
}
);
unicode = 7900;
},
{
glyphname = Ohornhookabove;
lastChange = "2023-06-21 14:40:52 +0000";
layers = (
{
background = {
anchors = (
{
name = bottom;
pos = (162,0);
},
{
name = center;
pos = (247,360);
},
{
name = ogonek;
pos = (295,10);
},
{
name = top;
pos = (462,943);
},
{
name = topleft;
pos = (20,721);
},
{
name = topright;
pos = (720,777);
}
);
shapes = (
{
closed = 1;
nodes = (
(220,-4,o),
(306,31,o),
(390,98,o),
(467,193,o),
(525,314,o),
(560,459,o),
(560,541,q),
(560,578,o),
(546,652,o),
(513,711,o),
(454,748,o),
(409,748,q),
(357,748,o),
(261,698,o),
(177,613,o),
(107,503,o),
(59,381,o),
(31,257,o),
(31,201,q),
(31,147,o),
(54,70,o),
(94,21,o),
(148,-4,o),
(181,-4,q)
);
},
{
closed = 1;
nodes = (
(223,161,o),
(202,174,o),
(188,192,o),
(180,216,o),
(180,227,q),
(180,251,o),
(190,317,o),
(213,386,o),
(245,453,o),
(288,506,o),
(342,538,o),
(374,538,q),
(390,538,o),
(409,521,o),
(418,497,o),
(421,469,o),
(421,457,q),
(421,415,o),
(396,313,o),
(350,223,o),
(280,161,o),
(235,161,q)
);
},
{
closed = 1;
nodes = (
(532,540,l),
(602,549,o),
(671,652,o),
(667,716,q),
(657,725,o),
(645,736,q),
(634,745,o),
(611,766,o),
(598,776,q),
(600,727,o),
(597,612,o),
(519,612,c)
);
},
{
closed = 1;
nodes = (
(443,761,l),
(462,763,l),
(466,775,o),
(479,794,o),
(497,809,o),
(517,823,o),
(532,840,o),
(542,862,o),
(542,879,q),
(539,908,o),
(521,929,o),
(507,938,o),
(481,943,o),
(471,943,q),
(449,943,o),
(406,926,o),
(382,907,q),
(398,848,l),
(408,856,o),
(427,870,o),
(444,880,o),
(451,880,q),
(456,880,o),
(462,873,o),
(462,871,q),
(462,866,o),
(452,855,o),
(437,842,o),
(420,825,o),
(404,804,o),
(395,776,o),
(395,759,q)
);
}
);
};
layerId = "A5922FF3-8C0B-4EAE-8A2D-3EBDCCE80B0C";
shapes = (
{
ref = Ohorn;
},
{
pos = (324,137);
ref = hookabovecomb.case;
}
);
width = 493;
}
);
unicode = 7902;
},
{
glyphname = Ohorntilde;
lastChange = "2023-06-21 14:40:52 +0000";
layers = (
{
background = {
anchors = (
{
name = bottom;
pos = (162,0);
},
{
name = center;
pos = (247,360);
},
{
name = ogonek;
pos = (295,10);
},
{
name = top;
pos = (457,1006);
},
{
name = topleft;
pos = (20,721);
},
{
name = topright;
pos = (720,777);
}
);
shapes = (
{
closed = 1;
nodes = (
(220,-4,o),
(306,31,o),
(390,98,o),
(467,193,o),
(525,314,o),
(560,459,o),
(560,541,q),
(560,578,o),
(546,652,o),
(513,711,o),
(454,748,o),
(409,748,q),
(357,748,o),
(261,698,o),
(177,613,o),
(107,503,o),
(59,381,o),
(31,257,o),
(31,201,q),
(31,147,o),
(54,70,o),
(94,21,o),
(148,-4,o),
(181,-4,q)
);
},
{
closed = 1;
nodes = (
(223,161,o),
(202,174,o),
(188,192,o),
(180,216,o),
(180,227,q),
(180,251,o),
(190,317,o),
(213,386,o),
(245,453,o),
(288,506,o),
(342,538,o),
(374,538,q),
(390,538,o),
(409,521,o),
(418,497,o),
(421,469,o),
(421,457,q),
(421,415,o),
(396,313,o),
(350,223,o),
(280,161,o),
(235,161,q)
);
},
{
closed = 1;
nodes = (
(532,540,l),
(602,549,o),
(671,652,o),
(667,716,q),
(657,725,o),
(645,736,q),
(634,745,o),
(611,766,o),
(598,776,q),
(600,727,o),
(597,612,o),
(519,612,c)
);
},
{
closed = 1;
nodes = (
(301,790,o),
(325,816,o),
(350,840,o),
(378,857,o),
(393,857,q),
(414,857,o),
(435,836,o),
(455,810,o),
(480,789,o),
(504,789,q),
(524,789,o),
(559,804,o),
(591,828,o),
(619,858,o),
(630,875,q),
(657,913,o),
(678,962,q),
(672,969,o),
(664,975,q),
(656,981,o),
(636,997,o),
(624,1006,q),
(614,997,o),
(590,967,o),
(564,937,o),
(536,916,o),
(521,916,q),
(516,916,o),
(499,942,o),
(471,974,o),
(434,1002,o),
(410,1002,q),
(384,1002,o),
(340,975,o),
(302,936,o),
(271,890,o),
(249,851,o),
(237,825,o),
(237,825,q),
(243,818,o),
(259,806,o),
(278,790,o),
(291,781,q)
);
}
);
};
layerId = "A5922FF3-8C0B-4EAE-8A2D-3EBDCCE80B0C";
shapes = (
{
ref = Ohorn;
},
{
pos = (232,134);
ref = tildecomb.case;
}
);
width = 493;
}
);
unicode = 7904;
},
{
glyphname = Ohungarumlaut;
lastChange = "2023-06-21 14:40:52 +0000";
layers = (
{
background = {
anchors = (
{
name = bottom;
pos = (162,0);
},
{
name = center;
pos = (247,360);
},
{
name = ogonek;
pos = (295,10);
},
{
name = top;
pos = (406,1098);
},
{
name = topleft;
pos = (20,721);
},
{
name = topright;
pos = (491,574);
}
);
shapes = (
{
closed = 1;
nodes = (
(220,-4,o),
(306,31,o),
(390,98,o),
(467,193,o),
(525,314,o),
(560,459,o),
(560,541,q),
(560,578,o),
(546,652,o),
(513,711,o),
(454,748,o),
(409,748,q),
(357,748,o),
(261,698,o),
(177,613,o),
(107,503,o),
(59,381,o),
(31,257,o),
(31,201,q),
(31,147,o),
(54,70,o),
(94,21,o),
(148,-4,o),
(181,-4,q)
);
},
{
closed = 1;
nodes = (
(223,161,o),
(202,174,o),
(188,192,o),
(180,216,o),
(180,227,q),
(180,251,o),
(190,317,o),
(213,386,o),
(245,453,o),
(288,506,o),
(342,538,o),
(374,538,q),
(390,538,o),
(409,521,o),
(418,497,o),
(421,469,o),
(421,457,q),
(421,415,o),
(396,313,o),
(350,223,o),
(280,161,o),
(235,161,q)
);
},
{
closed = 1;
nodes = (
(508,782,o),
(625,831,o),
(684,855,q),
(658,915,o),
(611,1037,o),
(585,1098,q),
(540,1035,o),
(457,905,o),
(414,841,qs),
(405,828,o),
(428,809,o),
(436,792,o),
(444,774,o),
(450,760,q)
);
},
{
closed = 1;
nodes = (
(222,782,o),
(339,831,o),
(398,855,q),
(372,915,o),
(325,1037,o),
(299,1098,q),
(254,1035,o),
(170,906,o),
(127,841,q),
(134,827,o),
(142,809,o),
(150,792,o),
(158,774,o),
(164,760,q)
);
}
);
};
layerId = "A5922FF3-8C0B-4EAE-8A2D-3EBDCCE80B0C";
shapes = (
{
ref = O;
},
{
pos = (69,231);
ref = hungarumlautcomb.case;
}
);
width = 493;
}
);
unicode = 336;
},
{
glyphname = Oinvertedbreve;
lastChange = "2023-06-21 13:56:06 +0000";
layers = (
{
background = {
anchors = (
{
name = bottom;
pos = (162,0);
},
{
name = center;
pos = (247,360);
},
{
name = ogonek;
pos = (295,10);
},
{
name = top;
pos = (414,1025);
},
{
name = topleft;
pos = (20,721);
},
{
name = topright;
pos = (491,574);
}
);
shapes = (
{
closed = 1;
nodes = (
(220,-4,o),
(306,31,o),
(390,98,o),
(467,193,o),
(525,314,o),
(560,459,o),
(560,541,q),
(560,578,o),
(546,652,o),
(513,711,o),
(454,748,o),
(409,748,q),
(357,748,o),
(261,698,o),
(177,613,o),
(107,503,o),
(59,381,o),
(31,257,o),
(31,201,q),
(31,147,o),
(54,70,o),
(94,21,o),
(148,-4,o),
(181,-4,q)
);
},
{
closed = 1;
nodes = (
(223,161,o),
(202,174,o),
(188,192,o),
(180,216,o),
(180,227,q),
(180,251,o),
(190,317,o),
(213,386,o),
(245,453,o),
(288,506,o),
(342,538,o),
(374,538,q),
(390,538,o),
(409,521,o),
(418,497,o),
(421,469,o),
(421,457,q),
(421,415,o),
(396,313,o),
(350,223,o),
(280,161,o),
(235,161,q)
);
},
{
closed = 1;
nodes = (
(332,960,o),
(274,866,o),
(263,812,q),
(279,796,ls),
(287,788,o),
(307,771,o),
(320,760,q),
(340,801,o),
(366,849,o),
(399,878,o),
(431,878,q),
(469,878,o),
(494,819,o),
(492,770,c),
(505,780,o),
(528,801,o),
(539,810,q),
(551,821,o),
(561,830,q),
(565,894,o),
(494,1006,o),
(439,1006,qs),
(397,1006,o)
);
}
);
};
layerId = "A5922FF3-8C0B-4EAE-8A2D-3EBDCCE80B0C";
shapes = (
{
ref = O;
},
{
pos = (215,145);
ref = breveinvertedcomb.case;
}
);
width = 493;
}
);
unicode = 526;
},
{
glyphname = Omacron;
lastChange = "2023-06-21 14:40:52 +0000";
layers = (
{
background = {
anchors = (
{
name = bottom;
pos = (162,0);
},
{
name = center;
pos = (247,360);
},
{
name = ogonek;
pos = (295,10);
},
{
name = top;
pos = (408,967);
},
{
name = topleft;
pos = (20,721);
},
{
name = topright;
pos = (491,574);
}
);
shapes = (
{
closed = 1;
nodes = (
(220,-4,o),
(306,31,o),
(390,98,o),
(467,193,o),
(525,314,o),
(560,459,o),
(560,541,q),
(560,578,o),
(546,652,o),
(513,711,o),
(454,748,o),
(409,748,q),
(357,748,o),
(261,698,o),
(177,613,o),
(107,503,o),
(59,381,o),
(31,257,o),
(31,201,q),
(31,147,o),
(54,70,o),
(94,21,o),
(148,-4,o),
(181,-4,q)
);
},
{
closed = 1;
nodes = (
(223,161,o),
(202,174,o),
(188,192,o),
(180,216,o),
(180,227,q),
(180,251,o),
(190,317,o),
(213,386,o),
(245,453,o),
(288,506,o),
(342,538,o),
(374,538,q),
(390,538,o),
(409,521,o),
(418,497,o),
(421,469,o),
(421,457,q),
(421,415,o),
(396,313,o),
(350,223,o),
(280,161,o),
(235,161,q)
);
},
{
closed = 1;
nodes = (
(239,780,o),
(294,785,o),
(356,790,o),
(421,794,o),
(452,796,q),
(524,800,o),
(603,805,q),
(587,967,l),
(213,935,l),
(212,927,o),
(212,917,q),
(212,877,l),
(212,851,o),
(214,795,o),
(219,778,q)
);
}
);
};
layerId = "A5922FF3-8C0B-4EAE-8A2D-3EBDCCE80B0C";
shapes = (
{
ref = O;
},
{
pos = (169,100);
ref = macroncomb.case;
}
);
width = 493;
}
);
unicode = 332;
},
{
glyphname = Oogonek;
lastChange = "2023-06-21 14:40:52 +0000";
layers = (
{
background = {
anchors = (
{
name = bottom;
pos = (162,0);
},
{
name = center;
pos = (247,360);
},
{
name = ogonek;
pos = (295,10);
},
{
name = top;
pos = (414,750);
},
{
name = topleft;
pos = (20,721);
},
{
name = topright;
pos = (491,574);
}
);
shapes = (
{
closed = 1;
nodes = (
(220,-4,o),
(306,31,o),
(390,98,o),
(467,193,o),
(525,314,o),
(560,459,o),
(560,541,q),
(560,578,o),
(546,652,o),
(513,711,o),
(454,748,o),
(409,748,q),
(357,748,o),
(261,698,o),
(177,613,o),
(107,503,o),
(59,381,o),
(31,257,o),
(31,201,q),
(31,147,o),
(54,70,o),
(94,21,o),
(148,-4,o),
(181,-4,q)
);
},
{
closed = 1;
nodes = (
(223,161,o),
(202,174,o),
(188,192,o),
(180,216,o),
(180,227,q),
(180,251,o),
(190,317,o),
(213,386,o),
(245,453,o),
(288,506,o),
(342,538,o),
(374,538,q),
(390,538,o),
(409,521,o),
(418,497,o),
(421,469,o),
(421,457,q),
(421,415,o),
(396,313,o),
(350,223,o),
(280,161,o),
(235,161,q)
);
},
{
closed = 1;
nodes = (
(281,-134,o),
(326,-116,o),
(342,-97,q),
(322,-9,l),
(297,-37,o),
(269,-37,q),
(248,-37,o),
(219,-5,o),
(219,20,q),
(219,32,o),
(223,50,q),
(206,48,o),
(182,44,o),
(164,41,o),
(163,41,q),
(123,2,o),
(123,-37,q),
(123,-58,o),
(143,-93,o),
(179,-119,o),
(228,-134,o),
(258,-134,q)
);
}
);
};
layerId = "A5922FF3-8C0B-4EAE-8A2D-3EBDCCE80B0C";
shapes = (
{
ref = O;
},
{
pos = (74,31);
ref = ogonekcomb.case;
}
);
width = 493;
}
);
unicode = 490;
},
{
glyphname = Oslash;
lastChange = "2023-06-21 13:56:06 +0000";
layers = (
{
anchors = (
{
name = bottom;
pos = (247,0);
},
{
name = top;
pos = (409,748);
}
);
background = {
anchors = (
{
name = bottom;
pos = (247,0);
},
{
name = top;
pos = (409,748);
}
);
shapes = (
{
closed = 1;
nodes = (
(82,35,l),
(121,-4,o),
(181,-4,q),
(220,-4,o),
(306,31,o),
(390,98,o),
(467,193,o),
(525,314,o),
(560,459,o),
(560,541,q),
(560,563,o),
(555,608,o),
(550,630,q),
(623,724,l),
(606,704,l),
(555,742,l),
(520,696,l),
(502,720,o),
(448,748,o),
(409,748,q),
(357,748,o),
(261,698,o),
(177,613,o),
(107,503,o),
(59,381,o),
(31,257,o),
(31,201,q),
(31,141,o),
(47,96,q),
(-1,40,l),
(49,-8,l)
);
},
{
closed = 1;
nodes = (
(222,168,o),
(196,181,q),
(437,484,l),
(439,473,o),
(439,457,q),
(439,434,o),
(427,372,o),
(402,309,o),
(369,246,o),
(326,198,o),
(275,168,o),
(247,168,q)
);
},
{
closed = 1;
nodes = (
(174,252,o),
(173,265,o),
(173,271,q),
(173,318,o),
(206,426,o),
(259,517,o),
(322,576,o),
(354,576,q),
(388,576,o),
(413,533,q),
(175,246,l)
);
}
);
};
layerId = "A5922FF3-8C0B-4EAE-8A2D-3EBDCCE80B0C";
shapes = (
{
closed = 1;
nodes = (
(82,35,l),
(108,9,o),
(141,-4,o),
(181,-4,cs),
(259,-4,o),
(351,49,o),
(429,146,cs),
(506,241,o),
(560,382,o),
(560,541,cs),
(560,570,o),
(557,601,o),
(550,630,c),
(623,724,l),
(606,704,l),
(555,742,l),
(520,696,l),
(496,728,o),
(461,748,o),
(409,748,cs),
(308,748,o),
(213,670,o),
(142,558,cs),
(76,455,o),
(31,314,o),
(31,201,cs),
(31,161,o),
(36,126,o),
(47,96,c),
(-1,40,l),
(49,-8,l)
);
},
{
closed = 1;
nodes = (
(230,168,o),
(213,172,o),
(196,181,c),
(437,484,l),
(438,477,o),
(439,468,o),
(439,457,cs),
(439,404,o),
(420,342,o),
(386,278,cs),
(353,215,o),
(301,168,o),
(247,168,cs)
);
},
{
closed = 1;
nodes = (
(174,254,o),
(173,263,o),
(173,271,cs),
(173,394,o),
(268,576,o),
(354,576,cs),
(377,576,o),
(396,562,o),
(413,533,c),
(175,246,l)
);
}
);
width = 493;
}
);
unicode = 216;
},
